<?xml version="1.0" encoding="UTF-8" standalone="no"?>
<!-- Created with Inkscape (http://www.inkscape.org/) -->

<svg
   xmlns:dc="http://purl.org/dc/elements/1.1/"
   xmlns:cc="http://creativecommons.org/ns#"
   xmlns:rdf="http://www.w3.org/1999/02/22-rdf-syntax-ns#"
   xmlns:svg="http://www.w3.org/2000/svg"
   xmlns="http://www.w3.org/2000/svg"
   xmlns:xlink="http://www.w3.org/1999/xlink"
   xmlns:sodipodi="http://sodipodi.sourceforge.net/DTD/sodipodi-0.dtd"
   xmlns:inkscape="http://www.inkscape.org/namespaces/inkscape"
   width="64"
   height="64"
   id="svg2495"
   sodipodi:version="0.32"
   inkscape:version="0.47 r22583"
   inkscape:export-filename="percy 2.png"
   inkscape:export-xdpi="90"
   inkscape:export-ydpi="90"
   sodipodi:docname="persy_ok.svg"
   inkscape:output_extension="org.inkscape.output.svg.inkscape"
   version="1.0">
  <sodipodi:namedview
     id="base"
     pagecolor="#ffffff"
     bordercolor="#666666"
     borderopacity="1.0"
     inkscape:pageopacity="0.0"
     inkscape:pageshadow="2"
     inkscape:zoom="3.6203867"
     inkscape:cx="12.810779"
     inkscape:cy="53.670492"
     inkscape:document-units="px"
     inkscape:current-layer="layer1"
     showgrid="false"
     inkscape:window-width="1366"
     inkscape:window-height="716"
     inkscape:window-x="119"
     inkscape:window-y="116"
     inkscape:window-maximized="0" />
  <defs
     id="defs2497">
    <linearGradient
       id="linearGradient3176">
      <stop
         style="stop-color:#b28de4;stop-opacity:1;"
         offset="0"
         id="stop3178" />
      <stop
         style="stop-color:#c7b4f9;stop-opacity:1;"
         offset="1"
         id="stop3180" />
    </linearGradient>
    <inkscape:perspective
       sodipodi:type="inkscape:persp3d"
       inkscape:vp_x="0 : 526.18109 : 1"
       inkscape:vp_y="0 : 1000 : 0"
       inkscape:vp_z="744.09448 : 526.18109 : 1"
       inkscape:persp3d-origin="372.04724 : 350.78739 : 1"
       id="perspective2503" />
    <linearGradient
       inkscape:collect="always"
       xlink:href="#linearGradient3176"
       id="linearGradient3182"
       x1="802.89124"
       y1="1565.7361"
       x2="162.55066"
       y2="1565.7361"
       gradientUnits="userSpaceOnUse" />
    <linearGradient
       inkscape:collect="always"
       xlink:href="#linearGradient3176"
       id="linearGradient3213"
       gradientUnits="userSpaceOnUse"
       x1="802.89124"
       y1="1565.7361"
       x2="162.55066"
       y2="1565.7361" />
    <linearGradient
       inkscape:collect="always"
       xlink:href="#linearGradient3176-734"
       id="linearGradient3213-518"
       gradientUnits="userSpaceOnUse"
       x1="802.89124"
       y1="1565.7361"
       x2="162.55066"
       y2="1565.7361" />
    <linearGradient
       id="linearGradient3176-734">
      <stop
         style="stop-color:#cc8de4;stop-opacity:1;"
         offset="0"
         id="stop6653" />
      <stop
         style="stop-color:#dbb4f9;stop-opacity:1;"
         offset="1"
         id="stop6655" />
    </linearGradient>
    <linearGradient
       inkscape:collect="always"
       xlink:href="#linearGradient3176-734-748"
       id="linearGradient3213-518-745"
       gradientUnits="userSpaceOnUse"
       x1="802.89124"
       y1="1565.7361"
       x2="162.55066"
       y2="1565.7361" />
    <linearGradient
       id="linearGradient3176-734-748">
      <stop
         style="stop-color:#e48de1;stop-opacity:1;"
         offset="0"
         id="stop6704" />
      <stop
         style="stop-color:#efb4f9;stop-opacity:1;"
         offset="1"
         id="stop6706" />
    </linearGradient>
    <linearGradient
       inkscape:collect="always"
       xlink:href="#linearGradient3176-734-748-342"
       id="linearGradient3213-518-745-539"
       gradientUnits="userSpaceOnUse"
       x1="802.89124"
       y1="1565.7361"
       x2="162.55066"
       y2="1565.7361" />
    <linearGradient
       id="linearGradient3176-734-748-342">
      <stop
         style="stop-color:#e48dc6;stop-opacity:1;"
         offset="0"
         id="stop6762" />
      <stop
         style="stop-color:#f9b4ee;stop-opacity:1;"
         offset="1"
         id="stop6764" />
    </linearGradient>
    <linearGradient
       inkscape:collect="always"
       xlink:href="#linearGradient3176-734-748-342-116"
       id="linearGradient3213-518-745-539-243"
       gradientUnits="userSpaceOnUse"
       x1="802.89124"
       y1="1565.7361"
       x2="162.55066"
       y2="1565.7361" />
    <linearGradient
       id="linearGradient3176-734-748-342-116">
      <stop
         style="stop-color:#e48dab;stop-opacity:1;"
         offset="0"
         id="stop6828" />
      <stop
         style="stop-color:#f9b4d9;stop-opacity:1;"
         offset="1"
         id="stop6830" />
    </linearGradient>
    <linearGradient
       inkscape:collect="always"
       xlink:href="#linearGradient3176-734-748-342-116-658"
       id="linearGradient3213-518-745-539-243-423"
       gradientUnits="userSpaceOnUse"
       x1="802.89124"
       y1="1565.7361"
       x2="162.55066"
       y2="1565.7361" />
    <linearGradient
       id="linearGradient3176-734-748-342-116-658">
      <stop
         style="stop-color:#e48d90;stop-opacity:1;"
         offset="0"
         id="stop6902" />
      <stop
         style="stop-color:#f9b4c4;stop-opacity:1;"
         offset="1"
         id="stop6904" />
    </linearGradient>
    <linearGradient
       inkscape:collect="always"
       xlink:href="#linearGradient3176-734-748-342-116-658-183"
       id="linearGradient3213-518-745-539-243-423-182"
       gradientUnits="userSpaceOnUse"
       x1="802.89124"
       y1="1565.7361"
       x2="162.55066"
       y2="1565.7361" />
    <linearGradient
       id="linearGradient3176-734-748-342-116-658-183">
      <stop
         style="stop-color:#e4a48d;stop-opacity:1;"
         offset="0"
         id="stop6984" />
      <stop
         style="stop-color:#f9b8b4;stop-opacity:1;"
         offset="1"
         id="stop6986" />
    </linearGradient>
    <linearGradient
       inkscape:collect="always"
       xlink:href="#linearGradient3176-734-748-342-116-658-183-116"
       id="linearGradient3213-518-745-539-243-423-182-462"
       gradientUnits="userSpaceOnUse"
       x1="802.89124"
       y1="1565.7361"
       x2="162.55066"
       y2="1565.7361" />
    <linearGradient
       id="linearGradient3176-734-748-342-116-658-183-116">
      <stop
         style="stop-color:#e4be8d;stop-opacity:1;"
         offset="0"
         id="stop7074" />
      <stop
         style="stop-color:#f9ccb4;stop-opacity:1;"
         offset="1"
         id="stop7076" />
    </linearGradient>
    <linearGradient
       inkscape:collect="always"
       xlink:href="#linearGradient3176-734-748-342-116-658-183-116-103"
       id="linearGradient3213-518-745-539-243-423-182-462-947"
       gradientUnits="userSpaceOnUse"
       x1="802.89124"
       y1="1565.7361"
       x2="162.55066"
       y2="1565.7361" />
    <linearGradient
       id="linearGradient3176-734-748-342-116-658-183-116-103">
      <stop
         style="stop-color:#e4d88d;stop-opacity:1;"
         offset="0"
         id="stop7172" />
      <stop
         style="stop-color:#f9e0b4;stop-opacity:1;"
         offset="1"
         id="stop7174" />
    </linearGradient>
    <linearGradient
       inkscape:collect="always"
       xlink:href="#linearGradient3176-734-748-342-116-658-183-116-103-544"
       id="linearGradient3213-518-745-539-243-423-182-462-947-961"
       gradientUnits="userSpaceOnUse"
       x1="802.89124"
       y1="1565.7361"
       x2="162.55066"
       y2="1565.7361" />
    <linearGradient
       id="linearGradient3176-734-748-342-116-658-183-116-103-544">
      <stop
         style="stop-color:#d5e48d;stop-opacity:1;"
         offset="0"
         id="stop7278" />
      <stop
         style="stop-color:#f9f4b4;stop-opacity:1;"
         offset="1"
         id="stop7280" />
    </linearGradient>
    <linearGradient
       inkscape:collect="always"
       xlink:href="#linearGradient3176-734-748-342-116-658-183-116-103-544-940"
       id="linearGradient3213-518-745-539-243-423-182-462-947-961-883"
       gradientUnits="userSpaceOnUse"
       x1="802.89124"
       y1="1565.7361"
       x2="162.55066"
       y2="1565.7361" />
    <linearGradient
       id="linearGradient3176-734-748-342-116-658-183-116-103-544-940">
      <stop
         style="stop-color:#bae48d;stop-opacity:1;"
         offset="0"
         id="stop7392" />
      <stop
         style="stop-color:#e9f9b4;stop-opacity:1;"
         offset="1"
         id="stop7394" />
    </linearGradient>
    <linearGradient
       inkscape:collect="always"
       xlink:href="#linearGradient3176-734-748-342-116-658-183-116-103-544-940-937"
       id="linearGradient3213-518-745-539-243-423-182-462-947-961-883-365"
       gradientUnits="userSpaceOnUse"
       x1="802.89124"
       y1="1565.7361"
       x2="162.55066"
       y2="1565.7361" />
    <linearGradient
       id="linearGradient3176-734-748-342-116-658-183-116-103-544-940-937">
      <stop
         style="stop-color:#9fe48d;stop-opacity:1;"
         offset="0"
         id="stop7514" />
      <stop
         style="stop-color:#d4f9b4;stop-opacity:1;"
         offset="1"
         id="stop7516" />
    </linearGradient>
    <linearGradient
       inkscape:collect="always"
       xlink:href="#linearGradient3176-734-748-342-116-658-183-116-103-544-940-937-495"
       id="linearGradient3213-518-745-539-243-423-182-462-947-961-883-365-96"
       gradientUnits="userSpaceOnUse"
       x1="802.89124"
       y1="1565.7361"
       x2="162.55066"
       y2="1565.7361" />
    <linearGradient
       id="linearGradient3176-734-748-342-116-658-183-116-103-544-940-937-495">
      <stop
         style="stop-color:#8de495;stop-opacity:1;"
         offset="0"
         id="stop7644" />
      <stop
         style="stop-color:#bff9b4;stop-opacity:1;"
         offset="1"
         id="stop7646" />
    </linearGradient>
    <linearGradient
       inkscape:collect="always"
       xlink:href="#linearGradient3176-734-748-342-116-658-183-116-103-544-940-937-495-352"
       id="linearGradient3213-518-745-539-243-423-182-462-947-961-883-365-96-859"
       gradientUnits="userSpaceOnUse"
       x1="802.89124"
       y1="1565.7361"
       x2="162.55066"
       y2="1565.7361" />
    <linearGradient
       id="linearGradient3176-734-748-342-116-658-183-116-103-544-940-937-495-352">
      <stop
         style="stop-color:#8de4af;stop-opacity:1;"
         offset="0"
         id="stop7782" />
      <stop
         style="stop-color:#b4f9bd;stop-opacity:1;"
         offset="1"
         id="stop7784" />
    </linearGradient>
    <linearGradient
       inkscape:collect="always"
       xlink:href="#linearGradient3176-734-748-342-116-658-183-116-103-544-940-937-495-352-321"
       id="linearGradient3213-518-745-539-243-423-182-462-947-961-883-365-96-859-607"
       gradientUnits="userSpaceOnUse"
       x1="802.89124"
       y1="1565.7361"
       x2="162.55066"
       y2="1565.7361" />
    <linearGradient
       id="linearGradient3176-734-748-342-116-658-183-116-103-544-940-937-495-352-321">
      <stop
         style="stop-color:#8de4c9;stop-opacity:1;"
         offset="0"
         id="stop7928" />
      <stop
         style="stop-color:#b4f9d1;stop-opacity:1;"
         offset="1"
         id="stop7930" />
    </linearGradient>
    <linearGradient
       inkscape:collect="always"
       xlink:href="#linearGradient3176-734-748-342-116-658-183-116-103-544-940-937-495-352-321-825"
       id="linearGradient3213-518-745-539-243-423-182-462-947-961-883-365-96-859-607-672"
       gradientUnits="userSpaceOnUse"
       x1="802.89124"
       y1="1565.7361"
       x2="162.55066"
       y2="1565.7361" />
    <linearGradient
       id="linearGradient3176-734-748-342-116-658-183-116-103-544-940-937-495-352-321-825">
      <stop
         style="stop-color:#8de4e3;stop-opacity:1;"
         offset="0"
         id="stop8082" />
      <stop
         style="stop-color:#b4f9e5;stop-opacity:1;"
         offset="1"
         id="stop8084" />
    </linearGradient>
    <linearGradient
       inkscape:collect="always"
       xlink:href="#linearGradient3176-734-748-342-116-658-183-116-103-544-940-937-495-352-321-825-596"
       id="linearGradient3213-518-745-539-243-423-182-462-947-961-883-365-96-859-607-672-33"
       gradientUnits="userSpaceOnUse"
       x1="802.89124"
       y1="1565.7361"
       x2="162.55066"
       y2="1565.7361" />
    <linearGradient
       id="linearGradient3176-734-748-342-116-658-183-116-103-544-940-937-495-352-321-825-596">
      <stop
         style="stop-color:#8dcae4;stop-opacity:1;"
         offset="0"
         id="stop8244" />
      <stop
         style="stop-color:#b4f8f9;stop-opacity:1;"
         offset="1"
         id="stop8246" />
    </linearGradient>
    <linearGradient
       inkscape:collect="always"
       xlink:href="#linearGradient3176-734-748-342-116-658-183-116-103-544-940-937-495-352-321-825-596-136"
       id="linearGradient3213-518-745-539-243-423-182-462-947-961-883-365-96-859-607-672-33-327"
       gradientUnits="userSpaceOnUse"
       x1="802.89124"
       y1="1565.7361"
       x2="162.55066"
       y2="1565.7361" />
    <linearGradient
       id="linearGradient3176-734-748-342-116-658-183-116-103-544-940-937-495-352-321-825-596-136">
      <stop
         style="stop-color:#8dafe4;stop-opacity:1;"
         offset="0"
         id="stop8414" />
      <stop
         style="stop-color:#b4e3f9;stop-opacity:1;"
         offset="1"
         id="stop8416" />
    </linearGradient>
    <linearGradient
       inkscape:collect="always"
       xlink:href="#linearGradient3176-734-748-342-116-658-183-116-103-544-940-937-495-352-321-825-596-136-941"
       id="linearGradient3213-518-745-539-243-423-182-462-947-961-883-365-96-859-607-672-33-327-163"
       gradientUnits="userSpaceOnUse"
       x1="802.89124"
       y1="1565.7361"
       x2="162.55066"
       y2="1565.7361" />
    <linearGradient
       id="linearGradient3176-734-748-342-116-658-183-116-103-544-940-937-495-352-321-825-596-136-941">
      <stop
         style="stop-color:#8d94e4;stop-opacity:1;"
         offset="0"
         id="stop8592" />
      <stop
         style="stop-color:#b4cef9;stop-opacity:1;"
         offset="1"
         id="stop8594" />
    </linearGradient>
    <linearGradient
       inkscape:collect="always"
       xlink:href="#linearGradient3176-734-748-342-116-658-183-116-103-544-940-937-495-352-321-825-596-136-941-902"
       id="linearGradient3213-518-745-539-243-423-182-462-947-961-883-365-96-859-607-672-33-327-163-728"
       gradientUnits="userSpaceOnUse"
       x1="802.89124"
       y1="1565.7361"
       x2="162.55066"
       y2="1565.7361" />
    <linearGradient
       id="linearGradient3176-734-748-342-116-658-183-116-103-544-940-937-495-352-321-825-596-136-941-902">
      <stop
         style="stop-color:#e48d94;stop-opacity:1;"
         offset="0"
         id="stop8778" />
      <stop
         style="stop-color:#f9b4ce;stop-opacity:1;"
         offset="1"
         id="stop8780" />
    </linearGradient>
    <linearGradient
       inkscape:collect="always"
       xlink:href="#linearGradient3176-734-748-342-116-658-183-116-103-544-940-937-495-352-321-825-596-136-941-902-216"
       id="linearGradient3213-518-745-539-243-423-182-462-947-961-883-365-96-859-607-672-33-327-163-728-402"
       gradientUnits="userSpaceOnUse"
       x1="802.89124"
       y1="1565.7361"
       x2="162.55066"
       y2="1565.7361" />
    <linearGradient
       id="linearGradient3176-734-748-342-116-658-183-116-103-544-940-937-495-352-321-825-596-136-941-902-216">
      <stop
         style="stop-color:#94e48d;stop-opacity:1;"
         offset="0"
         id="stop8972" />
      <stop
         style="stop-color:#cef9b4;stop-opacity:1;"
         offset="1"
         id="stop8974" />
    </linearGradient>
  </defs>
  <metadata
     id="metadata2500">
    <rdf:RDF>
      <cc:Work
         rdf:about="">
        <dc:format>image/svg+xml</dc:format>
        <dc:type
           rdf:resource="http://purl.org/dc/dcmitype/StillImage" />
      </cc:Work>
    </rdf:RDF>
  </metadata>
  <g
     inkscape:label="Ebene 1"
     inkscape:groupmode="layer"
     id="layer1"
     transform="translate(109.83652,-2166.5253)">
    <g
       id="g3204"
       transform="matrix(0.04615772,0,0,0.04615772,-104.76671,2127.5694)">
      <path
         style="fill:url(#linearGradient3213-518-745-539-243-423-182-462-947-961-883-365-96-859-607-672-33-327-163-728-402);fill-opacity:1"
         d="m 266.96788,2228.6907 c -18.77935,-3.4983 -31.24929,-9.5583 -39.07714,-18.9904 -9.02204,-10.8709 5.30291,-36.3183 28.59526,-50.7975 17.37453,-10.8006 21.19595,-16.0858 35.27109,-48.7817 15.58044,-36.1926 15.82434,-37.5795 18.78075,-106.79 3.46802,-81.186 -1.45397,-175.0218 -9.44647,-180.0943 -2.88754,-1.8326 -9.19971,-3.3604 -14.0271,-3.3951 -4.82735,-0.035 -15.68236,-2.9484 -24.1222,-6.4748 -29.0691,-12.1459 -28.85653,-12.6456 -29.94278,70.4028 -2.26819,173.4151 -1.42478,165.1318 -20.86612,204.9257 -9.54189,19.5309 -17.34889,37.5429 -17.34889,40.0266 0,2.4837 -6.69655,11.9281 -14.88117,20.9875 -19.18166,21.2317 -36.89359,26.0061 -83.242611,22.4383 -30.739004,-2.3661 -37.57072,-4.2952 -47.274606,-13.3482 -6.238755,-5.8203 -11.343152,-13.6239 -11.343152,-17.3412 0,-8.8243 16.192057,-23.799 39.895748,-36.8963 10.437757,-5.7672 24.756701,-18.5524 31.819941,-28.4115 11.94289,-16.6702 12.82212,-20.2811 12.555,-51.5597 -0.44826,-52.486 -7.48357,-97.4994 -28.099313,-179.785 -10.476605,-41.8162 -19.098592,-84.5077 -19.15995,-94.8698 -0.126899,-21.4176 -16.618972,-63.4469 -35.88321,-91.4465 -20.398397,-29.6481 -26.224447,-47.8585 -34.8352448,-108.884 -12.9314201,-91.646 -13.5509428,-106.1562 -5.4394087,-127.396 10.7178523,-28.0643 5.6241134,-74.6969 -10.6066245,-97.1028 -6.575162,-9.0768 -16.726947,-19.63 -22.559505,-23.4516 -13.074754,-8.5669 -22.557313,-26.1893 -22.557313,-41.9206 0,-7.7337 -6.349944,-20.0357 -18.256453,-35.3689 -21.091795,-27.1621 -23.962105,-37.1365 -24.638769,-85.6213 -0.324289,-23.2329 -2.435519,-37.8439 -6.107689,-42.2686 -6.37827,-7.6854 -4.64208,-36.5728 4.90657,-81.6375 9.055461,-42.73706 16.669477,-50.35056 80.921602,-80.91586 65.523017,-31.16984 95.633634,-37.55062 142.602548,-30.21908 15.88038,2.47882 53.37942,5.30661 83.33113,6.28397 l 54.45767,1.77702 41.16179,21.14334 c 66.53572,34.1771 91.22233,57.05018 91.22233,84.52111 0,5.8526 -4.64039,21.6661 -10.31195,35.1412 -5.67156,13.475 -10.31195,28.0694 -10.31195,32.432 0,5.1796 14.04994,18.7015 40.49013,38.9684 49.5159,37.9548 74.65924,52.3429 91.47016,52.3429 7.04913,0 18.1743,2.7706 24.72261,6.1568 8.64971,4.473 20.15684,5.6108 42.07412,4.1603 16.59244,-1.0982 67.29111,-4.071 112.66365,-6.6064 45.37254,-2.5354 85.74381,-6.3289 89.71392,-8.4301 4.5379,-2.4018 7.26142,-8.7445 7.33433,-17.0808 0.0638,-7.2932 6.09625,-24.3423 13.40555,-37.8867 17.01345,-31.527 37.17083,-45.6398 73.0988,-51.1788 60.54509,-9.3343 61.00544,-9.3377 69.22641,-0.5135 4.24246,4.5537 16.92715,11.0156 28.1882,14.3598 30.57764,9.0806 44.29463,26.0813 78.27943,97.0194 6.7637,14.1182 12.9246,37.4855 16.3125,61.8716 12.349,88.8853 21.0341,119.5205 53.7916,189.7398 25.5699,54.8118 47.0046,133.9019 47.1651,174.0305 0.065,16.1713 5.6016,47.0996 14.6275,81.7056 12.1515,46.5903 14.8709,65.1156 16.6506,113.4314 2.3874,64.8134 6.7982,90.5108 20.1776,117.5562 11.2758,22.7931 16.8855,47.4758 22.9678,101.057 4.9401,43.5194 19.8827,109.7017 30.5124,135.142 10.1378,24.2629 8.1409,35.1949 -9.6848,53.0206 -13.9282,13.9282 -18.4681,16.0139 -34.8576,16.0139 -27.2052,0 -58.544,-7.588 -70.6421,-17.1044 -13.5538,-10.6614 -13.6038,-26.5015 -0.1674,-53.0168 15.6797,-30.9424 14.6607,-74.5234 -2.8127,-120.2973 -7.2186,-18.9101 -18.159,-42.324 -24.3119,-52.0311 -6.1531,-9.707 -12.4669,-24.4699 -14.0308,-32.8063 -1.5639,-8.3365 -6.39,-22.1089 -10.7246,-30.6054 -13.5624,-26.5845 -65.9893,-107.8192 -82.1179,-127.2403 -8.4781,-10.2088 -18.71167,-25.058 -22.74137,-32.9982 -4.02967,-7.9402 -13.01632,-22.4123 -19.97032,-32.1602 -10.02276,-14.0496 -14.82124,-17.4696 -23.14882,-16.4991 -8.50524,0.9912 -12.22932,5.5803 -19.56103,24.1043 -20.72049,52.3514 -23.28242,116.5387 -6.61597,165.7583 l 11.13929,32.8968 -22.10559,89.2842 c -24.08456,97.2774 -30.81995,116.4689 -46.89673,133.6255 -10.43995,11.1411 -11.49585,11.342 -59.2923,11.2799 -26.76472,-0.035 -50.70541,-1.4268 -53.20159,-3.0935 -6.00365,-4.0088 -14.02302,-19.507 -14.02302,-27.1009 0,-3.3281 13.04122,-15.9792 28.98055,-28.1134 39.5436,-30.1036 61.76457,-66.4231 61.76457,-100.9522 0,-33.6412 -19.87011,-88.431 -50.50147,-139.2527 -16.53942,-27.4413 -31.77552,-74.4824 -31.92357,-98.5633 -0.097,-15.78 -8.66027,-17.6582 -26.20977,-5.7488 -21.12035,14.3327 -41.17497,17.2834 -56.38812,8.2968 l -12.28726,-7.2582 -45.35664,23.8397 c -25.874,13.5994 -66.85898,30.538 -95.41526,39.4339 -27.53226,8.5769 -51.67614,18.4846 -53.65311,22.0173 -1.97694,3.5326 -5.44193,20.983 -7.70003,38.7786 -2.25802,17.7956 -7.01001,47.2048 -10.55994,65.3539 -3.54999,18.149 -9.03167,46.9193 -12.18151,63.934 -12.802,69.1531 -15.79665,81.2114 -24.58501,98.9947 -5.04517,10.2088 -12.46373,32.4826 -16.48573,49.4973 -13.78927,58.3343 -21.24191,65.7052 -68.7306,67.9765 -19.00526,0.9091 -41.97956,0.2697 -51.05407,-1.4208 z"
         id="path2901" />
      <path
         style="fill:#61c37e"
         d="m 273.32481,2227.729 c -23.77289,-4.1202 -40.33143,-12.5917 -44.17138,-22.5983 -4.73771,-12.3464 7.56233,-30.2198 29.2005,-42.4316 21.04734,-11.8784 21.76199,-12.9233 38.88753,-56.861 l 17.44614,-44.7602 0.62221,-94.8698 c 0.34219,-52.1784 -0.83344,-106.4815 -2.61256,-120.6735 -2.94777,-23.5144 -4.20488,-26.0013 -14.17013,-28.0318 -6.01441,-1.2255 -21.66759,-5.239 -34.78478,-8.9188 -18.79167,-5.2717 -24.91484,-5.6212 -28.87343,-1.6478 -3.47927,3.4924 -5.16383,24.949 -5.47862,69.7831 -0.25001,35.607 -1.53554,90.297 -2.85666,121.5332 -2.34688,55.4868 -2.77725,57.574 -18.71106,90.7451 -8.96994,18.6736 -17.47791,37.6643 -18.90658,42.2015 -4.84183,15.3768 -23.33043,31.8411 -42.09882,37.4896 -17.10765,5.1486 -51.30099,4.8529 -78.755617,-0.6811 -10.565852,-2.1298 -25.894051,-17.1713 -25.894051,-25.4098 0,-7.2213 18.422459,-23.7801 38.104515,-34.2499 8.480047,-4.5108 23.064243,-17.8745 32.409383,-29.697 l 16.9912,-21.4955 -2.45754,-39.2865 C 122.89939,1948.8778 117.91698,1918.4126 98.38742,1841.6 87.884121,1800.289 79.267878,1758.5256 79.240154,1748.7925 79.183876,1729.0249 59.497603,1680.0819 39.722647,1650.5462 20.383206,1621.661 17.51605,1612.0831 8.3681047,1545.8068 -4.5296149,1452.3632 -4.7549593,1447.0941 3.1305664,1423.353 c 5.3919957,-16.2338 6.4660254,-28.3256 4.4462931,-50.0573 -3.3339147,-35.8714 -6.0681285,-41.1801 -35.5968735,-69.1143 -19.056457,-18.0275 -24.522328,-26.0745 -26.616035,-39.1854 -2.921309,-18.293 -2.216258,-16.8632 -23.952344,-48.574 -12.510534,-18.2517 -16.2437,-28.2833 -18.978239,-50.9975 -1.988854,-16.5205 -1.798339,-34.0922 0.458292,-42.265 3.198575,-11.5843 2.384055,-15.9882 -4.7392,-25.6229 -10.53173,-14.245 -10.58164,-20.4091 -0.55823,-68.9846 C -90.414958,970.44199 -78.146602,958.39817 1.5274572,926.52114 49.961522,907.143 81.375464,902.1437 118.47591,907.90965 c 15.88038,2.46805 53.00337,5.25003 82.49553,6.1822 57.35932,1.81296 54.24965,0.90918 133.81783,38.89236 20.14466,9.61638 52.69512,41.7907 56.10278,55.45449 2.07408,8.3165 -0.72544,20.6804 -9.99291,44.1326 -7.0808,17.9187 -12.87422,35.0606 -12.87422,38.0931 0,6.5157 75.71432,63.6509 104.76495,79.0573 11.11389,5.894 24.66314,10.7164 30.10949,10.7164 5.44634,0 15.19329,2.736 21.65988,6.08 9.9642,5.1527 23.61677,5.4821 89.5091,2.1598 168.7899,-8.5102 167.82113,-8.2996 171.7145,-37.3268 2.94508,-21.9573 11.21891,-31.7514 11.21891,-13.2804 0,7.0976 2.70387,15.6086 6.00863,18.9133 3.30473,3.3047 8.18468,14.6504 10.84425,25.2126 5.54928,22.0382 18.34951,31.2397 43.45796,31.2397 8.71336,0 18.72922,3.06 23.16987,7.0787 4.30206,3.8933 13.72897,7.3145 20.94866,7.6027 7.21972,0.2882 19.15925,1.8907 26.5323,3.561 15.01662,3.4019 17.13321,-1.4233 8.72206,-19.8838 -5.58029,-12.2475 -10.34765,-14.5707 -42.69883,-20.8085 -22.97639,-4.4301 -25.46006,-6.0402 -35.66902,-23.1229 -6.03516,-10.0987 -12.0337,-27.0165 -13.33008,-37.5951 -2.2134,-18.0616 -1.67357,-19.495 8.85795,-23.5191 6.16827,-2.3569 15.85542,-7.0216 21.52702,-10.3659 5.67156,-3.3444 13.5602,-7.0877 17.53027,-8.3185 9.83577,-3.0492 9.0686,-8.66 -1.85033,-13.5322 -7.94844,-3.5467 -6.34195,-4.5857 13.0049,-8.411 l 22.07359,-4.3645 38.55483,37.6595 c 23.50803,22.9622 38.55482,40.9119 38.55482,45.9932 0,11.7232 14.9156,51.1903 22.5228,59.5962 9.2045,10.1708 7.8892,19.1443 -5.7014,38.8975 l -12.052,17.517 7.7141,17.2299 c 7.9074,17.6617 27.5389,40.5055 31.4492,36.5951 1.2018,-1.2017 -2.8991,-13.514 -9.1131,-27.3607 l -11.2982,-25.1756 9.3843,-9.9892 c 10.2517,-10.9124 10.25,-10.9404 -3.6291,-58.8243 -9.821,-33.8831 -10.5156,-39.8446 -4.1866,-35.933 7.1188,4.3996 20.7121,39.4469 22.3035,57.5046 1.6071,18.2349 7.2496,52.7839 14.8255,90.7764 7.2797,36.5069 31.1083,103.555 47.3266,133.166 7.8087,14.257 14.1977,28.2754 14.1977,31.1521 0,2.8766 6.5182,28.314 14.4848,56.5275 10.5353,37.3105 14.2314,58.0579 13.5557,76.0921 -0.6718,17.9343 3.3571,40.773 14.5611,82.5417 13.5614,50.5569 15.8915,66.2209 18.7149,125.8057 2.7423,57.876 4.6398,71.1446 12.6823,88.6827 15.798,34.4505 20.9284,55.1783 29.0966,117.5562 4.3075,32.8951 12.6592,75.5865 18.5593,94.8699 21.776,71.1703 21.1791,64.5453 7.5517,83.8191 l -12.1879,17.2379 -38.0238,-0.3292 c -31.3602,-0.2715 -39.9874,-1.7887 -49.2285,-8.6574 -15.0526,-11.1885 -15.9309,-25.7011 -3.234,-53.4347 12.8115,-27.9842 14.6872,-76.9437 4.0448,-105.5799 -12.9359,-34.8073 -20.1071,-50.8455 -29.0856,-65.0487 -5.0193,-7.9402 -11.3142,-22.779 -13.9886,-32.975 -2.6745,-10.1961 -8.4744,-25.6179 -12.8888,-34.2707 -12.4022,-24.3104 -71.9583,-117.0053 -87.53,-136.2345 -7.6586,-9.4574 -17.19446,-23.6919 -21.19076,-31.6321 -18.94935,-37.6504 -42.55974,-54.9925 -54.75277,-40.2166 -17.68182,21.4274 -35.54352,133.5737 -26.28903,165.0579 18.9786,64.5662 19.15128,50.3215 -1.68695,139.1444 -26.00637,110.852 -28.78368,119.7557 -42.46863,136.1481 l -12.02695,14.4063 -50.28194,0 c -45.013,0 -50.89543,-0.839 -56.13655,-8.0067 -11.18657,-15.2986 -7.08817,-24.0785 20.91433,-44.8042 14.72292,-10.897 31.28179,-25.7462 36.79747,-32.9982 14.65426,-19.2674 27.17861,-54.0654 27.17861,-75.5138 0,-32.3697 -26.6902,-101.1997 -53.70118,-138.4872 -14.49598,-20.0111 -20.0007,-36.0622 -26.26731,-76.5923 -5.7381,-37.1118 -12.03997,-43.6667 -29.82627,-31.0238 -19.40778,13.7955 -41.85147,18.3485 -55.54415,11.2677 -16.60988,-8.5893 -19.58265,-7.9506 -53.82786,11.5649 -39.14368,22.307 -52.41011,27.8479 -111.8302,46.7071 -47.73622,15.1509 -48.5111,15.5957 -52.61162,30.2023 -2.28901,8.1538 -5.14155,25.0338 -6.33896,37.5113 -1.19745,12.4775 -4.79439,36.6074 -7.99334,53.6221 -3.19891,17.0147 -8.60535,45.785 -12.01427,63.934 -3.40892,18.1491 -8.34524,44.1352 -10.96959,57.7469 -2.62432,13.6118 -9.89859,36.8137 -16.16497,51.5597 -6.26641,14.7461 -13.73956,38.8761 -16.60698,53.6221 -5.80879,29.8726 -18.31864,52.2066 -30.90508,55.1755 -20.16276,4.756 -55.47277,5.7611 -76.19814,2.169 z m 94.74972,-105.1788 c 4.79093,-38.5542 2.90909,-47.0356 -10.43623,-47.0356 -14.72309,0 -30.86116,21.9798 -30.86116,42.0324 0,16.1421 -0.37684,16.5956 -12.33225,14.8409 -9.11667,-1.3381 -14.69227,0.7021 -21.38314,7.8242 l -9.05093,9.6342 15.9028,14.5664 c 12.87892,11.7967 18.08283,14.0876 27.3681,12.0482 8.61717,-1.8927 13.3087,-0.3549 18.88593,6.1903 7.39845,8.6825 7.4359,8.6561 12.57018,-8.8488 2.83229,-9.6566 7.03382,-32.72 9.3367,-51.2522 z m 877.26737,30.304 c -4.7207,-19.7138 -35.6697,-103.0731 -40.3719,-108.7388 -3.8091,-4.5897 -3.8372,-8.4168 -0.122,-16.5708 4.2261,-9.2752 3.232,-13.2012 -7.9399,-31.3579 l -12.7708,-20.7552 6.4839,-19.8235 c 7.3876,-22.5864 7.9877,-32.1953 2.5478,-40.7956 -3.314,-5.2394 -4.7819,-5.1773 -11.28,0.4772 -4.1086,3.5752 -12.7972,7.7689 -19.3081,9.3195 -11.1757,2.6615 -11.6921,3.7305 -9.2321,19.1144 3.9663,24.804 14.4742,52.9754 26.6236,71.3774 9.7468,14.7631 10.827,19.9603 9.8629,47.4564 -0.8937,25.4874 0.2778,32.3737 6.7103,39.4478 4.2861,4.7136 10.012,15.5012 12.7241,23.9725 4.4485,13.8951 25.6979,35.9962 34.72,36.1117 1.9659,0.025 2.5744,-4.1307 1.3522,-9.2351 z M 147.96288,2126.5068 c 23.28949,-11.0516 37.8884,-47.6423 30.28068,-75.8953 -4.70251,-17.4638 -14.20762,-21.6819 -18.48551,-8.2034 -1.42116,4.4777 -7.57873,10.5239 -13.68349,13.436 -14.54342,6.9376 -16.91155,24.9469 -5.33863,40.6001 l 8.48708,11.4794 -15.1489,7.513 c -8.33194,4.1322 -15.86877,9.8332 -16.7485,12.669 -2.26599,7.304 13.62319,6.4749 30.63727,-1.5988 z m 709.96024,-19.0251 c 4.14558,-5.1078 29.07391,-86.1471 32.74419,-106.4476 1.0733,-5.9364 -0.50056,-12.5426 -3.60039,-15.1126 -4.45616,-3.6946 -5.56223,-0.8164 -5.79531,15.0803 -0.18391,12.5373 -3.47937,24.7222 -9.10744,33.6741 -14.75519,23.4692 -22.30706,42.0393 -24.57571,60.4315 -2.16828,17.579 2.03029,22.6063 10.33466,12.3743 z m -654.37751,-53.6221 c 1.53465,-27.8283 -1.98626,-56.3574 -8.54695,-69.2541 -4.08515,-8.0304 -8.68474,-20.0953 -10.22127,-26.811 -1.53654,-6.7157 -9.89683,-26.9121 -18.57841,-44.881 -14.16293,-29.3141 -16.11586,-31.6449 -19.00845,-22.6863 -9.27345,28.7211 5.07637,94.5424 20.61139,94.5424 9.77431,0 22.81745,24.6696 22.8985,43.3101 0.0874,20.1175 3.79108,35.0606 8.68969,35.0606 2.00402,0 3.87405,-4.1763 4.1555,-9.2807 z m 171.81106,-46.6376 c 12.80296,-8.9676 13.15367,-44.4885 0.57144,-57.8817 -7.48351,-7.9658 -8.22027,-12.1565 -5.69324,-32.3824 2.47889,-19.84 4.58309,-24.1014 14.41045,-29.1833 13.69428,-7.0816 16.41269,-13.1402 11.66021,-25.9872 -4.30685,-11.6423 0.61915,-21.8756 15.09624,-31.3614 8.85527,-5.8022 10.49414,-9.6597 9.44823,-22.2392 -1.24887,-15.0209 -1.47618,-15.2007 -17.42914,-13.7862 -8.8901,0.7882 -22.81122,5.8296 -30.93583,11.2029 -8.12465,5.3733 -20.80453,11.8706 -28.17758,14.4382 l -13.40555,4.6686 0,46.6941 c 0,25.6817 1.15302,49.6987 2.56226,53.3711 1.40921,3.6724 7.90575,9.4403 14.43672,12.8176 9.95473,5.1478 11.87449,8.7009 11.87449,21.9775 0,9.5912 -3.25343,19.9729 -8.24956,26.3245 -8.39369,10.6708 -10.45545,20.0423 -5.4997,24.998 4.83552,4.8356 19.8726,2.9535 29.33056,-3.6711 z m 51.88515,-95.4064 c 5.73863,-24.7114 5.31052,-30.1654 -2.36796,-30.1654 -5.67986,0 -14.3899,24.5026 -17.59496,49.4973 l -2.90909,22.6862 8.47288,-8.2495 c 4.66008,-4.5373 11.13969,-19.7331 14.39913,-33.7686 z m 691.64688,-97.1931 c 7.4012,-7.8724 8.521,-13.3493 7.3791,-36.0918 -1.3003,-25.8956 -0.9942,-26.8598 8.9657,-28.2374 15.2656,-2.1117 19.9313,-7.638 22.8433,-27.057 1.8503,-12.3387 0.5224,-22.2713 -4.5045,-33.6921 -4.5756,-10.3956 -6.8662,-25.058 -6.3964,-40.9439 0.9525,-32.2028 -13.4648,-138.5314 -22.3714,-164.9911 -9.5251,-28.2974 -32.6265,-77.9681 -43.1089,-92.6892 -6.2808,-8.8207 -15.2259,-13.9997 -32.5998,-18.8745 -13.169,-3.6951 -29.3379,-11.0194 -35.9307,-16.2763 -10.5259,-8.3931 -11.9869,-12.2258 -11.9869,-31.446 0,-23.3645 -5.05029,-28.9603 -30.9358,-34.2769 -5.6716,-1.1649 -14.02425,-7.7762 -18.56151,-14.6919 -10.06307,-15.3379 -35.25748,-23.7842 -50.38544,-16.8915 -5.39661,2.4589 -12.97292,4.5261 -16.83628,4.5938 -10.96106,0.1921 -40.9548,28.8582 -51.62315,49.3381 -6.17441,11.853 -15.09495,21.3926 -24.76723,26.4861 -8.31437,4.3784 -27.33586,19.7079 -42.27002,34.0655 -17.12427,16.4633 -30.6217,26.1048 -36.54483,26.1048 -5.16555,0 -15.56662,2.1525 -23.11349,4.7834 -13.12266,4.5746 -14.27482,4.1244 -26.3954,-10.3121 -6.97057,-8.3025 -14.67043,-15.0954 -17.11077,-15.0953 -13.1304,5e-4 -34.54708,38.3856 -34.6863,62.1682 -0.0765,13.0573 -12.06181,49.2009 -16.3152,49.2009 -1.70683,0 -8.82489,-2.8542 -15.81787,-6.3428 -14.75579,-7.3612 -18.43066,-19.1394 -18.57177,-59.5235 -0.10113,-28.9349 -3.64223,-37.2531 -15.85874,-37.2531 -5.5512,0 -7.74451,2.9785 -7.74451,10.5168 0,5.7842 -2.53178,15.529 -5.62624,21.6551 -3.09446,6.126 -6.90639,21.1523 -8.47101,33.3917 -3.62806,28.3812 -16.81766,55.0517 -26.33618,53.254 -7.4598,-1.4089 -33.45054,-50.3004 -43.42881,-81.6946 -3.24473,-10.2088 -6.06816,-25.6256 -6.27425,-34.2596 -0.47064,-19.7174 -14.25593,-39.9864 -27.19548,-39.9864 -12.34241,0 -17.78683,6.9216 -19.47989,24.7652 -1.1574,12.1987 -2.9315,14.4202 -11.51583,14.4202 -11.41282,0 -29.03772,-22.1712 -29.03772,-36.5279 0,-4.6732 6.24593,-15.0716 13.87981,-23.1075 16.88855,-17.7776 32.5401,-47.7297 41.7246,-79.8475 6.29158,-22.0012 6.31489,-24.8211 0.28139,-34.0294 -3.61829,-5.5221 -8.1788,-10.0403 -10.13448,-10.0403 -6.21509,0 -49.87611,37.9134 -49.87611,43.3103 0,10.3004 -11.82957,16.009 -22.80839,11.0067 -12.77308,-5.8198 -13.32916,-19.6186 -1.70853,-42.3968 9.8177,-19.2443 9.71371,-46.9808 -0.17617,-46.9808 -3.37233,0 -8.69829,5.5685 -11.83545,12.3743 -12.13409,26.3245 -30.54802,51.5597 -37.62264,51.5597 -9.97831,0 -14.07113,-38.3514 -5.81065,-54.4484 3.1437,-6.1261 5.71585,-14.3904 5.71585,-18.3651 0,-8.3088 -23.85715,-34.4306 -31.44561,-34.4306 -6.99418,0 -22.17649,20.0609 -22.17649,29.3026 0,4.1615 -3.58482,14.584 -7.96627,23.1612 -12.69562,24.8533 -12.48727,31.8771 0.99152,33.4228 17.45209,2.0012 17.87283,11.2389 1.34506,29.5332 -8.13165,9.0008 -16.02558,21.5162 -17.542,27.8122 -1.51645,6.2959 -7.25677,20.4484 -12.75634,31.4499 -5.49954,11.0016 -9.28344,20.7185 -8.40873,21.5933 0.87475,0.8748 7.86019,-4.8783 15.5232,-12.7844 8.52503,-8.7957 17.89709,-14.375 24.14674,-14.375 6.37083,0 19.30584,-7.9078 34.37755,-21.0168 27.17722,-23.638 37.63231,-24.5135 35.51795,-2.974 -1.04766,10.6729 -5.53782,16.1246 -23.53671,28.577 -26.6083,18.4087 -29.69742,22.7514 -24.99039,35.1317 5.42102,14.2585 -2.97546,32.9157 -19.09318,42.4254 -11.54396,6.8111 -14.10751,10.8054 -14.10751,21.9816 0,7.512 2.97636,17.9074 6.61414,23.1011 4.87856,6.9651 5.90398,14.1791 3.90765,27.4915 -2.4233,16.1596 -1.63754,18.7489 7.50825,24.7414 9.15479,5.9984 11.4498,6.0543 22.11615,0.5386 7.72463,-3.9946 13.98709,-4.8348 17.84458,-2.394 8.99767,5.6929 10.83343,4.9193 20.48352,-8.633 7.2337,-10.1588 7.95472,-13.6766 3.82345,-18.6544 -4.49483,-5.416 -6.27036,-5.3622 -15.15435,0.4588 -17.45222,11.4351 -21.58269,5.7034 -20.87548,-28.9682 0.84152,-41.2588 2.93575,-42.9758 51.57773,-42.2878 42.9346,0.6072 46.00246,2.8616 36.11068,26.5359 -5.52948,13.2339 -5.52504,15.5989 0.041,21.7493 7.94151,8.7752 8.18558,41.2061 0.39036,51.8665 -5.75423,7.8693 -6.0243,7.8475 -15.73373,-1.274 -5.43346,-5.1044 -11.96636,-9.2807 -14.51749,-9.2807 -6.84942,0 -67.01344,54.1648 -67.01344,60.3313 0,2.9035 -8.35103,8.9731 -18.55783,13.4881 -16.69895,7.3867 -47.3691,34.9725 -47.4189,42.6502 -0.0109,1.671 6.64472,5.8228 14.79015,9.2261 17.1871,7.1813 23.65814,4.8764 48.37872,-17.2318 15.34998,-13.7279 27.3186,-16.3876 30.51672,-6.7817 0.86976,2.6126 -6.91825,10.854 -17.3067,18.3145 -21.71842,15.5969 -26.66448,28.1342 -16.94894,42.962 8.57096,13.081 11.5187,12.9192 38.11777,-2.0924 27.88881,-15.7395 40.57178,-16.0099 48.36434,-1.0312 3.24563,6.2387 10.73873,15.8626 16.65134,21.3864 5.91264,5.5238 12.65837,17.1297 14.9906,25.7909 5.38409,19.9948 19.68451,29.9289 38.10826,26.4726 16.35435,-3.0681 42.68173,-32.474 51.19358,-57.1798 3.11352,-9.0371 8.36427,-21.6587 11.66834,-28.0481 3.30403,-6.3893 4.89223,-14.5229 3.52934,-18.0746 -1.36295,-3.5517 -1.26653,-11.2849 0.21423,-17.1847 2.47271,-9.852 3.93896,-10.497 17.97515,-7.9063 8.40558,1.5514 19.36471,6.6175 24.35373,11.2581 11.82136,10.9958 21.86494,7.0277 21.86494,-8.6386 0,-16.2216 3.78374,-25.2155 10.60815,-25.2155 10.61619,0 13.72264,14.6807 11.23412,53.0913 -2.43254,37.547 -2.32984,38.1047 9.24453,50.1857 11.19826,11.6885 13.24133,12.2168 47.24811,12.2168 31.91912,0 37.41776,-1.1885 53.92062,-11.6543 29.46085,-18.6835 54.95385,-27.1132 65.28094,-21.5863 14.52879,7.7756 10.5029,19.0508 -11.67471,32.6968 -22.53623,13.8666 -32.61709,27.5703 -25.50996,34.6774 7.65875,7.6587 36.58919,-4.4264 60.04077,-25.0808 12.09303,-10.6506 35.66534,-27.7022 52.38296,-37.8923 16.71755,-10.1902 37.8202,-25.255 46.8947,-33.4773 22.70938,-20.5767 39.65842,-28.4283 61.36745,-28.4283 23.42416,0 31.51706,9.4442 41.24114,48.1276 3.89616,15.4994 9.75727,32.8211 13.02465,38.4927 3.26738,5.6716 10.91398,20.5208 16.9925,32.9982 6.07847,12.4774 18.24617,30.9255 27.03917,40.9957 8.7931,10.0702 22.5397,29.0958 30.5481,42.279 8.0084,13.1832 15.8185,23.9991 17.3557,24.0354 1.5372,0.036 9.0789,5.6047 16.7594,12.3743 16.743,14.7575 18.3201,14.9194 29.5,3.0277 z m -372.41499,-89.4414 c 19.82864,-14.3638 24.01347,-20.1874 18.48169,-25.7192 -2.72219,-2.7222 -6.69824,-2.7026 -11.80871,0.058 -4.23759,2.2893 -10.84479,5.1262 -14.68268,6.3041 -8.97642,2.7552 -21.34988,21.5426 -17.88276,27.1525 4.01785,6.501 7.67735,5.3992 25.89246,-7.7957 z M 219.2051,1541.705 c 5.1478,-5.4796 14.26951,-11.1952 20.27034,-12.7013 12.65514,-3.1763 17.02912,-8.7154 17.11734,-21.6771 0.086,-12.6365 -5.73674,-11.7089 -30.75982,4.9005 -28.45595,18.888 -33.58694,25.2253 -26.92392,33.2537 6.90828,8.324 9.35685,7.8684 20.29606,-3.7758 z m 41.57559,-448.6277 c 0,-6.2274 -15.30691,-54.3116 -23.78224,-74.708 -4.30934,-10.3708 -8.45943,-14.8867 -12.31941,-13.4055 -3.20143,1.2285 -9.16491,2.2336 -13.25215,2.2336 -11.94116,0 -13.15049,19.3253 -2.21749,35.436 5.14421,7.5804 10.66563,20.8059 12.26987,29.3899 1.60414,8.584 4.83396,17.9275 7.17738,20.7632 5.43579,6.578 32.12404,6.8196 32.12404,0.2908 z m 722.82061,11.3821 c -8.46637,-7.7588 -13.94386,-15.5564 -12.17222,-17.3281 1.77165,-1.7716 11.0188,4.5765 20.54927,14.107 20.69705,20.697 13.64955,23.407 -8.37705,3.2211 z"
         id="path2897"
         sodipodi:nodetypes="csscccsssssssssssscccsssssssssssssssssssssssssssssssssssssssscccsscccscccssssssssssssscccssssssssssscccssssssssssssssssssccssscccsssccsscccsssssssssccssscccsccsssssccsssssssccsssssssscccsssssccscccccssssssssssssssssssssssssssssssssssssssssssssssssssssssssssssssssssssssssssssssssssssssssssssssssssssssssssssssssssssssccssssccssssccssssssccssc" />
      <path
         style="fill:#3f8653"
         d="m 271.86523,2223.8264 c -35.89154,-6.0292 -47.60975,-20.0579 -33.53693,-40.1497 8.26609,-11.8015 19.92845,-12.4596 16.26523,-0.9178 -2.90291,9.1464 2.28482,10.6283 14.43785,4.1242 5.20805,-2.7873 11.47513,-2.6884 19.32151,0.3051 8.61508,3.2867 15.77049,3.0623 27.71633,-0.8692 15.04232,-4.9507 16.502,-4.6991 22.15819,3.8196 7.54417,11.362 20.13304,11.8259 23.61035,0.8698 3.35172,-10.5603 10.31193,-10.7155 10.31193,-0.23 0,14.0185 -17.35424,29.5987 -37.24315,33.4358 -21.82965,4.2116 -36.18691,4.1233 -63.04131,-0.3878 z m 906.67837,-15.036 c -6.8059,-0.9304 -16.771,-5.0222 -22.1448,-9.0928 -8.0263,-6.0799 -8.986,-8.8671 -5.3759,-15.6126 3.3295,-6.2212 7.4471,-7.7635 16.9888,-6.363 10.7026,1.5708 12.5943,0.5195 12.5943,-6.9988 0,-13.0937 12.205,-15.8846 21.1511,-4.8367 4.8611,6.0032 10.1495,8.4084 15.0606,6.8497 11.394,-3.6163 33.1657,20.2284 27.1777,29.7654 -4.5063,7.1774 -36.4803,10.2495 -65.4518,6.2888 z M 88.683534,2166.662 c -39.130434,-3.7573 -59.345819,-29.2757 -23.191843,-29.2757 8.212934,0 19.909757,-3.7896 26.766408,-8.672 l 12.178761,-8.672 4.83021,12.7968 c 5.6187,14.8856 13.37865,16.0599 32.69054,4.9469 7.5027,-4.3174 19.67375,-9.1052 27.0468,-10.6396 11.38436,-2.3692 13.40552,-1.613 13.40552,5.0157 0,10.2317 -19.04819,27.6345 -36.7073,33.5364 -14.68088,4.9066 -15.76335,4.9249 -57.019096,0.9635 z m 666.816836,-17.1549 c -14.05459,-14.0546 -8.81692,-21.2221 20.22153,-27.672 25.02753,-5.5591 26.54607,-5.4384 35.32478,2.8088 21.30249,20.0127 50.86441,4.4912 61.72539,-32.4089 6.7195,-22.8294 14.97476,-26.9149 14.97476,-7.411 0,19.8062 -23.07045,64.5028 -35.78954,69.3386 -5.56605,2.1162 -27.63263,3.8476 -49.03692,3.8476 -33.80402,0 -40.03397,-1.1171 -47.42,-8.5031 z m 31.36872,-287.3605 c -12.93843,-13.9125 -26.99033,-49.9341 -26.99033,-69.1888 0,-10.1554 2.44808,-15.447 8.69238,-18.7889 13.2158,-7.0728 17.64077,0.7371 16.48351,29.0929 -0.88133,21.5947 0.4036,26.6252 9.58947,37.542 18.54613,22.0407 11.32034,41.8759 -7.77503,21.3428 z m -337.57307,-44.1818 c -6.09244,-6.0924 -6.25715,-8.5388 -1.36379,-20.2504 3.06122,-7.3264 6.93806,-26.1346 8.61528,-41.7959 2.10048,-19.6146 6.77132,-35.0701 15.01029,-49.6688 6.57851,-11.6564 11.96088,-24.0644 11.96088,-27.5733 0,-3.5089 2.78421,-8.6905 6.18716,-11.5147 8.389,-6.9622 18.56151,1.45 18.56151,15.3496 0,13.5833 11.24414,37.6455 24.16895,51.7212 9.38581,10.2216 9.97841,12.7531 5.79318,24.7487 -2.56422,7.3493 -6.71056,21.2386 -9.21418,30.8651 -5.41723,20.8297 -18.96724,29.493 -51.35777,32.836 -16.67724,1.7213 -22.96935,0.6747 -28.36151,-4.7175 z m 441.2007,3.1886 c -1.51243,-1.5124 -2.74989,-7.8571 -2.74989,-14.0994 0,-6.2422 -1.21348,-14.5118 -2.69659,-18.3767 -2.38801,-6.2231 -3.52363,-5.9309 -9.92299,2.5529 -6.15801,8.1639 -8.19852,8.7733 -13.80248,4.1224 -3.90759,-3.2429 -6.57616,-11.8195 -6.57616,-21.1352 0,-22.1231 -16.50575,-41.3676 -34.30517,-39.9975 -11.86944,0.9137 -13.33798,-0.3471 -16.89462,-14.5041 -3.53031,-14.0521 -2.80241,-16.6453 7.76935,-27.6798 l 11.66455,-12.1752 -15.59358,4.3056 c -12.47469,3.4444 -16.80773,3.0915 -21.66401,-1.7648 -11.15287,-11.1529 -2.66551,-21.9422 24.81641,-31.5472 14.10509,-4.9297 33.99824,-13.3226 44.20707,-18.6508 33.0306,-17.2395 44.40439,-17.1152 68.78302,0.7512 26.17232,19.181 33.3589,33.1498 26.08686,50.706 -2.81908,6.8059 -6.55215,12.3744 -8.29571,12.3744 -9.50477,0 -24.7821,49.115 -34.96244,112.4002 -2.28549,14.2076 -8.99502,19.5867 -15.86362,12.718 z M 159.91234,1691.252 c -14.85154,-16.3196 -18.72407,-23.293 -16.60672,-29.9047 1.51864,-4.7422 4.11872,-17.5135 5.77781,-28.3806 4.87905,-31.9571 23.93232,-42.0732 33.22221,-17.639 2.14318,5.6369 10.93204,13.8871 19.53082,18.3337 8.59874,4.4466 28.50183,19.9346 44.22905,34.4177 21.93361,20.1986 27.92723,28.0731 25.72857,33.8027 -2.18169,5.6854 -5.56388,6.8599 -14.15828,4.9167 -32.20343,-7.2815 -53.87118,-7.6182 -63.34229,-0.9844 -5.27691,3.6961 -10.81361,6.7202 -12.30379,6.7202 -1.49022,0 -11.42503,-9.577 -22.07738,-21.2823 z M 64.002034,1455.7669 c -4.715797,-5.1629 -9.768099,-18.2793 -11.386913,-29.5618 -3.126799,-21.792 -9.530072,-34.4309 -27.340644,-53.9649 -6.205387,-6.8059 -13.266099,-19.8873 -15.6904357,-29.0699 -4.4314516,-16.7846 -17.0576092,-31.4608 -39.1316953,-45.4852 -12.637912,-8.0294 -23.15469,-28.1094 -23.15469,-44.21 0,-5.3479 -8.352677,-20.48 -18.56149,-33.627 -10.208814,-13.1469 -18.561484,-24.474 -18.561484,-25.1711 0,-0.6972 -1.916134,-15.0444 -4.258128,-31.8827 -3.003943,-21.5976 -2.946238,-34.0655 0.195993,-42.3303 3.720981,-9.7869 3.063973,-13.5957 -3.991381,-23.1385 -4.645066,-6.2828 -8.414356,-16.6028 -8.376246,-22.9334 0.14374,-23.873 14.692589,-82.04303 23.674576,-94.65709 10.329962,-14.50714 34.025565,-29.59951 67.439849,-42.95429 37.65346,-15.04907 44.274275,-16.27393 51.095532,-9.4527 5.235281,5.2353 8.39143,5.36952 20.794966,0.88436 11.915993,-4.30888 16.20225,-4.30138 23.154723,0.0405 4.692522,2.93052 23.643394,6.25752 42.113064,7.39332 18.46968,1.13581 35.34461,3.77835 37.4998,5.87233 7.14263,6.93972 28.11523,3.94788 41.06467,-5.85806 7.02001,-5.31591 20.79311,-10.92881 30.60686,-12.47311 15.91389,-2.50423 19.596,-1.4196 34.0537,10.03109 12.20624,9.66753 21.0466,13.086 35.78901,13.83918 21.12523,1.07929 46.5087,14.35982 70.04392,36.6467 18.00676,17.05167 21.06759,35.27507 10.07087,59.95997 -4.70862,10.5697 -12.31083,27.5703 -16.89379,37.7791 -4.58295,10.2088 -12.39779,23.5719 -17.36629,29.6957 -5.94774,7.3307 -9.16405,17.1939 -9.41546,28.8734 -0.34331,15.9494 -1.47133,17.8657 -11.17959,18.9918 -8.50113,0.9862 -14.51299,-2.9617 -28.2655,-18.5615 -22.43559,-25.4491 -29.30981,-39.2575 -45.52172,-91.4401 -12.64117,-40.6893 -26.63509,-64.43162 -32.44023,-55.03868 -1.44108,2.33169 -8.10572,4.87097 -14.81034,5.64283 -11.0254,1.26935 -12.28882,2.97795 -13.2226,17.88275 -0.83497,13.3273 0.9382,18.061 9.27023,24.7486 9.82202,7.8836 16.27191,26.0805 26.32355,74.2658 1.89294,9.0745 5.31915,22.3978 7.6137,29.6073 3.45866,10.8669 2.57378,16.1566 -5.17465,30.9359 -5.14066,9.8051 -10.42405,24.7855 -11.74085,33.2897 -1.95506,12.6258 -0.90656,16.2582 5.71575,19.8024 7.82417,4.1873 7.6049,5.2413 -6.22205,29.9104 -17.51966,31.2572 -32.1447,46.5759 -54.60224,57.1917 -9.42322,4.4545 -20.15539,11.4385 -23.84925,15.5202 -6.26027,6.9175 -6.02848,7.8718 3.41477,14.0593 15.44231,10.1181 16.54363,20.3509 4.70474,43.7138 -11.05108,21.8082 -60.290597,74.513 -69.613884,74.513 -2.965501,0 -9.206415,-4.1764 -13.868722,-9.2808 z m 15.288488,-155.7103 c 12.477444,-4.3892 28.505518,-8.0409 35.617928,-8.1149 9.17377,-0.096 19.69105,-5.6994 36.19179,-19.2837 12.79303,-10.5319 22.40588,-20.0031 21.3619,-21.0472 -1.75887,-1.7588 -28.83814,10.5328 -58.11103,26.3772 -24.360798,13.1856 -35.844562,17.9438 -43.307056,17.9438 -10.478231,0 -20.626995,4.276 -20.626995,8.6909 0,5.0465 2.810014,4.6021 28.873463,-4.5661 z M 52.35767,1234.2572 c 3.344971,-5.4123 -32.936734,-38.2891 -48.8047697,-44.2246 -25.2384033,-9.4405 -60.5148073,-5.2785 -69.2755673,8.1734 -2.970475,4.5611 4.315104,23.4798 9.042017,23.4798 1.620905,0 4.06078,-5.5684 5.421977,-12.3743 1.759559,-8.7978 4.858368,-12.3743 10.721604,-12.3743 4.99121,0 10.772869,4.885 14.645757,12.3743 8.077037,15.6192 20.6562799,17.1573 16.8676922,2.0624 -4.4116632,-17.5775 13.0454369,-13.2006 32.3979268,8.1229 16.640089,18.3349 24.348115,22.2604 28.983363,14.7604 z m 157.10796,-74.8388 c 3.11421,-5.039 -8.89767,-19.1371 -12.89739,-15.1375 -3.41181,3.4119 1.96013,19.658 6.50012,19.658 1.98185,0 4.86063,-2.0342 6.39727,-4.5205 z m -27.0557,-118.6062 c 0,-4.2389 -39.84223,-29.49 -46.53048,-29.49 -6.77404,0 5.86224,11.7639 24.53744,22.8434 17.64625,10.469 21.99304,11.7827 21.99304,6.6466 z M 48.814215,1019.5233 c 2.953017,-10.0013 4.733328,-18.8199 3.95626,-19.59698 -3.449891,-3.44988 -18.852496,21.76078 -18.852496,30.85738 0,15.7527 8.90859,9.0185 14.896236,-11.2604 z m 444.166865,264.9328 c -3.87923,-6.1658 -12.6996,-16.1729 -19.60091,-22.2379 -10.40976,-9.1485 -11.76963,-12.3112 -7.98091,-18.5615 7.32762,-12.0886 16.07379,-10.9719 32.04595,4.0918 11.68636,11.0217 14.9469,17.2685 14.9469,28.6364 0,19.0787 -9.89666,23.1937 -19.41103,8.0712 z m 165.84061,-42.1897 c -16.21065,-3.7902 -50.09528,-36.0692 -44.12772,-42.0368 6.05827,-6.0583 37.37705,-0.6915 53.62422,9.189 11.4168,6.943 12.96459,9.7662 10.67622,19.4744 -3.6085,15.3092 -5.76848,16.7412 -20.17272,13.3734 z M 466.0633,1217.6942 c -23.31037,-18.3359 -16.9904,-51.9529 8.10978,-43.137 13.93001,4.8926 28.90882,33.0748 22.7802,42.8601 -6.01856,9.6094 -18.87899,9.7247 -30.88998,0.2769 z m 326.79018,2.2448 c -25.05586,-6.9214 -37.09951,-13.7992 -37.09951,-21.1867 0,-6.56 15.81212,-14.1895 29.40765,-14.1895 7.99593,0 48.95701,31.92 48.96109,38.1542 0.003,4.4837 -19.80935,3.1501 -41.26923,-2.778 z m 159.54079,-47.5543 c -12.94905,-9.8015 -18.50822,-11.5337 -30.93583,-9.6392 -8.33256,1.2702 -18.26026,5.0053 -22.06156,8.3002 -9.44119,8.1834 -19.45273,5.3971 -29.62925,-8.246 l -8.54151,-11.4512 10.16676,-18.7049 c 5.59174,-10.2878 17.12737,-25.1631 25.63471,-33.0565 8.50734,-7.8933 15.46791,-16.9062 15.46791,-20.0286 0,-12.5497 11.53931,-8.1212 35.06059,13.4555 46.63994,42.7838 59.10811,72.9262 35.26545,85.2557 -6.69323,3.4612 -12.7257,6.2415 -13.40552,6.1784 -0.67982,-0.063 -8.3396,-5.4917 -17.02175,-12.0634 z"
         id="path2893" />
      <path
         id="path2997"
         d="m 309.02882,1143.7944 c -22.55445,-23.4765 -39.72331,-53.3927 -54.82046,-95.5227 -5.10882,-14.2567 -14.69332,-37.9588 -21.29882,-52.67127 -16.99128,-37.84484 -18.67233,-43.31734 -16.63764,-54.16302 1.61624,-8.61507 2.32262,-9.28075 8.26598,-7.78909 3.57428,0.8971 9.67956,0.31352 13.56724,-1.29679 6.44783,-2.67078 8.60477,-1.945 24.56145,8.26391 16.49693,10.55463 18.82162,11.29198 40.82793,12.94991 17.9382,1.35139 25.7185,3.1537 33.64095,7.7929 18.28927,10.70986 36.27711,26.42029 43.991,38.42157 6.21504,9.66938 7.34848,13.68838 6.5067,23.07058 -1.31341,14.6372 -20.09784,54.0336 -35.84161,75.1701 -13.19681,17.7173 -18.41037,29.4469 -18.58155,41.8065 -0.27192,19.6278 -7.92877,20.8842 -24.18115,3.9674 l -2e-5,0 z"
         style="fill:#101b13;fill-opacity:1" />
      <path
         id="path2999"
         d="m -18.785422,1283.0475 c -5.264337,-1.9329 -11.754209,-5.4896 -14.421863,-7.9038 -6.020496,-5.4485 -6.291974,-15.0967 -0.515658,-18.3293 3.844763,-2.1516 3.566793,-2.7755 -2.459977,-5.5216 -7.377393,-3.3614 -8.153337,-5.0588 -10.630385,-23.2555 -1.492032,-10.9615 -1.207691,-12.0146 2.924372,-10.8289 25.928206,7.4405 36.7855105,9.5538 42.7194468,8.3148 24.0847112,-5.0284 22.6417072,-5.1934 26.9188942,3.0777 5.346185,10.3384 13.663902,12.0406 31.105284,6.366 17.366843,-5.6503 20.462994,-7.795 20.462994,-14.1738 0,-3.7296 -1.100344,-4.5424 -4.389247,-3.2417 -14.753153,5.8344 -19.020956,4.6656 -37.021937,-10.1383 -32.0599397,-26.366 -54.909513,-32.7067 -89.850997,-24.9328 -10.72458,2.386 -20.17472,3.6627 -21.000242,2.8371 -0.825475,-0.8255 1.492986,-3.856 5.152301,-6.7345 7.918023,-6.2282 8.761107,-14.8204 1.636978,-16.6833 -6.600721,-1.7263 -6.327673,-4.7147 1.254056,-13.725 7.096117,-8.4333 8.121443,-14.5916 2.429502,-14.5916 -9.909057,0 -5.063041,-15.5503 8.068371,-25.8906 6.912269,-5.4432 7.791065,-14.2573 1.415898,-14.2016 -6.320288,0.055 -9.276428,2.6993 -12.816296,11.4622 -1.719242,4.2561 -6.554947,11.4927 -10.745949,16.0812 -8.242279,9.0241 -12.062673,7.5105 -12.140635,-4.8101 -0.02112,-3.3397 -3.576437,-13.3348 -7.900819,-22.2112 -7.09248,-14.5588 -7.71705,-17.6957 -6.37803,-32.0355 1.9755,-21.1544 11.170391,-59.9958 17.329898,-73.2049 7.597981,-16.29413 21.947511,-28.77121 47.558182,-41.3525 32.7102251,-16.06901 67.235819,-24.88375 67.235819,-17.1661 0,1.28696 -9.857556,11.16284 -21.9056967,21.94642 -34.1903173,30.60169 -74.6872733,70.57688 -73.1031033,72.16098 0.789409,0.7894 8.726225,-0.477 17.637391,-2.8143 20.449369,-5.3635 24.688293,-3.9077 24.738501,8.4958 0.0211,5.2164 1.132499,11.1773 2.469737,13.2465 1.954958,3.0251 2.438887,2.6242 2.469762,-2.046 0.08909,-13.4744 10.490941,-20.3093 17.6959531,-11.6278 6.8161233,8.2129 13.2769099,3.1975 24.8709799,-19.3065 13.314269,-25.84269 12.518616,-28.23935 -10.228318,-30.8129 -8.3986724,-0.95013 -14.5961228,-2.40186 -13.772018,-3.22599 0.824116,-0.82409 12.663197,-2.3632 26.309137,-3.42021 21.621959,-1.67482 27.048653,-3.09416 42.222725,-11.04314 l 17.411976,-9.12129 21.713705,3.03761 c 16.58272,2.31984 25.8278,2.35813 39.12494,0.16217 9.57636,-1.58153 19.06778,-2.23988 21.09213,-1.46307 4.49928,1.72658 16.90384,28.67787 17.54611,38.1225 0.61199,8.99852 -5.88842,9.15222 -10.15977,0.24033 -4.33469,-9.04398 -18.58214,-15.22413 -38.35928,-16.63921 -12.45299,-0.89099 -18.59192,-0.13115 -24.77563,3.06657 -9.60258,4.96568 -8.64676,6.69416 5.60402,10.13328 6.45321,1.5573 10.46901,3.95532 10.46901,6.25163 0,3.03906 -3.52557,3.57789 -19.14552,2.92598 l -19.145531,-0.79892 -9.295072,9.29506 c -12.264132,12.2641 -18.859188,23.406 -18.870669,31.8807 -0.0071,5.2284 1.204387,6.8974 5.006917,6.8974 2.858297,0 5.016323,-1.6721 5.016323,-3.8868 0,-7.679 7.848948,-18.8284 17.578702,-24.9707 12.618367,-7.9656 15.66906,-7.8573 28.41214,1.0088 5.74344,3.9961 21.72941,13.7064 35.52428,21.5787 24.46446,13.9608 25.32843,14.2408 35.11422,11.3788 17.55491,-5.1342 19.69158,-4.6771 23.01433,4.9238 3.23878,9.3579 4.36265,49.3456 1.75372,62.3905 -1.68015,8.4007 -5.47448,9.7066 -13.66484,4.7027 -4.52941,-2.7672 -5.9974,-2.1737 -12.5068,5.056 -7.94609,8.8253 -9.68922,19.228 -3.61274,21.5597 2.06922,0.7941 3.77328,3.4542 3.78673,5.9117 0.0135,2.4574 2.83517,10.5056 6.27038,17.885 7.44459,15.9917 8.22056,24.2457 2.05713,21.8806 -2.30395,-0.8842 -9.15077,-2.7195 -15.21531,-4.0786 -6.06459,-1.3589 -14.32376,-4.9087 -18.35378,-7.8882 -10.86533,-8.0332 -11.42221,-4.0529 -1.29013,9.2209 7.63554,10.0031 8.95009,13.6592 8.95009,24.8908 0,14.8824 -3.62437,19.6613 -21.84645,28.806 -13.4956,6.7725 -16.1286,6.6629 -23.30038,-0.9711 -8.86775,-9.4393 -20.86609,-7.8904 -34.412123,4.4423 -5.253423,4.783 -7.615683,4.9701 -41.777336,3.3093 -23.052289,-1.1208 -36.7647414,-0.8612 -37.738326,0.7141 -2.3287475,3.768 0.9231886,4.88 26.247712,8.9759 12.855726,2.0793 24.419536,4.8261 25.69732,6.1037 9.466129,9.4662 -58.8620869,21.798 -79.267159,14.3061 l -5e-5,0 z m 17.0961573,-31.581 c 0.94302244,-1.5259 -2.6827285,-2.493 -9.2575473,-2.4698 -7.902222,0.028 -9.796282,0.692 -7.04547,2.4698 4.923207,3.1816 14.3366787,3.1816 16.3030173,0 z M 103.05787,1183.9549 c 4.28957,-1.6163 1.47498,-2.4845 -11.945292,-3.6842 -9.65641,-0.8634 -22.071821,-2.7654 -27.589736,-4.2271 -5.517951,-1.4614 -14.54732,-3.5638 -20.065272,-4.6716 -5.517929,-1.1078 -16.240311,-5.5284 -23.82748,-9.8235 -7.587181,-4.2952 -15.4878949,-7.7827 -17.5571114,-7.7504 -5.3131382,0.083 13.3722134,16.0992 24.6480154,21.1268 5.066695,2.259 13.162414,6.3506 17.990668,9.0925 7.595547,4.3133 11.740286,4.7874 30.756506,3.5186 12.087937,-0.8067 24.503276,-2.4182 27.589712,-3.5811 l -1e-5,0 z m 4.35775,-20.4413 c 0,-4.6617 -12.345354,-19.0803 -22.160791,-25.8824 -13.97245,-9.6829 -18.400021,-7.8704 -6.056011,2.4794 5.862818,4.9155 10.659696,10.4052 10.659696,12.1991 0,3.7562 -7.715817,6.2713 -19.390467,6.3208 -6.565825,0.028 -8.402378,-1.1559 -9.6775,-6.2362 -2.098246,-8.3603 -11.789614,-8.933 -10.60996,-0.6271 1.291339,9.092 15.241541,14.4134 37.796759,14.4181 12.099724,0 19.438274,-1.0063 19.438274,-2.6718 l 0,10e-5 z m 66.46617,-6.103 c 0,-1.3795 -13.60346,-9.2802 -30.22995,-17.5572 -16.62653,-8.2769 -40.11643,-21.0925 -52.199907,-28.4792 -12.083497,-7.3865 -22.536175,-12.864 -23.228094,-12.1721 -0.691998,0.6921 3.610551,5.2277 9.56118,10.0791 5.950667,4.8514 17.027111,14.0312 24.614261,20.3994 7.58718,6.3682 17.18089,12.9553 21.31934,14.6379 4.13848,1.6827 13.16782,6.0936 20.06527,9.802 12.41913,6.6772 30.0979,8.6097 30.0979,3.2901 z m -11.16318,-36.9954 c 6.45359,-5.3579 9.83419,-10.2477 9.8639,-14.2678 l 0.0452,-6.1162 -5.11399,5.4892 c -2.81276,3.0191 -6.72342,5.4891 -8.69035,5.4891 -3.94534,0 -8.76909,7.4976 -8.76909,13.63 0,5.5253 1.53872,5.0122 12.66429,-4.2243 l 2e-5,0 z M 8.5598424,1106.6203 c 0.9338154,-5.1729 2.7176996,-11.3808 3.9641306,-13.7949 3.156294,-6.113 13.879796,-5.6897 15.884647,0.6271 2.044457,6.4414 11.286694,6.7415 11.286694,0.3663 0,-5.9466 -10.424805,-17.2431 -18.878346,-20.4571 -9.436008,-3.5876 -16.2358269,-3.0517 -16.2358269,1.2796 0,2.0693 1.1286552,3.7623 2.5081368,3.7623 1.3795072,0 2.5081753,1.693 2.5081753,3.7621 0,5.6012 -7.7876603,4.5518 -9.30589649,-1.2539 -0.80361648,-3.0733 -3.42117531,-5.0164 -6.75738701,-5.0164 -6.4078017,0 -23.6907477,13.6658 -20.8902567,16.5182 1.057609,1.0772 3.258506,0.6229 4.890913,-1.0095 5.396633,-5.3965 11.997354,-3.5363 11.997354,3.3811 0,3.492 1.7794495,7.032 3.9543451,7.8666 2.1749201,0.8346 4.9686667,4.1853 6.20833943,7.4457 3.29752177,8.6735 6.92868677,7.2492 8.86500357,-3.4772 l -2.57e-5,0 z M 146.54281,1094.9574 c 9.49905,-9.499 10.23038,-12.0185 4.79749,-16.5274 -5.47525,-4.544 -10.65487,-1.4541 -15.0016,8.9493 -7.55238,18.0752 -3.3866,21.1689 10.20413,7.578 l -2e-5,10e-5 z m -207.173781,-12.7917 c 0,-2.0691 -0.990469,-3.7621 -2.201061,-3.7621 -1.210581,0 -3.606118,1.693 -5.323426,3.7621 -2.608679,3.1434 -2.246508,3.7623 2.201035,3.7623 3.05986,0 5.323452,-1.5997 5.323452,-3.7623 z m 182.575461,-25.4845 c 10.42979,2.2633 19.50267,3.5758 20.16188,2.9166 1.76061,-1.7606 -21.08794,-11.4352 -30.68425,-12.9925 -10.66719,-1.7309 -24.07176,4.9337 -24.07176,11.9682 0,5.0635 0.09028,5.0584 7.815433,-0.4424 7.741427,-5.5124 7.994897,-5.5262 26.778697,-1.4499 l 0,0 z m -189.604865,-8.0873 8.09867,-7.2361 -8.570024,-5.2118 c -4.713483,-2.8664 -8.903103,-4.8786 -9.310293,-4.4714 -0.407253,0.4072 -1.72457,6.0088 -2.92755,12.4479 -2.652681,14.1992 0.557827,15.3286 12.709197,4.4714 z m 112.954095,-7.7322 c 4.530337,-3.5636 6.723121,-8.3156 7.887576,-17.0934 2.13691,-16.1087 11.453357,-29.87598 28.080308,-41.49518 13.831689,-9.66582 16.263034,-13.36913 10.283513,-15.66369 -5.723854,-2.1965 -14.848242,2.95492 -33.577673,18.95729 -21.63074,18.48108 -28.304718,28.41688 -28.304718,42.13748 0,18.6779 4.160592,22.1801 15.630994,13.1575 l 0,0 z m -97.730632,-45.89272 c 10.694348,-8.31728 15.401323,-15.62705 13.40789,-20.82191 -1.680554,-4.37946 -13.087485,-0.69946 -18.318824,5.90988 -5.931411,7.49387 -13.1574,22.42425 -11.604382,23.97715 1.810551,1.8105 4.260315,0.4659 16.515355,-9.06512 l -3.9e-5,0 z"
         style="fill:#101b13;fill-opacity:1" />
      <path
         id="path2522"
         d="m -5.5301925,1014.7646 c -3.2553661,-6.6622 -6.6667435,-9.8786 -11.1082585,-10.4732 -10.232274,-1.3697 -11.859782,-5.06637 -3.622548,-8.22792 8.44863,-3.2427 22.6896158,-1.71531 28.4306091,3.0493 5.8929219,4.89062 0.2778961,25.26702 -6.9626526,25.26702 -1.12139517,0 -4.1531175,-4.3268 -6.737138,-9.6152 l -1.2e-5,0 z"
         style="fill:#101b13;fill-opacity:1" />
      <path
         sodipodi:nodetypes="csssssssscc"
         id="path2911"
         d="m 25.965024,1222.1638 c -27.1194826,-25.3768 -35.4716882,-29.2078 -35.4716882,-12.1685 0,4.9116 0.8529306,9.8686 0.1493796,10.5794 -2.3677154,2.3914 -8.7077174,0.7251 -17.1043964,-13.1448 -10.608509,-17.5235 -17.956574,-12.2018 -24.857703,0.1604 -2.607933,4.6717 -2.988593,13.613 -4.216615,14.0265 -2.842555,0.957 -10.690343,-12.5434 -10.690343,-18.9818 0,-16.1373 38.805846,-23.5673 67.7214758,-12.9662 20.7915162,7.6226 57.7167162,39.3458 51.2489442,45.0844 -4.692257,4.1633 -7.431888,6.8677 -23.207626,-9.0181 l -3.571428,-3.5713 z"
         style="fill:#00ff98;fill-opacity:1" />
    </g>
  </g>
</svg>
