<?xml version="1.0" encoding="UTF-8" standalone="no"?>
<!-- Created with Inkscape (http://www.inkscape.org/) -->

<svg
   xmlns:dc="http://purl.org/dc/elements/1.1/"
   xmlns:cc="http://creativecommons.org/ns#"
   xmlns:rdf="http://www.w3.org/1999/02/22-rdf-syntax-ns#"
   xmlns:svg="http://www.w3.org/2000/svg"
   xmlns="http://www.w3.org/2000/svg"
   xmlns:xlink="http://www.w3.org/1999/xlink"
   xmlns:sodipodi="http://sodipodi.sourceforge.net/DTD/sodipodi-0.dtd"
   xmlns:inkscape="http://www.inkscape.org/namespaces/inkscape"
   width="64"
   height="64"
   id="svg2495"
   sodipodi:version="0.32"
   inkscape:version="0.47 r22583"
   inkscape:export-filename="percy 2.png"
   inkscape:export-xdpi="90"
   inkscape:export-ydpi="90"
   sodipodi:docname="persy_idle.svg"
   inkscape:output_extension="org.inkscape.output.svg.inkscape"
   version="1.0">
  <defs
     id="defs2497">
    <linearGradient
       id="linearGradient3176">
      <stop
         style="stop-color:#df8de4;stop-opacity:1;"
         offset="0"
         id="stop3178" />
      <stop
         style="stop-color:#f4b7f9;stop-opacity:1;"
         offset="1"
         id="stop3180" />
    </linearGradient>
    <inkscape:perspective
       sodipodi:type="inkscape:persp3d"
       inkscape:vp_x="0 : 526.18109 : 1"
       inkscape:vp_y="0 : 1000 : 0"
       inkscape:vp_z="744.09448 : 526.18109 : 1"
       inkscape:persp3d-origin="372.04724 : 350.78739 : 1"
       id="perspective2503" />
    <linearGradient
       inkscape:collect="always"
       xlink:href="#linearGradient3176"
       id="linearGradient3182"
       x1="802.89124"
       y1="1565.7361"
       x2="162.55066"
       y2="1565.7361"
       gradientUnits="userSpaceOnUse" />
    <linearGradient
       inkscape:collect="always"
       xlink:href="#linearGradient3176"
       id="linearGradient3213"
       gradientUnits="userSpaceOnUse"
       x1="802.89124"
       y1="1565.7361"
       x2="162.55066"
       y2="1565.7361"
       gradientTransform="matrix(0.04639497,0,0,0.04639497,-104.74066,2127.0402)" />
  </defs>
  <sodipodi:namedview
     id="base"
     pagecolor="#ffffff"
     bordercolor="#666666"
     borderopacity="1.0"
     inkscape:pageopacity="0.0"
     inkscape:pageshadow="2"
     inkscape:zoom="5.12"
     inkscape:cx="21.22186"
     inkscape:cy="47.708748"
     inkscape:document-units="px"
     inkscape:current-layer="g3204"
     showgrid="false"
     inkscape:window-width="1366"
     inkscape:window-height="716"
     inkscape:window-x="86"
     inkscape:window-y="129"
     inkscape:window-maximized="0" />
  <metadata
     id="metadata2500">
    <rdf:RDF>
      <cc:Work
         rdf:about="">
        <dc:format>image/svg+xml</dc:format>
        <dc:type
           rdf:resource="http://purl.org/dc/dcmitype/StillImage" />
      </cc:Work>
    </rdf:RDF>
  </metadata>
  <g
     inkscape:label="Ebene 1"
     inkscape:groupmode="layer"
     id="layer1"
     transform="translate(109.83652,-2166.5253)">
    <g
       id="g3204">
      <path
         style="fill:url(#linearGradient3213);fill-opacity:1"
         d="m -92.354691,2230.4403 c -0.871268,-0.1623 -1.44981,-0.4435 -1.812983,-0.8811 -0.418577,-0.5043 0.246028,-1.685 1.326676,-2.3568 0.806091,-0.5011 0.983385,-0.7463 1.636401,-2.2632 0.722854,-1.6792 0.73417,-1.7434 0.871333,-4.9545 0.160899,-3.7666 -0.06745,-8.1201 -0.43827,-8.3555 -0.133967,-0.085 -0.426819,-0.1559 -0.650786,-0.1575 -0.223965,0 -0.727583,-0.1368 -1.119149,-0.3004 -1.34866,-0.5634 -1.338797,-0.5867 -1.389195,3.2664 -0.105232,8.0455 -0.06611,7.6613 -0.968082,9.5075 -0.442696,0.9061 -0.804901,1.7418 -0.804901,1.857 0,0.1153 -0.310686,0.5534 -0.690412,0.9737 -0.889933,0.985 -1.711677,1.2065 -3.862041,1.0411 -1.42613,-0.1098 -1.74309,-0.1993 -2.1933,-0.6193 -0.28945,-0.2701 -0.52627,-0.6321 -0.52627,-0.8046 0,-0.4094 0.75124,-1.1041 1.85097,-1.7118 0.48425,-0.2676 1.148581,-0.8607 1.476281,-1.3181 0.55409,-0.7735 0.594882,-0.941 0.582489,-2.3922 -0.02079,-2.435 -0.347201,-4.5234 -1.30367,-8.341 -0.48606,-1.9402 -0.88608,-3.9208 -0.88892,-4.4015 -0.006,-0.9937 -0.77104,-2.9436 -1.66481,-4.2427 -0.94637,-1.3755 -1.21667,-2.2204 -1.61617,-5.0516 -0.59995,-4.252 -0.6287,-4.9252 -0.25236,-5.9106 0.49725,-1.302 0.26093,-3.4655 -0.4921,-4.5051 -0.30506,-0.4212 -0.77604,-0.9108 -1.04665,-1.088 -0.60659,-0.3975 -1.04654,-1.2151 -1.04654,-1.9449 0,-0.3588 -0.29461,-0.9296 -0.84701,-1.641 -0.97855,-1.2601 -1.11172,-1.7229 -1.14312,-3.9724 -0.0151,-1.0779 -0.11299,-1.7558 -0.28336,-1.961 -0.29592,-0.3566 -0.21537,-1.6968 0.22764,-3.7876 0.42013,-1.9828 0.77338,-2.336 3.75436,-3.7541 3.03994,-1.4461 4.43692,-1.7421 6.616036,-1.402 0.73677,0.115 2.476537,0.2462 3.866145,0.2916 l 2.526563,0.082 1.909699,0.9809 c 3.086923,1.5857 4.232258,2.6469 4.232258,3.9214 0,0.2715 -0.215291,1.0052 -0.478423,1.6303 -0.263131,0.6253 -0.478423,1.3023 -0.478423,1.5047 0,0.2403 0.651847,0.8677 1.878539,1.808 2.297288,1.7609 3.463813,2.4285 4.243755,2.4285 0.327045,0 0.843196,0.1284 1.147005,0.2856 0.401303,0.2075 0.935176,0.2603 1.952028,0.193 0.769805,-0.051 3.121969,-0.1889 5.227027,-0.3065 2.105057,-0.1176 3.978081,-0.2936 4.162274,-0.3911 0.210536,-0.1115 0.336894,-0.4057 0.340276,-0.7925 0.003,-0.3384 0.282835,-1.1293 0.621951,-1.7577 0.789338,-1.4627 1.724539,-2.1175 3.391416,-2.3744 2.808988,-0.4331 2.830346,-0.4333 3.211758,-0.023 0.196828,0.2113 0.785334,0.511 1.30779,0.6662 1.418649,0.4213 2.055049,1.2101 3.631772,4.5012 0.313802,0.655 0.599637,1.7391 0.756818,2.8705 0.572931,4.1239 0.975877,5.5452 2.49566,8.803 1.186315,2.543 2.180777,6.2123 2.188223,8.0741 0.003,0.7503 0.259886,2.1853 0.678642,3.7907 0.563769,2.1617 0.689936,3.0211 0.772505,5.2628 0.110763,3.0069 0.315402,4.1991 0.936139,5.454 0.52314,1.0574 0.783402,2.2026 1.065591,4.6885 0.229195,2.0191 0.922456,5.0896 1.415621,6.2698 0.470343,1.1257 0.377697,1.6329 -0.449325,2.46 -0.646199,0.6462 -0.856828,0.743 -1.617218,0.743 -1.262185,0 -2.716147,-0.3521 -3.277438,-0.7936 -0.628828,-0.4947 -0.631148,-1.2296 -0.0078,-2.4597 0.727459,-1.4356 0.680183,-3.4575 -0.130495,-5.5812 -0.334907,-0.8773 -0.842486,-1.9636 -1.12795,-2.414 -0.285473,-0.4503 -0.578401,-1.1352 -0.650958,-1.522 -0.07255,-0.3868 -0.296464,-1.0258 -0.497568,-1.42 -0.629227,-1.2333 -3.061572,-5.0022 -3.809857,-5.9033 -0.393342,-0.4736 -0.868127,-1.1626 -1.055086,-1.5309 -0.186956,-0.3684 -0.603891,-1.0399 -0.926522,-1.4921 -0.465006,-0.6519 -0.687631,-0.8105 -1.073989,-0.7655 -0.3946,0.046 -0.567379,0.2589 -0.907533,1.1183 -0.961327,2.4288 -1.080187,5.4069 -0.306949,7.6904 l 0.516808,1.5263 -1.025588,4.1422 c -1.117403,4.5133 -1.429891,5.4036 -2.175773,6.1996 -0.484361,0.5169 -0.533349,0.5262 -2.750865,0.5233 -1.241748,0 -2.352475,-0.066 -2.468286,-0.1434 -0.278539,-0.1861 -0.650597,-0.9052 -0.650597,-1.2574 0,-0.1544 0.605047,-0.7413 1.344551,-1.3043 1.834625,-1.3967 2.865566,-3.0818 2.865566,-4.6837 0,-1.5608 -0.921873,-4.1028 -2.343014,-6.4606 -0.767346,-1.2732 -1.474225,-3.4556 -1.481094,-4.5729 -0.0045,-0.7321 -0.401792,-0.8192 -1.216001,-0.2667 -0.979878,0.665 -1.910312,0.8019 -2.616125,0.3849 l -0.570067,-0.3367 -2.10432,1.106 c -1.200424,0.631 -3.101921,1.4169 -4.426789,1.8295 -1.277358,0.398 -2.397513,0.8576 -2.489234,1.0216 -0.09172,0.1638 -0.252478,0.9734 -0.357242,1.7991 -0.104761,0.8256 -0.32523,2.1901 -0.489928,3.0321 -0.164703,0.842 -0.419025,2.1768 -0.565161,2.9662 -0.593948,3.2084 -0.732886,3.7678 -1.140621,4.5928 -0.234071,0.4737 -0.578255,1.5071 -0.764855,2.2965 -0.639753,2.7064 -0.985518,3.0483 -3.188754,3.1537 -0.881749,0.042 -1.947641,0.012 -2.368652,-0.066 z"
         id="path2901" />
      <path
         style="fill:#b865c4"
         d="m -92.059762,2230.3956 c -1.102943,-0.1911 -1.871176,-0.5841 -2.049329,-1.0484 -0.219807,-0.5728 0.350854,-1.4021 1.354755,-1.9686 0.976491,-0.5511 1.009648,-0.5996 1.804187,-2.6381 l 0.809412,-2.0767 0.02887,-4.4015 c 0.01587,-2.4207 -0.03867,-4.9401 -0.12121,-5.5986 -0.136762,-1.0909 -0.195085,-1.2063 -0.657423,-1.3005 -0.279038,-0.057 -1.005267,-0.2431 -1.613839,-0.4138 -0.871839,-0.2446 -1.155923,-0.2608 -1.339581,-0.077 -0.161421,0.162 -0.239576,1.1575 -0.254181,3.2375 -0.01159,1.652 -0.07124,4.1894 -0.132535,5.6386 -0.108883,2.5743 -0.12885,2.6712 -0.868099,4.2101 -0.41616,0.8664 -0.810887,1.7475 -0.87717,1.9579 -0.224636,0.7135 -1.082415,1.4773 -1.953174,1.7394 -0.793708,0.2388 -2.380111,0.2252 -3.653861,-0.032 -0.49021,-0.099 -1.20136,-0.7967 -1.20136,-1.1788 0,-0.3352 0.85472,-1.1034 1.76786,-1.5892 0.39343,-0.2092 1.070066,-0.8292 1.503634,-1.3777 l 0.788306,-0.9973 -0.114017,-1.8227 c -0.200226,-3.2008 -0.431385,-4.6142 -1.337463,-8.178 -0.4873,-1.9166 -0.88704,-3.8542 -0.88833,-4.3058 -0.003,-0.9171 -0.91596,-3.1878 -1.83342,-4.5581 -0.89725,-1.3401 -1.03027,-1.7845 -1.45469,-4.8594 -0.59839,-4.3353 -0.60884,-4.5798 -0.243,-5.6813 0.25017,-0.7531 0.3,-1.3141 0.2063,-2.3224 -0.15469,-1.6642 -0.28153,-1.9105 -1.65153,-3.2065 -0.88412,-0.8364 -1.13771,-1.2097 -1.23485,-1.818 -0.13553,-0.8487 -0.10282,-0.7824 -1.11127,-2.2536 -0.58042,-0.8468 -0.75362,-1.3122 -0.88049,-2.3661 -0.0923,-0.7664 -0.0835,-1.5816 0.0212,-1.9608 0.14839,-0.5374 0.1106,-0.7418 -0.21988,-1.1887 -0.48862,-0.661 -0.49094,-0.947 -0.0259,-3.2006 0.55631,-2.696 1.1255,-3.2548 4.82197,-4.7337 2.2471,-0.8991 3.70455,-1.131 5.425823,-0.8635 0.73677,0.1145 2.459089,0.2436 3.827378,0.2868 2.661184,0.084 2.516911,0.042 6.208474,1.8045 0.934611,0.4461 2.444789,1.9388 2.602887,2.5727 0.09623,0.3858 -0.03366,0.9595 -0.463621,2.0476 -0.328514,0.8313 -0.597299,1.6266 -0.597299,1.7673 0,0.3023 3.512764,2.9531 4.860566,3.6679 0.51563,0.2734 1.144247,0.4972 1.396929,0.4972 0.252684,0 0.704893,0.1269 1.00491,0.282 0.462289,0.2391 1.095699,0.2544 4.152772,0.1002 7.831003,-0.3948 7.786057,-0.3851 7.966689,-1.7318 0.136638,-1.0187 0.520501,-1.473 0.520501,-0.6161 0,0.3293 0.125447,0.7242 0.278771,0.8775 0.153322,0.1533 0.379728,0.6797 0.503119,1.1698 0.257458,1.0224 0.851325,1.4493 2.01623,1.4493 0.404256,0 0.868942,0.1419 1.074966,0.3284 0.199593,0.1806 0.636955,0.3393 0.971912,0.3527 0.334959,0.013 0.888893,0.088 1.230966,0.1652 0.696696,0.1579 0.794894,-0.065 0.404659,-0.9224 -0.258897,-0.5683 -0.480078,-0.6761 -1.981011,-0.9655 -1.065989,-0.2055 -1.181218,-0.2802 -1.654863,-1.0727 -0.280001,-0.4686 -0.558303,-1.2535 -0.618449,-1.7443 -0.10269,-0.8379 -0.07764,-0.9045 0.410965,-1.0912 0.286176,-0.1093 0.735612,-0.3257 0.998745,-0.4809 0.263132,-0.1551 0.629125,-0.3288 0.813316,-0.3859 0.456331,-0.1415 0.420738,-0.4018 -0.08584,-0.6278 -0.368767,-0.1645 -0.294234,-0.2128 0.603363,-0.3903 l 1.024103,-0.2025 1.78875,1.7473 c 1.090654,1.0653 1.78875,1.8981 1.78875,2.1338 0,0.5439 0.692008,2.375 1.044945,2.765 0.427042,0.4718 0.366019,0.8882 -0.264516,1.8046 l -0.559153,0.8128 0.357896,0.7993 c 0.366863,0.8194 1.277666,1.8792 1.459085,1.6979 0.05576,-0.056 -0.134505,-0.627 -0.422802,-1.2695 l -0.52418,-1.168 0.435384,-0.4635 c 0.475627,-0.5062 0.475548,-0.5075 -0.168372,-2.7291 -0.455645,-1.572 -0.487871,-1.8486 -0.194238,-1.6671 0.330278,0.2041 0.960938,1.8301 1.034771,2.6679 0.07456,0.8461 0.336345,2.4489 0.687829,4.2116 0.337741,1.6937 1.443268,4.8044 2.195716,6.1782 0.362284,0.6615 0.658702,1.3119 0.658702,1.4453 0,0.1335 0.302412,1.3136 0.672022,2.6226 0.488785,1.731 0.660265,2.6936 0.628916,3.5303 -0.03117,0.832 0.155753,1.8916 0.675561,3.8295 0.629182,2.3456 0.737286,3.0723 0.868278,5.8368 0.127229,2.6851 0.215264,3.3007 0.588395,4.1144 0.732948,1.5984 0.970973,2.56 1.349936,5.454 0.199846,1.5262 0.587324,3.5069 0.861058,4.4015 1.010297,3.3019 0.982604,2.9946 0.350361,3.8888 l -0.565457,0.7997 -1.764113,-0.015 c -1.454956,-0.012 -1.855215,-0.083 -2.283956,-0.4016 -0.698364,-0.5191 -0.739113,-1.1924 -0.15004,-2.4791 0.594389,-1.2983 0.681412,-3.5698 0.187658,-4.8984 -0.600161,-1.6148 -0.932869,-2.359 -1.349426,-3.0179 -0.23287,-0.3684 -0.524922,-1.0568 -0.649,-1.5299 -0.124083,-0.473 -0.39317,-1.1885 -0.597976,-1.59 -0.5754,-1.1278 -3.338503,-5.4285 -4.060952,-6.3206 -0.35532,-0.4388 -0.797736,-1.0992 -0.983144,-1.4675 -0.879155,-1.7468 -1.974559,-2.5514 -2.540254,-1.8659 -0.820347,0.9942 -1.649041,6.1972 -1.219678,7.6579 0.880512,2.9955 0.888523,2.3347 -0.07826,6.4555 -1.206565,5.1431 -1.335418,5.5561 -1.970332,6.3167 l -0.55799,0.6683 -2.332829,0 c -2.088376,0 -2.361292,-0.039 -2.604454,-0.3714 -0.519,-0.7098 -0.328855,-1.1172 0.97032,-2.0787 0.68307,-0.5056 1.451318,-1.1945 1.707218,-1.531 0.679884,-0.8939 1.26095,-2.5084 1.26095,-3.5034 0,-1.5018 -1.23829,-4.6952 -2.491464,-6.4251 -0.67254,-0.9284 -0.927932,-1.6732 -1.218671,-3.5536 -0.266219,-1.7218 -0.558595,-2.0258 -1.383789,-1.4393 -0.900424,0.64 -1.941698,0.8513 -2.576969,0.5228 -0.770615,-0.3986 -0.908537,-0.3689 -2.497342,0.5365 -1.81607,1.035 -2.431566,1.2921 -5.188359,2.167 -2.214721,0.7029 -2.250671,0.7235 -2.440914,1.4012 -0.106199,0.3783 -0.238543,1.1615 -0.294096,1.7404 -0.05556,0.5789 -0.222437,1.6984 -0.370852,2.4877 -0.148413,0.7895 -0.399245,2.1242 -0.557401,2.9663 -0.158157,0.842 -0.387177,2.0476 -0.508934,2.6791 -0.121755,0.6316 -0.459245,1.708 -0.749974,2.3921 -0.29073,0.6842 -0.637445,1.8037 -0.77048,2.4878 -0.269498,1.386 -0.849893,2.4222 -1.43384,2.5599 -0.935451,0.2207 -2.573657,0.2673 -3.535211,0.1006 z m 4.39591,-4.8798 c 0.222276,-1.7887 0.134968,-2.1821 -0.484188,-2.1821 -0.683077,0 -1.431802,1.0197 -1.431802,1.95 0,0.749 -0.01748,0.77 -0.572155,0.6886 -0.422967,-0.062 -0.681647,0.033 -0.992071,0.363 l -0.419917,0.447 0.73781,0.6758 c 0.597518,0.5473 0.838953,0.6536 1.269742,0.559 0.399793,-0.088 0.617457,-0.017 0.876213,0.2872 0.34325,0.4027 0.344988,0.4015 0.583193,-0.4106 0.131404,-0.448 0.326334,-1.5181 0.433175,-2.3779 z m 40.700795,1.406 c -0.219017,-0.9146 -1.654895,-4.782 -1.873054,-5.0449 -0.176722,-0.213 -0.178026,-0.3905 -0.0056,-0.7689 0.19607,-0.4302 0.14995,-0.6123 -0.368371,-1.4548 l -0.592501,-0.9629 0.30082,-0.9197 c 0.342748,-1.0479 0.37059,-1.4937 0.118206,-1.8927 -0.153754,-0.2431 -0.221856,-0.2402 -0.523336,0.022 -0.190618,0.1659 -0.593725,0.3604 -0.895798,0.4324 -0.518497,0.1234 -0.542455,0.173 -0.428324,0.8868 0.184017,1.1507 0.671531,2.4578 1.235202,3.3115 0.452203,0.6849 0.502318,0.9261 0.457589,2.2018 -0.04147,1.1825 0.01289,1.502 0.311324,1.8302 0.198853,0.2187 0.464506,0.7191 0.590335,1.1122 0.206388,0.6447 1.192252,1.67 1.610833,1.6754 0.0912,0 0.119439,-0.1917 0.06274,-0.4285 z m -50.912868,-1.2224 c 1.080515,-0.5127 1.757831,-2.2104 1.404871,-3.5212 -0.218173,-0.8102 -0.659162,-1.0059 -0.857634,-0.3806 -0.06594,0.2078 -0.351616,0.4884 -0.634845,0.6234 -0.674742,0.3219 -0.784611,1.1574 -0.247687,1.8837 l 0.393759,0.5326 -0.702833,0.3486 c -0.38656,0.1916 -0.736231,0.4562 -0.777047,0.5877 -0.10513,0.3389 0.632048,0.3004 1.421416,-0.074 z m 32.938585,-0.8826 c 0.192334,-0.237 1.348883,-3.9968 1.519165,-4.9387 0.04979,-0.2754 -0.02323,-0.5819 -0.16704,-0.7011 -0.206743,-0.1714 -0.258059,-0.038 -0.268873,0.6996 -0.0085,0.5817 -0.161425,1.147 -0.422539,1.5624 -0.684567,1.0888 -1.034936,1.9504 -1.14019,2.8036 -0.100597,0.8156 0.0942,1.0489 0.479477,0.5742 z m -30.359826,-2.4878 c 0.0712,-1.2911 -0.09215,-2.6148 -0.396535,-3.2131 -0.189531,-0.3726 -0.402929,-0.9323 -0.474216,-1.2439 -0.07129,-0.3115 -0.459163,-1.2486 -0.861945,-2.0822 -0.657088,-1.3601 -0.747694,-1.4682 -0.881897,-1.0526 -0.43024,1.3325 0.235518,4.3864 0.956265,4.3864 0.453479,0 1.058615,1.1445 1.062375,2.0093 0.004,0.9333 0.175887,1.6267 0.403159,1.6267 0.09297,0 0.179736,-0.1938 0.192794,-0.4306 z m 7.971169,-2.1638 c 0.593993,-0.416 0.610264,-2.064 0.02651,-2.6854 -0.347198,-0.3695 -0.38138,-0.564 -0.264138,-1.5023 0.115007,-0.9206 0.212632,-1.1182 0.668572,-1.3541 0.635345,-0.3285 0.761466,-0.6096 0.540975,-1.2056 -0.199816,-0.5401 0.02873,-1.015 0.70039,-1.455 0.410839,-0.2692 0.486875,-0.4481 0.43835,-1.0318 -0.05795,-0.6969 -0.06848,-0.7052 -0.808624,-0.6396 -0.412456,0.037 -1.058326,0.2704 -1.435268,0.5197 -0.376942,0.2493 -0.965225,0.5507 -1.307298,0.6699 l -0.621949,0.2166 0,2.1663 c 0,1.1916 0.05349,2.3059 0.118875,2.4762 0.06538,0.1704 0.366787,0.438 0.669791,0.5947 0.46185,0.2388 0.550917,0.4037 0.550917,1.0197 0,0.4449 -0.150943,0.9266 -0.382738,1.2213 -0.389424,0.495 -0.48508,0.9298 -0.255158,1.1597 0.224344,0.2243 0.921988,0.137 1.36079,-0.1703 z m 2.40721,-4.4264 c 0.266244,-1.1464 0.246382,-1.3995 -0.109862,-1.3995 -0.263516,0 -0.667618,1.1368 -0.816317,2.2964 l -0.134967,1.0526 0.393099,-0.3827 c 0.216204,-0.2106 0.516825,-0.9155 0.668047,-1.5668 z m 32.088938,-4.5092 c 0.343378,-0.3652 0.395331,-0.6194 0.342353,-1.6745 -0.06033,-1.2014 -0.04613,-1.2462 0.415963,-1.3101 0.708247,-0.098 0.924712,-0.3544 1.059814,-1.2553 0.08584,-0.5724 0.02424,-1.0333 -0.208986,-1.5632 -0.212284,-0.4823 -0.318557,-1.1625 -0.296761,-1.8996 0.04419,-1.494 -0.624698,-6.4271 -1.037921,-7.6546 -0.441916,-1.313 -1.513705,-3.6174 -2.000036,-4.3004 -0.291397,-0.4092 -0.706405,-0.6495 -1.512466,-0.8757 -0.610975,-0.1715 -1.361131,-0.5112 -1.667004,-0.7551 -0.488349,-0.3894 -0.556132,-0.5672 -0.556132,-1.4589 0,-1.084 -0.234308,-1.3437 -1.435265,-1.5904 -0.263134,-0.054 -0.650655,-0.3607 -0.861161,-0.6815 -0.466876,-0.7116 -1.635769,-1.1035 -2.337631,-0.7838 -0.250376,0.1141 -0.601878,0.21 -0.781119,0.2132 -0.508538,0.01 -1.900097,1.3389 -2.395054,2.289 -0.286462,0.55 -0.700331,0.9925 -1.149075,1.2288 -0.385745,0.2032 -1.268247,0.9144 -1.961117,1.5805 -0.79448,0.7638 -1.420693,1.2111 -1.695496,1.2111 -0.239655,0 -0.722213,0.1 -1.07235,0.2219 -0.608825,0.2123 -0.66228,0.1914 -1.224613,-0.4784 -0.3234,-0.3851 -0.680635,-0.7003 -0.793854,-0.7003 -0.609185,0 -1.602811,1.7809 -1.609271,2.8842 -0.0036,0.6059 -0.559606,2.2828 -0.756942,2.2828 -0.07919,0 -0.409431,-0.1324 -0.73387,-0.2943 -0.684594,-0.3415 -0.85509,-0.8879 -0.861637,-2.7616 -0.0047,-1.3424 -0.168981,-1.7284 -0.735766,-1.7284 -0.257548,0 -0.359306,0.1382 -0.359306,0.488 0,0.2684 -0.117461,0.7204 -0.261029,1.0047 -0.143568,0.2842 -0.320422,0.9813 -0.393013,1.5492 -0.168323,1.3167 -0.780254,2.5541 -1.221866,2.4707 -0.346097,-0.066 -1.551936,-2.3337 -2.014878,-3.7902 -0.15054,-0.4737 -0.281532,-1.189 -0.291094,-1.5895 -0.02183,-0.9148 -0.661404,-1.8551 -1.261733,-1.8551 -0.572626,0 -0.82522,0.321 -0.903769,1.1489 -0.0537,0.5659 -0.136007,0.6691 -0.534277,0.6691 -0.529497,0 -1.347204,-1.0287 -1.347204,-1.6948 0,-0.2168 0.289779,-0.6992 0.643954,-1.0721 0.783543,-0.8248 1.509696,-2.2144 1.935811,-3.7045 0.291898,-1.0208 0.29298,-1.1516 0.01305,-1.5788 -0.167871,-0.2562 -0.379456,-0.4658 -0.470189,-0.4658 -0.28835,0 -2.314002,1.759 -2.314002,2.0093 0,0.478 -0.548832,0.7428 -1.058194,0.5107 -0.592607,-0.27 -0.618406,-0.9101 -0.07926,-1.967 0.455492,-0.8928 0.450668,-2.1797 -0.0081,-2.1797 -0.156459,0 -0.403557,0.2584 -0.549105,0.5742 -0.562961,1.2213 -1.417275,2.3921 -1.745502,2.3921 -0.462943,0 -0.652829,-1.7793 -0.269585,-2.5261 0.145852,-0.2843 0.265187,-0.6677 0.265187,-0.8521 0,-0.3855 -1.106852,-1.5974 -1.458918,-1.5974 -0.324495,0 -1.028878,0.9307 -1.028878,1.3595 0,0.1931 -0.166317,0.6766 -0.369595,1.0746 -0.589012,1.153 -0.579346,1.4789 0.046,1.5506 0.809689,0.093 0.829209,0.5215 0.0624,1.3702 -0.377267,0.4176 -0.743506,0.9982 -0.813861,1.2904 -0.07035,0.292 -0.336677,0.9487 -0.59183,1.4591 -0.25515,0.5104 -0.430704,0.9612 -0.390123,1.0018 0.04059,0.04 0.364674,-0.2263 0.720199,-0.5931 0.395519,-0.4082 0.830335,-0.667 1.120287,-0.667 0.295575,0 0.895695,-0.3668 1.594946,-0.975 1.260886,-1.0967 1.74595,-1.1373 1.647854,-0.1381 -0.04861,0.4953 -0.256927,0.7481 -1.091985,1.3259 -1.234491,0.8541 -1.377811,1.0556 -1.159428,1.6299 0.251507,0.6615 -0.138046,1.5272 -0.885828,1.9684 -0.535582,0.3159 -0.654517,0.5013 -0.654517,1.0198 0,0.3485 0.138087,0.8309 0.306862,1.0717 0.226341,0.3232 0.273915,0.6579 0.181295,1.2756 -0.112428,0.7496 -0.07597,0.8698 0.348345,1.1478 0.424737,0.2783 0.531214,0.281 1.026079,0.025 0.358383,-0.1853 0.648931,-0.2243 0.827899,-0.1111 0.417446,0.2642 0.502616,0.2283 0.950332,-0.4005 0.335607,-0.4713 0.369059,-0.6345 0.177389,-0.8655 -0.208538,-0.2512 -0.290914,-0.2488 -0.703086,0.022 -0.809695,0.5305 -1.001328,0.2646 -0.968517,-1.344 0.03904,-1.9142 0.136204,-1.9939 2.392947,-1.9619 1.991949,0.028 2.134283,0.1327 1.675355,1.2311 -0.256541,0.614 -0.256335,0.7237 0.0019,1.0091 0.368447,0.4071 0.37977,1.9117 0.01811,2.4063 -0.266967,0.3651 -0.279497,0.3641 -0.729966,-0.059 -0.252085,-0.2368 -0.555178,-0.4306 -0.673538,-0.4306 -0.317779,0 -3.109086,2.513 -3.109086,2.7991 0,0.1347 -0.387447,0.4162 -0.86099,0.6258 -0.774748,0.3427 -2.197689,1.6225 -2.199999,1.9787 -5.06e-4,0.078 0.308281,0.2701 0.686188,0.4281 0.797395,0.3331 1.097619,0.2262 2.24453,-0.7995 0.712162,-0.6369 1.267445,-0.7603 1.415822,-0.3147 0.04035,0.1213 -0.320972,0.5037 -0.802943,0.8497 -1.007627,0.7237 -1.237098,1.3053 -0.786346,1.9933 0.397649,0.6069 0.534409,0.5994 1.768473,-0.097 1.2939,-0.7302 1.882326,-0.7428 2.243862,-0.048 0.150581,0.2895 0.498223,0.736 0.772538,0.9923 0.274316,0.2562 0.587285,0.7947 0.695488,1.1965 0.249795,0.9277 0.913263,1.3886 1.768033,1.2283 0.758758,-0.1425 1.980217,-1.5067 2.375123,-2.653 0.144452,-0.4192 0.38806,-1.0047 0.541353,-1.3012 0.15329,-0.2965 0.226975,-0.6738 0.163744,-0.8386 -0.06323,-0.1648 -0.05876,-0.5236 0.0099,-0.7973 0.114722,-0.4571 0.182748,-0.487 0.833957,-0.3667 0.389976,0.072 0.898425,0.3069 1.12989,0.5222 0.548452,0.5102 1.014424,0.3261 1.014424,-0.4008 0,-0.7526 0.175546,-1.1698 0.492164,-1.1698 0.492538,0 0.636662,0.681 0.521207,2.4631 -0.112857,1.742 -0.108093,1.7679 0.4289,2.3284 0.519542,0.5423 0.614331,0.5668 2.192074,0.5668 1.480887,0 1.735996,-0.055 2.501646,-0.5407 1.366835,-0.8668 2.549583,-1.2579 3.028707,-1.0015 0.674063,0.3608 0.487282,0.8839 -0.541648,1.517 -1.045568,0.6433 -1.513268,1.2791 -1.183534,1.6088 0.355328,0.3553 1.697554,-0.2053 2.78559,-1.1636 0.561056,-0.4941 1.654693,-1.2852 2.430306,-1.758 0.775611,-0.4728 1.754667,-1.1717 2.175678,-1.5532 1.053602,-0.9547 1.839952,-1.3189 2.847142,-1.3189 1.086763,0 1.462232,0.4381 1.913381,2.2329 0.180762,0.719 0.452689,1.5227 0.604278,1.7859 0.151591,0.2631 0.506354,0.952 0.788367,1.5309 0.28201,0.5788 0.846531,1.4347 1.254482,1.902 0.407955,0.4671 1.045728,1.3499 1.417278,1.9615 0.371549,0.6116 0.733898,1.1135 0.805217,1.1152 0.07132,0 0.421215,0.2599 0.777551,0.5741 0.776791,0.6846 0.849962,0.6921 1.368653,0.1405 z m -17.278183,-4.1497 c 0.919949,-0.6664 1.114103,-0.9365 0.857457,-1.1932 -0.126296,-0.1263 -0.310765,-0.1254 -0.547864,0 -0.196603,0.1062 -0.503145,0.2378 -0.681203,0.2924 -0.416461,0.1279 -0.990527,0.9996 -0.82967,1.2598 0.186407,0.3016 0.35619,0.2505 1.20128,-0.3617 z m -24.462613,-8.5123 c 0.238833,-0.2543 0.662034,-0.5194 0.940443,-0.5893 0.587134,-0.1474 0.790065,-0.4044 0.794158,-1.0057 0.004,-0.5863 -0.266156,-0.5432 -1.427101,0.2273 -1.320213,0.8764 -1.558265,1.1703 -1.249134,1.5429 0.320509,0.3862 0.43411,0.365 0.941634,-0.1752 z m 1.928899,-20.8141 c 0,-0.289 -0.710163,-2.5197 -1.103376,-3.466 -0.199932,-0.4812 -0.392475,-0.6908 -0.571559,-0.622 -0.14853,0.057 -0.425206,0.1036 -0.614834,0.1036 -0.554009,0 -0.610116,0.8966 -0.102879,1.644 0.238665,0.3517 0.494831,0.9653 0.569259,1.3636 0.07443,0.3982 0.224272,0.8318 0.332995,0.9633 0.252194,0.3052 1.490394,0.3164 1.490394,0.013 z m 33.535242,0.5281 c -0.392797,-0.36 -0.646926,-0.7218 -0.564731,-0.804 0.08219,-0.082 0.511217,0.2124 0.953383,0.6546 0.96024,0.9602 0.63327,1.0859 -0.388652,0.1494 z"
         id="path2897"
         sodipodi:nodetypes="csscccsssssssssssscccsssssssssssssssssssssssssssssssssssssssscccsscccscccssssssssssssscccssssssssssscccssssssssssssssssssccssscccsssccsscccsssssssssccssscccsccsssssccsssssssccsssssssscccsssssccscccccssssssssssssssssssssssssssssssssssssssssssssssssssssssssssssssssssssssssssssssssssssssssssssssssssssssssssssssssssssssccssssccssssccssssssccssc" />
      <path
         style="fill:#793f86"
         d="m -92.127479,2230.2145 c -1.665187,-0.2797 -2.208853,-0.9305 -1.555945,-1.8627 0.383505,-0.5475 0.924579,-0.578 0.754625,-0.042 -0.134681,0.4244 0.106004,0.4931 0.669843,0.1914 0.241628,-0.1294 0.532389,-0.1248 0.896421,0.014 0.399697,0.1525 0.731672,0.1421 1.285899,-0.04 0.697888,-0.2297 0.76561,-0.218 1.028028,0.1772 0.350012,0.5271 0.934072,0.5487 1.095402,0.04 0.155503,-0.4899 0.478421,-0.4971 0.478421,-0.01 0,0.6503 -0.805149,1.3732 -1.727895,1.5512 -1.012785,0.1954 -1.67889,0.1913 -2.924799,-0.018 z m 42.065317,-0.6975 c -0.31576,-0.043 -0.77809,-0.233 -1.027408,-0.4219 -0.372379,-0.282 -0.416905,-0.4114 -0.249414,-0.7243 0.154472,-0.2887 0.345507,-0.3602 0.788195,-0.2952 0.496547,0.073 0.584312,0.024 0.584312,-0.3248 0,-0.6074 0.56625,-0.7369 0.981304,-0.2244 0.225531,0.2786 0.470887,0.3902 0.698736,0.3178 0.528625,-0.1678 1.538722,0.9385 1.260909,1.381 -0.20907,0.3331 -1.692503,0.4756 -3.036634,0.2918 z m -50.564028,-1.9546 c -1.81545,-0.1743 -2.75334,-1.3582 -1.07598,-1.3582 0.38103,0 0.92371,-0.1758 1.24182,-0.4024 l 0.565036,-0.4023 0.224098,0.5937 c 0.260679,0.6906 0.620702,0.7451 1.516677,0.2295 0.348087,-0.2002 0.912763,-0.4224 1.254835,-0.4936 0.528177,-0.1099 0.621949,-0.075 0.621949,0.2327 0,0.4747 -0.883741,1.2821 -1.703035,1.5559 -0.681118,0.2277 -0.731339,0.2285 -2.6454,0.045 z m 30.936949,-0.7959 c -0.652062,-0.652 -0.409061,-0.9845 0.938177,-1.2838 1.161152,-0.2579 1.231605,-0.2523 1.638892,0.1303 0.988329,0.9285 2.359854,0.2084 2.863749,-1.5036 0.311751,-1.0592 0.694753,-1.2488 0.694753,-0.3438 0,0.9188 -1.070353,2.9926 -1.660455,3.2169 -0.258237,0.098 -1.282015,0.1786 -2.275066,0.1786 -1.568336,0 -1.857375,-0.052 -2.20005,-0.3946 z m 1.455351,-13.332 c -0.600278,-0.6455 -1.252215,-2.3167 -1.252215,-3.21 0,-0.4712 0.113578,-0.7167 0.403283,-0.8718 0.613146,-0.3281 0.818442,0.034 0.764752,1.3498 -0.04089,1.0018 0.01873,1.2352 0.444903,1.7418 0.860447,1.0226 0.525206,1.9427 -0.360723,0.9902 z m -15.661693,-2.0498 c -0.282659,-0.2827 -0.290301,-0.3963 -0.06327,-0.9396 0.142024,-0.3399 0.32189,-1.2125 0.399705,-1.9391 0.09745,-0.9101 0.314155,-1.6271 0.696402,-2.3044 0.30521,-0.5408 0.554925,-1.1164 0.554925,-1.2793 0,-0.1627 0.129173,-0.4031 0.287053,-0.5341 0.389207,-0.3231 0.86116,0.067 0.86116,0.7121 0,0.6302 0.521672,1.7465 1.121318,2.3995 0.435454,0.4743 0.462948,0.5917 0.268774,1.1483 -0.118966,0.341 -0.311336,0.9854 -0.427491,1.432 -0.251333,0.9664 -0.879985,1.3683 -2.382743,1.5234 -0.773739,0.079 -1.065661,0.032 -1.315831,-0.2188 z m 20.469494,0.1478 c -0.07017,-0.07 -0.127581,-0.3645 -0.127581,-0.6541 0,-0.2895 -0.0563,-0.6732 -0.125108,-0.8525 -0.110792,-0.2888 -0.163479,-0.2753 -0.460377,0.1184 -0.285701,0.3788 -0.380371,0.407 -0.640366,0.1912 -0.181293,-0.1504 -0.305101,-0.5484 -0.305101,-0.9805 0,-1.0264 -0.765783,-1.9193 -1.591587,-1.8557 -0.550682,0.042 -0.618815,-0.016 -0.783825,-0.6729 -0.163789,-0.652 -0.130018,-0.7723 0.360458,-1.2842 l 0.541177,-0.5649 -0.723464,0.1998 c -0.578762,0.1598 -0.779794,0.1434 -1.005101,-0.082 -0.517437,-0.5174 -0.123666,-1.018 1.151357,-1.4636 0.654405,-0.2287 1.577347,-0.6181 2.050985,-0.8654 1.532455,-0.7997 2.060141,-0.794 3.191187,0.035 1.214264,0.8898 1.547685,1.538 1.210299,2.3524 -0.130792,0.3159 -0.303987,0.5741 -0.38488,0.5741 -0.440972,0 -1.149765,2.2787 -1.622081,5.2149 -0.106035,0.6591 -0.417323,0.9087 -0.735992,0.59 z m -33.895441,-6.0267 c -0.689037,-0.7572 -0.868703,-1.0807 -0.770469,-1.3874 0.07046,-0.22 0.191088,-0.8126 0.268062,-1.3167 0.226364,-1.4827 1.110339,-1.952 1.541343,-0.8184 0.09943,0.2615 0.507192,0.6443 0.906132,0.8506 0.398938,0.2063 1.322342,0.9248 2.052006,1.5967 1.017609,0.9372 1.295682,1.3025 1.193676,1.5684 -0.10122,0.2638 -0.258136,0.3182 -0.656874,0.228 -1.494076,-0.3377 -2.499351,-0.3533 -2.938763,-0.046 -0.244822,0.1715 -0.501697,0.3118 -0.570834,0.3118 -0.06914,0 -0.530064,-0.4443 -1.024279,-0.9874 z m -4.44975,-10.9253 c -0.2188,-0.2396 -0.4532,-0.8481 -0.5283,-1.3716 -0.14507,-1.011 -0.44215,-1.5974 -1.26847,-2.5036 -0.2879,-0.3158 -0.61548,-0.9227 -0.72795,-1.3487 -0.2056,-0.7787 -0.79139,-1.4597 -1.81552,-2.1103 -0.58634,-0.3725 -1.07426,-1.3041 -1.07426,-2.0512 0,-0.2481 -0.38752,-0.9501 -0.86116,-1.5601 -0.47364,-0.6099 -0.86116,-1.1354 -0.86116,-1.1678 0,-0.033 -0.0889,-0.698 -0.19756,-1.4792 -0.13936,-1.002 -0.13669,-1.5804 0.009,-1.9639 0.17264,-0.4541 0.14215,-0.6308 -0.18518,-1.0735 -0.21551,-0.2915 -0.39039,-0.7703 -0.38862,-1.064 0.007,-1.1075 0.68167,-3.8063 1.09839,-4.3916 0.47925,-0.673 1.57861,-1.3733 3.12887,-1.9929 1.74693,-0.6982 2.0541,-0.755 2.37057,-0.4385 0.24289,0.2428 0.38932,0.2491 0.96478,0.041 0.55285,-0.1999 0.75171,-0.1996 1.07426,0 0.21771,0.1359 1.096938,0.2903 1.953838,0.343 0.8569,0.052 1.639812,0.1753 1.739802,0.2724 0.331382,0.322 1.304405,0.1832 1.905194,-0.2717 0.325694,-0.2467 0.964696,-0.507 1.420004,-0.5787 0.738325,-0.1162 0.909156,-0.066 1.579921,0.4653 0.566308,0.4486 0.976456,0.6072 1.66043,0.6421 0.980104,0.05 2.15777,0.6663 3.249685,1.7003 0.835424,0.791 0.977431,1.6365 0.467239,2.7818 -0.218457,0.4904 -0.571162,1.2791 -0.783788,1.7528 -0.212626,0.4736 -0.575194,1.0936 -0.805708,1.3777 -0.275945,0.3401 -0.425166,0.7977 -0.43683,1.3396 -0.01593,0.7399 -0.06826,0.8288 -0.518676,0.8811 -0.394411,0.046 -0.673331,-0.1374 -1.311377,-0.8612 -1.040899,-1.1807 -1.359828,-1.8214 -2.111979,-4.2423 -0.586487,-1.8878 -1.235735,-2.9894 -1.505064,-2.5536 -0.06685,0.1082 -0.376065,0.226 -0.687126,0.2619 -0.511523,0.059 -0.570139,0.1381 -0.613462,0.8297 -0.03874,0.6183 0.04352,0.8379 0.430093,1.1481 0.455692,0.3658 0.754934,1.21 1.221279,3.4456 0.08783,0.421 0.246783,1.0391 0.353238,1.3737 0.160465,0.5041 0.119411,0.7496 -0.240077,1.4352 -0.238502,0.4549 -0.483624,1.15 -0.544717,1.5445 -0.09071,0.5857 -0.04206,0.7543 0.265182,0.9187 0.363002,0.1943 0.352829,0.2432 -0.288672,1.3877 -0.812824,1.4501 -1.491353,2.1609 -2.533269,2.6534 -0.43719,0.2066 -0.935109,0.5307 -1.106485,0.7201 -0.290446,0.3209 -0.279692,0.3652 0.158428,0.6523 0.716445,0.4694 0.767541,0.9441 0.218276,2.0281 -0.512715,1.0118 -2.797179,3.457 -3.229729,3.457 -0.13759,0 -0.42714,-0.1938 -0.64344,-0.4306 z m 0.7093,-7.2242 c 0.57889,-0.2037 1.322515,-0.373 1.652495,-0.3765 0.425617,0 0.913566,-0.2644 1.679118,-0.8946 0.593532,-0.4887 1.039519,-0.9281 0.991085,-0.9766 -0.0816,-0.081 -1.337945,0.4887 -2.69606,1.2238 -1.130218,0.6117 -1.663008,0.8325 -2.009228,0.8325 -0.48614,0 -0.95699,0.1984 -0.95699,0.4032 0,0.2342 0.13037,0.2136 1.33958,-0.2118 z m -1.24955,-3.0527 c 0.1552,-0.2511 -1.5281,-1.7765 -2.26429,-2.0519 -1.17094,-0.438 -2.80758,-0.2448 -3.21404,0.3793 -0.13782,0.2116 0.2002,1.0893 0.4195,1.0893 0.0752,0 0.1884,-0.2583 0.25156,-0.5742 0.0816,-0.4081 0.2254,-0.574 0.49742,-0.574 0.23157,0 0.49981,0.2266 0.6795,0.574 0.37472,0.7247 0.95834,0.7961 0.78257,0.096 -0.20468,-0.8156 0.60525,-0.6125 1.5031,0.3768 0.77202,0.8507 1.12963,1.0328 1.34468,0.6849 z m 7.289023,-3.4722 c 0.144483,-0.2338 -0.412807,-0.8879 -0.598374,-0.7023 -0.158291,0.1583 0.09094,0.912 0.301573,0.912 0.09195,0 0.225508,-0.094 0.296801,-0.2097 z m -1.255248,-5.5028 c 0,-0.1966 -1.84848,-1.3681 -2.15878,-1.3681 -0.314282,0 0.271978,0.5458 1.138413,1.0598 0.818698,0.4857 1.020367,0.5467 1.020367,0.3083 z m -6.198165,-0.9876 c 0.137,-0.4641 0.2196,-0.8732 0.18355,-0.9092 -0.16006,-0.1601 -0.87467,1.0096 -0.87467,1.4316 0,0.7308 0.41332,0.4184 0.69112,-0.5224 z m 20.607104,12.2915 c -0.179976,-0.2861 -0.589198,-0.7503 -0.909383,-1.0317 -0.482961,-0.4245 -0.546052,-0.5711 -0.370274,-0.8612 0.339965,-0.5608 0.745742,-0.509 1.486771,0.1898 0.542188,0.5115 0.69346,0.8013 0.69346,1.3287 0,0.8851 -0.459154,1.076 -0.900574,0.3744 z m 7.69417,-1.9573 c -0.752092,-0.176 -2.324168,-1.6735 -2.047304,-1.9504 0.281074,-0.2811 1.734108,-0.032 2.487894,0.4264 0.529683,0.3221 0.601492,0.453 0.495323,0.9034 -0.167416,0.7103 -0.267628,0.7768 -0.935913,0.6206 z m -8.943019,-1.1401 c -1.081485,-0.8507 -0.788269,-2.4103 0.376253,-2.0014 0.646282,0.2271 1.341223,1.5346 1.056886,1.9885 -0.279231,0.4459 -0.87589,0.4512 -1.433139,0.013 z m 15.161421,0.1041 c -1.162466,-0.3211 -1.721231,-0.6402 -1.721231,-0.983 0,-0.3043 0.733603,-0.6582 1.364367,-0.6582 0.370971,0 2.271359,1.4809 2.271548,1.7701 1.4e-4,0.208 -0.919054,0.1462 -1.914684,-0.1289 z m 7.40189,-2.2062 c -0.600771,-0.4548 -0.858688,-0.5351 -1.435267,-0.4473 -0.386589,0.059 -0.847184,0.2323 -1.023545,0.3851 -0.438024,0.3797 -0.902509,0.2504 -1.374649,-0.3825 l -0.396283,-0.5313 0.471687,-0.8678 c 0.259428,-0.4773 0.794623,-1.1675 1.189321,-1.5337 0.394698,-0.3662 0.717634,-0.7843 0.717634,-0.9292 0,-0.5822 0.535365,-0.3768 1.626635,0.6242 2.163858,1.985 2.742319,3.3835 1.636139,3.9555 -0.310532,0.1606 -0.590408,0.2896 -0.621949,0.2867 -0.03154,0 -0.386915,-0.2549 -0.789723,-0.5597 z"
         id="path2893" />
      <path
         id="path2997"
         d="m -90.403275,2180.1065 c -1.046413,-1.0892 -1.842962,-2.4772 -2.543394,-4.4318 -0.237023,-0.6614 -0.681696,-1.7611 -0.988158,-2.4437 -0.78831,-1.7558 -0.866303,-2.0096 -0.771904,-2.5128 0.07499,-0.3997 0.107758,-0.4306 0.383501,-0.3614 0.165828,0.041 0.449083,0.015 0.629451,-0.06 0.299147,-0.1239 0.399218,-0.09 1.139528,0.3834 0.765375,0.4897 0.873229,0.5239 1.894211,0.6009 0.832242,0.063 1.193209,0.1462 1.560771,0.3615 0.84853,0.4969 1.683076,1.2258 2.040961,1.7825 0.288347,0.4486 0.340933,0.6351 0.301879,1.0704 -0.06094,0.6791 -0.93244,2.5069 -1.662872,3.4875 -0.612265,0.822 -0.854148,1.3662 -0.86209,1.9396 -0.01261,0.9107 -0.367855,0.969 -1.121883,0.1841 l -10e-7,0 z"
         style="fill:#16101b;fill-opacity:1" />
      <path
         id="path2999"
         d="m -105.61221,2186.5672 c -0.24423,-0.09 -0.54533,-0.2547 -0.6691,-0.3667 -0.27932,-0.2528 -0.29192,-0.7004 -0.024,-0.8504 0.17838,-0.1 0.16548,-0.1288 -0.11413,-0.2562 -0.34227,-0.156 -0.37828,-0.2347 -0.4932,-1.0789 -0.0692,-0.5086 -0.0561,-0.5574 0.13568,-0.5025 1.20293,0.3452 1.70666,0.4433 1.98197,0.3859 1.11741,-0.2333 1.05046,-0.241 1.2489,0.1428 0.24803,0.4796 0.63394,0.5585 1.44312,0.2953 0.80574,-0.2622 0.94939,-0.3617 0.94939,-0.6576 0,-0.173 -0.051,-0.2107 -0.20365,-0.1504 -0.68447,0.2707 -0.88247,0.2165 -1.71762,-0.4704 -1.48742,-1.2232 -2.54753,-1.5174 -4.16864,-1.1568 -0.49756,0.1107 -0.93601,0.17 -0.9743,0.1317 -0.0383,-0.038 0.0692,-0.1789 0.23903,-0.3125 0.36737,-0.289 0.40647,-0.6876 0.076,-0.774 -0.30624,-0.081 -0.29357,-0.2187 0.0582,-0.6368 0.32923,-0.3913 0.37679,-0.677 0.11272,-0.677 -0.45973,0 -0.2349,-0.7214 0.37433,-1.2011 0.32069,-0.2526 0.36147,-0.6615 0.0657,-0.6589 -0.29323,0 -0.43038,0.1252 -0.59461,0.5317 -0.0797,0.1975 -0.30412,0.5333 -0.49856,0.7462 -0.3824,0.4186 -0.55965,0.3485 -0.56326,-0.2232 -9.4e-4,-0.1549 -0.16593,-0.6187 -0.36656,-1.0305 -0.32906,-0.6754 -0.35803,-0.8209 -0.29591,-1.4863 0.0916,-0.9814 0.51825,-2.7835 0.80402,-3.3964 0.3525,-0.7559 1.01825,-1.3348 2.20646,-1.9185 1.51759,-0.7455 3.1194,-1.1545 3.1194,-0.7964 0,0.06 -0.45734,0.5179 -1.01631,1.0182 -1.58626,1.4197 -3.46512,3.2744 -3.39162,3.3479 0.0366,0.037 0.40485,-0.023 0.81829,-0.1305 0.94875,-0.2489 1.14541,-0.1813 1.14774,0.3941 9.4e-4,0.242 0.0526,0.5185 0.11458,0.6146 0.0907,0.1403 0.11316,0.1217 0.11459,-0.095 0.004,-0.6252 0.48673,-0.9423 0.821,-0.5395 0.31624,0.381 0.61598,0.1483 1.15389,-0.8957 0.61772,-1.199 0.5808,-1.3102 -0.47455,-1.4296 -0.38965,-0.044 -0.67718,-0.1114 -0.63894,-0.1497 0.0383,-0.038 0.5875,-0.1096 1.22061,-0.1587 1.00315,-0.078 1.25492,-0.1435 1.95892,-0.5122 l 0.80783,-0.4233 1.007404,0.1409 c 0.769355,0.1077 1.19828,0.1094 1.815201,0.01 0.444294,-0.073 0.884649,-0.104 0.978568,-0.068 0.208744,0.08 0.784253,1.3305 0.814051,1.7687 0.02839,0.4175 -0.273193,0.4246 -0.471362,0.011 -0.201108,-0.4196 -0.862118,-0.7064 -1.779678,-0.7721 -0.577755,-0.041 -0.862571,-0.01 -1.149464,0.1424 -0.44551,0.2304 -0.40117,0.3106 0.259998,0.4701 0.299396,0.072 0.485709,0.1834 0.485709,0.29 0,0.1411 -0.163568,0.166 -0.888256,0.1358 l -0.888261,-0.037 -0.43124,0.4313 c -0.56899,0.569 -0.87498,1.0859 -0.8755,1.479 -3.4e-4,0.2426 0.0559,0.3201 0.23229,0.3201 0.13261,0 0.23273,-0.078 0.23273,-0.1803 0,-0.3563 0.36416,-0.8736 0.81557,-1.1586 0.58543,-0.3695 0.726963,-0.3645 1.318178,0.047 0.266467,0.1854 1.008135,0.6359 1.648148,1.0012 1.135028,0.6477 1.175112,0.6606 1.629124,0.5279 0.814459,-0.2382 0.91359,-0.217 1.067748,0.2285 0.150264,0.4341 0.202405,2.2893 0.08137,2.8945 -0.07795,0.3898 -0.253988,0.4503 -0.633979,0.2183 -0.210143,-0.1284 -0.27825,-0.1009 -0.580253,0.2345 -0.368659,0.4095 -0.449532,0.8921 -0.167613,1.0003 0.096,0.037 0.175061,0.1602 0.175684,0.2743 6.27e-4,0.1139 0.131538,0.4873 0.290915,0.8297 0.345391,0.742 0.381393,1.1249 0.09544,1.0151 -0.106891,-0.041 -0.424549,-0.1261 -0.705913,-0.1892 -0.281367,-0.063 -0.664551,-0.2277 -0.851523,-0.3659 -0.504098,-0.3727 -0.529933,-0.1881 -0.05985,0.4278 0.35425,0.464 0.415239,0.6337 0.415239,1.1547 0,0.6906 -0.168153,0.9123 -1.013565,1.3365 -0.626128,0.3142 -0.748286,0.3092 -1.081021,-0.045 -0.411419,-0.438 -0.968083,-0.3661 -1.596543,0.206 -0.24374,0.222 -0.35334,0.2306 -1.93827,0.1536 -1.0695,-0.052 -1.7057,-0.04 -1.75087,0.033 -0.10804,0.1749 0.0429,0.2264 1.21777,0.4165 0.59644,0.097 1.13294,0.2239 1.19222,0.2832 0.43919,0.4391 -2.7309,1.0113 -3.67759,0.6637 l 0,0 z m 0.79318,-1.4652 c 0.0438,-0.071 -0.12446,-0.1157 -0.42951,-0.1146 -0.36662,0 -0.4545,0.032 -0.32687,0.1146 0.22841,0.1476 0.66515,0.1476 0.75638,0 z m 4.859738,-3.1323 c 0.199015,-0.075 0.06843,-0.1152 -0.554198,-0.1708 -0.44802,-0.04 -1.02403,-0.1283 -1.28003,-0.1962 -0.256,-0.067 -0.67492,-0.1653 -0.93093,-0.2167 -0.256,-0.052 -0.75347,-0.2565 -1.10547,-0.4558 -0.35201,-0.1993 -0.71857,-0.3611 -0.81456,-0.3596 -0.2465,0 0.6204,0.747 1.14354,0.9803 0.23507,0.1047 0.61067,0.2946 0.83468,0.4217 0.35239,0.2002 0.54469,0.2222 1.42695,0.1633 0.56081,-0.037 1.13682,-0.1122 1.280019,-0.1662 l -1e-6,0 z m 0.202178,-0.9483 c 0,-0.2163 -0.572766,-0.8852 -1.028146,-1.2009 -0.64825,-0.4491 -0.85367,-0.3651 -0.28097,0.1152 0.272,0.228 0.49455,0.4826 0.49455,0.5659 0,0.1743 -0.35797,0.291 -0.89962,0.2932 -0.30462,0 -0.38982,-0.053 -0.44898,-0.2893 -0.0973,-0.3878 -0.54698,-0.4144 -0.49225,-0.029 0.0599,0.4217 0.70713,0.6686 1.75358,0.6689 0.56136,0 0.901836,-0.047 0.901836,-0.124 l 0,0 z m 3.083696,-0.2832 c 0,-0.064 -0.631132,-0.4305 -1.402518,-0.8145 -0.771387,-0.384 -1.8612,-0.9786 -2.421814,-1.3213 -0.56061,-0.3427 -1.04556,-0.5969 -1.07767,-0.5648 -0.0321,0.032 0.16751,0.2426 0.4436,0.4677 0.27608,0.225 0.78997,0.6509 1.141973,0.9464 0.352007,0.2955 0.797107,0.6011 0.98911,0.6792 0.192005,0.078 0.61092,0.2827 0.930928,0.4547 0.576185,0.3098 1.396391,0.3995 1.396391,0.1526 z m -0.517915,-1.7164 c 0.299414,-0.2485 0.456256,-0.4754 0.457635,-0.6619 l 0.0021,-0.2838 -0.237263,0.2547 c -0.130498,0.14 -0.311932,0.2547 -0.403188,0.2547 -0.183044,0 -0.406842,0.3478 -0.406842,0.6323 0,0.2564 0.07138,0.2325 0.587559,-0.196 l 10e-7,0 z m -7.152187,-0.64 c 0.0433,-0.24 0.12609,-0.528 0.18391,-0.64 0.14644,-0.2836 0.64395,-0.264 0.73697,0.029 0.0949,0.2988 0.52365,0.3128 0.52365,0.017 0,-0.2759 -0.48366,-0.8 -0.87587,-0.9491 -0.43778,-0.1664 -0.75325,-0.1416 -0.75325,0.06 0,0.096 0.0524,0.1745 0.11636,0.1745 0.064,0 0.11636,0.079 0.11636,0.1745 0,0.2599 -0.3613,0.2112 -0.43174,-0.058 -0.0373,-0.1425 -0.15873,-0.2327 -0.31351,-0.2327 -0.29729,0 -1.09913,0.6341 -0.9692,0.7664 0.049,0.05 0.15118,0.029 0.22691,-0.047 0.25038,-0.2503 0.55662,-0.164 0.55662,0.1569 0,0.162 0.0825,0.3263 0.18346,0.365 0.1009,0.038 0.23052,0.1941 0.28804,0.3454 0.15298,0.4024 0.32145,0.3364 0.41129,-0.1613 l 0,0 z m 6.401711,-0.5411 c 0.440708,-0.4406 0.474638,-0.5576 0.222579,-0.7668 -0.254024,-0.2108 -0.494332,-0.067 -0.695999,0.4153 -0.350392,0.8385 -0.157121,0.9821 0.473421,0.3515 l -1e-6,0 z m -9.611821,-0.5935 c 0,-0.096 -0.046,-0.1745 -0.10212,-0.1745 -0.0562,0 -0.1673,0.079 -0.24698,0.1745 -0.12103,0.1459 -0.10423,0.1746 0.10212,0.1746 0.14196,0 0.24698,-0.074 0.24698,-0.1746 z m 8.470583,-1.1823 c 0.483889,0.105 0.904825,0.1659 0.935409,0.1354 0.08169,-0.081 -0.978374,-0.5306 -1.423595,-0.6029 -0.494907,-0.081 -1.116807,0.2289 -1.116807,0.5553 0,0.2349 0.004,0.2347 0.3626,-0.021 0.359159,-0.2556 0.370919,-0.2563 1.242393,-0.067 l 0,0 z m -8.796713,-0.3752 0.37573,-0.3357 -0.3976,-0.2418 c -0.21868,-0.133 -0.41305,-0.2264 -0.43195,-0.2075 -0.0189,0.019 -0.08,0.2788 -0.13582,0.5775 -0.12307,0.6588 0.0258,0.7112 0.58964,0.2075 z m 5.2405,-0.3587 c 0.21018,-0.1654 0.31193,-0.3859 0.36595,-0.7931 0.0991,-0.7474 0.53137,-1.386 1.30278,-1.9252 0.64172,-0.4484 0.75452,-0.6202 0.4771,-0.7266 -0.26556,-0.1019 -0.68888,0.1371 -1.55783,0.8794 -1.00356,0.8574 -1.3132,1.3184 -1.3132,1.9551 0,0.8665 0.19303,1.029 0.7252,0.6104 l 0,0 z m -4.53421,-2.1293 c 0.49617,-0.3858 0.71455,-0.7249 0.62206,-0.966 -0.078,-0.2032 -0.60719,-0.033 -0.8499,0.2742 -0.27519,0.3477 -0.61044,1.0404 -0.53838,1.1125 0.084,0.084 0.19765,0.021 0.76622,-0.4207 l 0,0 z"
         style="fill:#16101b;fill-opacity:1" />
      <path
         id="path2522"
         d="m -104.99723,2174.1202 c -0.15104,-0.3091 -0.3093,-0.4583 -0.51537,-0.4859 -0.47473,-0.064 -0.55024,-0.2351 -0.16807,-0.3818 0.39197,-0.1504 1.05269,-0.08 1.31904,0.1415 0.2734,0.2269 0.0129,1.1722 -0.32304,1.1722 -0.052,0 -0.19268,-0.2007 -0.31256,-0.446 l 0,0 z"
         style="fill:#16101b;fill-opacity:1" />
      <path
         sodipodi:nodetypes="csssssssscc"
         id="path2911"
         d="m -103.53601,2183.7424 c -1.25821,-1.1773 -1.64571,-1.355 -1.64571,-0.5645 0,0.2278 0.0396,0.4579 0.007,0.4908 -0.10986,0.111 -0.404,0.034 -0.79356,-0.6098 -0.49218,-0.813 -0.8331,-0.5661 -1.15327,0.01 -0.121,0.2167 -0.13866,0.6316 -0.19563,0.6508 -0.13189,0.044 -0.49598,-0.582 -0.49598,-0.8807 0,-0.7487 1.8004,-1.0934 3.14193,-0.6016 0.96463,0.3537 2.67777,1.8255 2.3777,2.0917 -0.2177,0.1932 -0.3448,0.3187 -1.07672,-0.4184 l -0.1657,-0.1657 z"
         style="fill:#ff00cc;fill-opacity:1" />
    </g>
  </g>
</svg>
