<?xml version="1.0" encoding="UTF-8" standalone="no"?>
<!-- Created with Inkscape (http://www.inkscape.org/) -->

<svg
   xmlns:dc="http://purl.org/dc/elements/1.1/"
   xmlns:cc="http://creativecommons.org/ns#"
   xmlns:rdf="http://www.w3.org/1999/02/22-rdf-syntax-ns#"
   xmlns:svg="http://www.w3.org/2000/svg"
   xmlns="http://www.w3.org/2000/svg"
   xmlns:xlink="http://www.w3.org/1999/xlink"
   xmlns:sodipodi="http://sodipodi.sourceforge.net/DTD/sodipodi-0.dtd"
   xmlns:inkscape="http://www.inkscape.org/namespaces/inkscape"
   width="64"
   height="64"
   id="svg2495"
   sodipodi:version="0.32"
   inkscape:version="0.47 r22583"
   inkscape:export-filename="percy 2.png"
   inkscape:export-xdpi="90"
   inkscape:export-ydpi="90"
   sodipodi:docname="persy_untracked.svg"
   inkscape:output_extension="org.inkscape.output.svg.inkscape"
   version="1.0">
  <sodipodi:namedview
     id="base"
     pagecolor="#ffffff"
     bordercolor="#666666"
     borderopacity="1.0"
     inkscape:pageopacity="0.0"
     inkscape:pageshadow="2"
     inkscape:zoom="7.2407734"
     inkscape:cx="47.107735"
     inkscape:cy="25.332201"
     inkscape:document-units="px"
     inkscape:current-layer="layer1"
     showgrid="false"
     inkscape:window-width="1440"
     inkscape:window-height="827"
     inkscape:window-x="0"
     inkscape:window-y="25"
     inkscape:window-maximized="0" />
  <defs
     id="defs2497">
    <linearGradient
       id="linearGradient3176">
      <stop
         id="stop3178"
         offset="0"
         style="stop-color:#a2a2a2;stop-opacity:1;" />
      <stop
         id="stop3180"
         offset="1"
         style="stop-color:#c2c2c2;stop-opacity:1;" />
    </linearGradient>
    <inkscape:perspective
       id="perspective2503"
       inkscape:persp3d-origin="372.04724 : 350.78739 : 1"
       inkscape:vp_z="744.09448 : 526.18109 : 1"
       inkscape:vp_y="0 : 1000 : 0"
       inkscape:vp_x="0 : 526.18109 : 1"
       sodipodi:type="inkscape:persp3d" />
    <linearGradient
       gradientUnits="userSpaceOnUse"
       y2="1565.7361"
       x2="162.55066"
       y1="1565.7361"
       x1="802.89124"
       id="linearGradient3182"
       xlink:href="#linearGradient3176"
       inkscape:collect="always" />
    <linearGradient
       y2="1565.7361"
       x2="162.55066"
       y1="1565.7361"
       x1="802.89124"
       gradientUnits="userSpaceOnUse"
       id="linearGradient3213"
       xlink:href="#linearGradient3176"
       inkscape:collect="always" />
    <linearGradient
       y2="1565.7361"
       x2="162.55066"
       y1="1565.7361"
       x1="802.89124"
       gradientUnits="userSpaceOnUse"
       id="linearGradient3213-518"
       xlink:href="#linearGradient3176-734"
       inkscape:collect="always" />
    <linearGradient
       id="linearGradient3176-734">
      <stop
         id="stop6653"
         offset="0"
         style="stop-color:#aaaaaa;stop-opacity:1;" />
      <stop
         id="stop6655"
         offset="1"
         style="stop-color:#c8c8c8;stop-opacity:1;" />
    </linearGradient>
    <linearGradient
       y2="1565.7361"
       x2="162.55066"
       y1="1565.7361"
       x1="802.89124"
       gradientUnits="userSpaceOnUse"
       id="linearGradient3213-518-745"
       xlink:href="#linearGradient3176-734-748"
       inkscape:collect="always" />
    <linearGradient
       id="linearGradient3176-734-748">
      <stop
         id="stop6704"
         offset="0"
         style="stop-color:#b1b1b1;stop-opacity:1;" />
      <stop
         id="stop6706"
         offset="1"
         style="stop-color:#cecece;stop-opacity:1;" />
    </linearGradient>
    <linearGradient
       y2="1565.7361"
       x2="162.55066"
       y1="1565.7361"
       x1="802.89124"
       gradientUnits="userSpaceOnUse"
       id="linearGradient3213-518-745-539"
       xlink:href="#linearGradient3176-734-748-342"
       inkscape:collect="always" />
    <linearGradient
       id="linearGradient3176-734-748-342">
      <stop
         id="stop6762"
         offset="0"
         style="stop-color:#aeaeae;stop-opacity:1;" />
      <stop
         id="stop6764"
         offset="1"
         style="stop-color:#cfcfcf;stop-opacity:1;" />
    </linearGradient>
    <linearGradient
       y2="1565.7361"
       x2="162.55066"
       y1="1565.7361"
       x1="802.89124"
       gradientUnits="userSpaceOnUse"
       id="linearGradient3213-518-745-539-243"
       xlink:href="#linearGradient3176-734-748-342-116"
       inkscape:collect="always" />
    <linearGradient
       id="linearGradient3176-734-748-342-116">
      <stop
         id="stop6828"
         offset="0"
         style="stop-color:#aaaaaa;stop-opacity:1;" />
      <stop
         id="stop6830"
         offset="1"
         style="stop-color:#cdcdcd;stop-opacity:1;" />
    </linearGradient>
    <linearGradient
       y2="1565.7361"
       x2="162.55066"
       y1="1565.7361"
       x1="802.89124"
       gradientUnits="userSpaceOnUse"
       id="linearGradient3213-518-745-539-243-423"
       xlink:href="#linearGradient3176-734-748-342-116-658"
       inkscape:collect="always" />
    <linearGradient
       id="linearGradient3176-734-748-342-116-658">
      <stop
         id="stop6902"
         offset="0"
         style="stop-color:#a7a7a7;stop-opacity:1;" />
      <stop
         id="stop6904"
         offset="1"
         style="stop-color:#cacaca;stop-opacity:1;" />
    </linearGradient>
    <linearGradient
       y2="1565.7361"
       x2="162.55066"
       y1="1565.7361"
       x1="802.89124"
       gradientUnits="userSpaceOnUse"
       id="linearGradient3213-518-745-539-243-423-182"
       xlink:href="#linearGradient3176-734-748-342-116-658-183"
       inkscape:collect="always" />
    <linearGradient
       id="linearGradient3176-734-748-342-116-658-183">
      <stop
         id="stop6984"
         offset="0"
         style="stop-color:#b5b5b5;stop-opacity:1;" />
      <stop
         id="stop6986"
         offset="1"
         style="stop-color:#cbcbcb;stop-opacity:1;" />
    </linearGradient>
    <linearGradient
       y2="1565.7361"
       x2="162.55066"
       y1="1565.7361"
       x1="802.89124"
       gradientUnits="userSpaceOnUse"
       id="linearGradient3213-518-745-539-243-423-182-462"
       xlink:href="#linearGradient3176-734-748-342-116-658-183-116"
       inkscape:collect="always" />
    <linearGradient
       id="linearGradient3176-734-748-342-116-658-183-116">
      <stop
         id="stop7074"
         offset="0"
         style="stop-color:#c4c4c4;stop-opacity:1;" />
      <stop
         id="stop7076"
         offset="1"
         style="stop-color:#d7d7d7;stop-opacity:1;" />
    </linearGradient>
    <linearGradient
       y2="1565.7361"
       x2="162.55066"
       y1="1565.7361"
       x1="802.89124"
       gradientUnits="userSpaceOnUse"
       id="linearGradient3213-518-745-539-243-423-182-462-947"
       xlink:href="#linearGradient3176-734-748-342-116-658-183-116-103"
       inkscape:collect="always" />
    <linearGradient
       id="linearGradient3176-734-748-342-116-658-183-116-103">
      <stop
         id="stop7172"
         offset="0"
         style="stop-color:#d3d3d3;stop-opacity:1;" />
      <stop
         id="stop7174"
         offset="1"
         style="stop-color:#e2e2e2;stop-opacity:1;" />
    </linearGradient>
    <linearGradient
       y2="1565.7361"
       x2="162.55066"
       y1="1565.7361"
       x1="802.89124"
       gradientUnits="userSpaceOnUse"
       id="linearGradient3213-518-745-539-243-423-182-462-947-961"
       xlink:href="#linearGradient3176-734-748-342-116-658-183-116-103-544"
       inkscape:collect="always" />
    <linearGradient
       id="linearGradient3176-734-748-342-116-658-183-116-103-544">
      <stop
         id="stop7278"
         offset="0"
         style="stop-color:#d6d6d6;stop-opacity:1;" />
      <stop
         id="stop7280"
         offset="1"
         style="stop-color:#eeeeee;stop-opacity:1;" />
    </linearGradient>
    <linearGradient
       y2="1565.7361"
       x2="162.55066"
       y1="1565.7361"
       x1="802.89124"
       gradientUnits="userSpaceOnUse"
       id="linearGradient3213-518-745-539-243-423-182-462-947-961-883"
       xlink:href="#linearGradient3176-734-748-342-116-658-183-116-103-544-940"
       inkscape:collect="always" />
    <linearGradient
       id="linearGradient3176-734-748-342-116-658-183-116-103-544-940">
      <stop
         id="stop7392"
         offset="0"
         style="stop-color:#cecece;stop-opacity:1;" />
      <stop
         id="stop7394"
         offset="1"
         style="stop-color:#ececec;stop-opacity:1;" />
    </linearGradient>
    <linearGradient
       y2="1565.7361"
       x2="162.55066"
       y1="1565.7361"
       x1="802.89124"
       gradientUnits="userSpaceOnUse"
       id="linearGradient3213-518-745-539-243-423-182-462-947-961-883-365"
       xlink:href="#linearGradient3176-734-748-342-116-658-183-116-103-544-940-937"
       inkscape:collect="always" />
    <linearGradient
       id="linearGradient3176-734-748-342-116-658-183-116-103-544-940-937">
      <stop
         id="stop7514"
         offset="0"
         style="stop-color:#c5c5c5;stop-opacity:1;" />
      <stop
         id="stop7516"
         offset="1"
         style="stop-color:#e6e6e6;stop-opacity:1;" />
    </linearGradient>
    <linearGradient
       y2="1565.7361"
       x2="162.55066"
       y1="1565.7361"
       x1="802.89124"
       gradientUnits="userSpaceOnUse"
       id="linearGradient3213-518-745-539-243-423-182-462-947-961-883-365-96"
       xlink:href="#linearGradient3176-734-748-342-116-658-183-116-103-544-940-937-495"
       inkscape:collect="always" />
    <linearGradient
       id="linearGradient3176-734-748-342-116-658-183-116-103-544-940-937-495">
      <stop
         id="stop7644"
         offset="0"
         style="stop-color:#c1c1c1;stop-opacity:1;" />
      <stop
         id="stop7646"
         offset="1"
         style="stop-color:#e0e0e0;stop-opacity:1;" />
    </linearGradient>
    <linearGradient
       y2="1565.7361"
       x2="162.55066"
       y1="1565.7361"
       x1="802.89124"
       gradientUnits="userSpaceOnUse"
       id="linearGradient3213-518-745-539-243-423-182-462-947-961-883-365-96-859"
       xlink:href="#linearGradient3176-734-748-342-116-658-183-116-103-544-940-937-495-352"
       inkscape:collect="always" />
    <linearGradient
       id="linearGradient3176-734-748-342-116-658-183-116-103-544-940-937-495-352">
      <stop
         id="stop7782"
         offset="0"
         style="stop-color:#c4c4c4;stop-opacity:1;" />
      <stop
         id="stop7784"
         offset="1"
         style="stop-color:#dedede;stop-opacity:1;" />
    </linearGradient>
    <linearGradient
       y2="1565.7361"
       x2="162.55066"
       y1="1565.7361"
       x1="802.89124"
       gradientUnits="userSpaceOnUse"
       id="linearGradient3213-518-745-539-243-423-182-462-947-961-883-365-96-859-607"
       xlink:href="#linearGradient3176-734-748-342-116-658-183-116-103-544-940-937-495-352-321"
       inkscape:collect="always" />
    <linearGradient
       id="linearGradient3176-734-748-342-116-658-183-116-103-544-940-937-495-352-321">
      <stop
         id="stop7928"
         offset="0"
         style="stop-color:#c7c7c7;stop-opacity:1;" />
      <stop
         id="stop7930"
         offset="1"
         style="stop-color:#e0e0e0;stop-opacity:1;" />
    </linearGradient>
    <linearGradient
       y2="1565.7361"
       x2="162.55066"
       y1="1565.7361"
       x1="802.89124"
       gradientUnits="userSpaceOnUse"
       id="linearGradient3213-518-745-539-243-423-182-462-947-961-883-365-96-859-607-672"
       xlink:href="#linearGradient3176-734-748-342-116-658-183-116-103-544-940-937-495-352-321-825"
       inkscape:collect="always" />
    <linearGradient
       id="linearGradient3176-734-748-342-116-658-183-116-103-544-940-937-495-352-321-825">
      <stop
         id="stop8082"
         offset="0"
         style="stop-color:#cacaca;stop-opacity:1;" />
      <stop
         id="stop8084"
         offset="1"
         style="stop-color:#e2e2e2;stop-opacity:1;" />
    </linearGradient>
    <linearGradient
       y2="1565.7361"
       x2="162.55066"
       y1="1565.7361"
       x1="802.89124"
       gradientUnits="userSpaceOnUse"
       id="linearGradient3213-518-745-539-243-423-182-462-947-961-883-365-96-859-607-672-33"
       xlink:href="#linearGradient3176-734-748-342-116-658-183-116-103-544-940-937-495-352-321-825-596"
       inkscape:collect="always" />
    <linearGradient
       id="linearGradient3176-734-748-342-116-658-183-116-103-544-940-937-495-352-321-825-596">
      <stop
         id="stop8244"
         offset="0"
         style="stop-color:#bbbbbb;stop-opacity:1;" />
      <stop
         id="stop8246"
         offset="1"
         style="stop-color:#e4e4e4;stop-opacity:1;" />
    </linearGradient>
    <linearGradient
       y2="1565.7361"
       x2="162.55066"
       y1="1565.7361"
       x1="802.89124"
       gradientUnits="userSpaceOnUse"
       id="linearGradient3213-518-745-539-243-423-182-462-947-961-883-365-96-859-607-672-33-327"
       xlink:href="#linearGradient3176-734-748-342-116-658-183-116-103-544-940-937-495-352-321-825-596-136"
       inkscape:collect="always" />
    <linearGradient
       id="linearGradient3176-734-748-342-116-658-183-116-103-544-940-937-495-352-321-825-596-136">
      <stop
         id="stop8414"
         offset="0"
         style="stop-color:#ababab;stop-opacity:1;" />
      <stop
         id="stop8416"
         offset="1"
         style="stop-color:#d7d7d7;stop-opacity:1;" />
    </linearGradient>
    <linearGradient
       y2="1565.7361"
       x2="162.55066"
       y1="1565.7361"
       x1="802.89124"
       gradientUnits="userSpaceOnUse"
       id="linearGradient3213-518-745-539-243-423-182-462-947-961-883-365-96-859-607-672-33-327-163"
       xlink:href="#linearGradient3176-734-748-342-116-658-183-116-103-544-940-937-495-352-321-825-596-136-941"
       inkscape:collect="always" />
    <linearGradient
       id="linearGradient3176-734-748-342-116-658-183-116-103-544-940-937-495-352-321-825-596-136-941">
      <stop
         id="stop8592"
         offset="0"
         style="stop-color:#9b9b9b;stop-opacity:1;" />
      <stop
         id="stop8594"
         offset="1"
         style="stop-color:#cbcbcb;stop-opacity:1;" />
    </linearGradient>
    <linearGradient
       y2="1565.7361"
       x2="162.55066"
       y1="1565.7361"
       x1="802.89124"
       gradientUnits="userSpaceOnUse"
       id="linearGradient3213-518-745-539-243-423-182-462-947-961-883-365-96-859-607-672-33-327-163-728"
       xlink:href="#linearGradient3176-734-748-342-116-658-183-116-103-544-940-937-495-352-321-825-596-136-941-902"
       inkscape:collect="always" />
    <linearGradient
       id="linearGradient3176-734-748-342-116-658-183-116-103-544-940-937-495-352-321-825-596-136-941-902">
      <stop
         id="stop8778"
         offset="0"
         style="stop-color:#a8a8a8;stop-opacity:1;" />
      <stop
         id="stop8780"
         offset="1"
         style="stop-color:#cccccc;stop-opacity:1;" />
    </linearGradient>
    <linearGradient
       y2="1565.7361"
       x2="162.55066"
       y1="1565.7361"
       x1="802.89124"
       gradientUnits="userSpaceOnUse"
       id="linearGradient3213-518-745-539-243-423-182-462-947-961-883-365-96-859-607-672-33-327-163-728-402"
       xlink:href="#linearGradient3176-734-748-342-116-658-183-116-103-544-940-937-495-352-321-825-596-136-941-902-216"
       inkscape:collect="always" />
    <linearGradient
       id="linearGradient3176-734-748-342-116-658-183-116-103-544-940-937-495-352-321-825-596-136-941-902-216">
      <stop
         id="stop8972"
         offset="0"
         style="stop-color:#c2c2c2;stop-opacity:1;" />
      <stop
         id="stop8974"
         offset="1"
         style="stop-color:#e4e4e4;stop-opacity:1;" />
    </linearGradient>
    <linearGradient
       y2="1565.7361"
       x2="162.55066"
       y1="1565.7361"
       x1="802.89124"
       gradientUnits="userSpaceOnUse"
       id="linearGradient3213-518-745-539-243-423-182-462-947-961-883-365-96-859-607-672-33-327-163-728-402-911"
       xlink:href="#linearGradient3176-734-748-342-116-658-183-116-103-544-940-937-495-352-321-825-596-136-941-902-216-541"
       inkscape:collect="always" />
    <linearGradient
       id="linearGradient3176-734-748-342-116-658-183-116-103-544-940-937-495-352-321-825-596-136-941-902-216-541">
      <stop
         id="stop2835"
         offset="0"
         style="stop-color:#c2c2c2;stop-opacity:1;" />
      <stop
         id="stop2837"
         offset="1"
         style="stop-color:#e4e4e4;stop-opacity:1;" />
    </linearGradient>
    <linearGradient
       inkscape:collect="always"
       xlink:href="#linearGradient3176-734-748-342-116-658-183-116-103-544-940-937-495-352-321-825-596-136-941-902-216-541"
       id="linearGradient2916"
       gradientUnits="userSpaceOnUse"
       x1="802.89124"
       y1="1565.7361"
       x2="162.55066"
       y2="1565.7361"
       gradientTransform="matrix(0.04620478,0,0,0.04620478,5.07497,-39.0609)" />
  </defs>
  <metadata
     id="metadata2500">
    <rdf:RDF>
      <cc:Work
         rdf:about="">
        <dc:format>image/svg+xml</dc:format>
        <dc:type
           rdf:resource="http://purl.org/dc/dcmitype/StillImage" />
      </cc:Work>
    </rdf:RDF>
  </metadata>
  <g
     transform="translate(109.83652,-2166.5253)"
     id="layer1"
     inkscape:groupmode="layer"
     inkscape:label="Ebene 1">
    <path
       style="fill:url(#linearGradient2916);fill-opacity:1"
       d="M 9.21875 2.5625 C 7.7699978 2.5700328 6.4268525 3.0136 4.15625 4.09375 C 3.7514026 4.2863306 3.50182 4.4338042 3.1875 4.59375 C 3.061416 4.6556343 2.9263863 4.7203133 2.8125 4.78125 C 1.1283216 5.6795772 0.74565826 6.2419014 0.40625 7.84375 C 0.24080375 8.624575 0.15693727 9.254149 0.09375 9.8125 C 0.072687578 9.998617 0.04084125 10.215416 0.03125 10.375 C 0.016252648 10.586764 0.0049914388 10.790368 0.03125 10.9375 C 0.049228977 11.244149 0.0931928 11.480118 0.1875 11.59375 C 0.35717 11.79825 0.45375 12.4891 0.46875 13.5625 C 0.50002 15.8028 0.61921 16.245 1.59375 17.5 C 2.14389 18.2085 2.4375 18.79885 2.4375 19.15625 C 2.4375 19.88305 2.89588 20.69795 3.5 21.09375 C 3.76949 21.27035 4.22744 21.73685 4.53125 22.15625 C 5.28118 23.19145 5.52647 25.35955 5.03125 26.65625 C 4.65646 27.63765 4.68376 28.29675 5.28125 32.53125 C 5.67911 35.35095 5.93249 36.1927 6.875 37.5625 C 7.7651 38.8563 8.52525 40.79165 8.53125 41.78125 C 8.53409 42.26005 8.95343 44.2553 9.4375 46.1875 C 10.390048 49.9894 10.69804 52.0749 10.71875 54.5 C 10.731092 55.9452 10.708069 56.1047 10.15625 56.875 C 9.829896 57.3305 9.16978 57.9211 8.6875 58.1875 C 7.59228 58.7927 6.84375 59.4673 6.84375 59.875 C 6.84375 60.0468 7.05549 60.4185 7.34375 60.6875 C 7.79212 61.1058 8.11096 61.2032 9.53125 61.3125 C 9.7988047 61.333102 9.9897889 61.304664 10.21875 61.3125 C 11.822424 61.367387 12.599443 61.139688 13.375 60.28125 C 13.753168 59.86265 14.0625 59.39605 14.0625 59.28125 C 14.0625 59.16655 14.43412 58.3399 14.875 57.4375 C 15.773285 55.5988 15.738949 55.98135 15.84375 47.96875 C 15.89394 44.13145 15.875619 44.15755 17.21875 44.71875 C 17.608711 44.88175 18.120704 45.03125 18.34375 45.03125 C 18.566799 45.03285 18.866581 45.1025 19 45.1875 C 19.369292 45.4218 19.597739 49.7488 19.4375 53.5 C 19.300899 56.6978 19.282391 56.7652 18.5625 58.4375 C 17.912161 59.9482 17.740287 60.1885 16.9375 60.6875 C 15.861282 61.3565 15.176888 62.52895 15.59375 63.03125 C 15.955434 63.46705 16.538554 63.74455 17.40625 63.90625 C 17.777914 63.976277 18.662867 63.991924 19.46875 63.96875 C 19.572008 63.965781 19.681514 63.97352 19.78125 63.96875 C 20.329801 63.942525 20.742952 63.901297 21.09375 63.8125 C 21.139354 63.800956 21.175849 63.794483 21.21875 63.78125 C 21.291444 63.7641 21.365514 63.731542 21.4375 63.6875 C 22.212296 63.348936 22.518587 62.61591 22.9375 60.84375 C 23.123336 60.05755 23.485639 59.0342 23.71875 58.5625 C 24.124814 57.7408 24.252236 57.16395 24.84375 53.96875 C 24.989288 53.18265 25.242223 51.86975 25.40625 51.03125 C 25.570274 50.19265 25.801918 48.8223 25.90625 48 C 26.010585 47.1778 26.15866 46.38195 26.25 46.21875 C 26.341345 46.05545 27.446628 45.5837 28.71875 45.1875 C 30.038187 44.7764 31.929498 44.0034 33.125 43.375 L 35.21875 42.28125 L 35.8125 42.59375 C 36.51542 43.00895 37.430388 42.88105 38.40625 42.21875 C 39.21712 41.66845 39.6205 41.7709 39.625 42.5 C 39.630549 43.402565 40.104495 44.96973 40.6875 46.21875 C 40.823235 46.509546 40.94943 46.791805 41.09375 47.03125 C 42.509065 49.37945 43.4375 51.91435 43.4375 53.46875 C 43.4375 55.06415 42.389603 56.76525 40.5625 58.15625 C 39.826026 58.71685 39.21875 59.2838 39.21875 59.4375 C 39.21875 59.7884 39.597603 60.5023 39.875 60.6875 C 39.990336 60.7645 41.107092 60.84375 42.34375 60.84375 C 43.573182 60.845309 44.099269 60.841051 44.4375 60.75 L 44.625 60.75 L 44.71875 60.625 L 44.75 60.625 C 44.856915 60.551792 44.941906 60.441175 45.0625 60.3125 C 45.805324 59.5197 46.137178 58.65095 47.25 54.15625 L 48.28125 50.03125 L 47.75 48.5 C 46.979931 46.2258 47.105114 43.26255 48.0625 40.84375 C 48.40126 39.98785 48.575767 39.76475 48.96875 39.71875 C 49.353524 39.67395 49.568151 39.8508 50.03125 40.5 C 50.352558 40.9504 50.78256 41.60185 50.96875 41.96875 C 51.154942 42.33565 51.608271 43.0283 52 43.5 C 52.745219 44.3973 55.185852 48.1467 55.8125 49.375 C 56.012779 49.7676 56.20899 50.39605 56.28125 50.78125 C 56.35351 51.16645 56.653198 51.864 56.9375 52.3125 C 57.221794 52.761 57.728967 53.84505 58.0625 54.71875 C 58.869855 56.83375 58.911977 58.85155 58.1875 60.28125 C 57.56664 61.50645 57.56125 62.22615 58.1875 62.71875 C 58.74649 63.15855 60.21174 63.5 61.46875 63.5 C 61.984364 63.5 62.244784 63.450431 62.5625 63.21875 C 62.711408 63.110165 62.857132 62.986634 63.0625 62.78125 C 63.886132 61.95765 63.999665 61.4336 63.53125 60.3125 C 63.040107 59.1371 62.353256 56.0733 62.125 54.0625 C 61.843969 51.5868 61.583496 50.45945 61.0625 49.40625 C 60.444308 48.15665 60.23531 46.96345 60.125 43.96875 C 60.04277 41.73635 59.905207 40.87145 59.34375 38.71875 C 58.92671 37.11975 58.6905 35.71595 58.6875 34.96875 C 58.680084 33.11465 57.681451 29.43885 56.5 26.90625 C 54.986447 23.66185 54.570582 22.26315 54 18.15625 C 53.843462 17.02945 53.562515 15.93355 53.25 15.28125 C 51.67974 12.00355 51.069083 11.2321 49.65625 10.8125 C 49.135936 10.658 48.539772 10.36665 48.34375 10.15625 C 47.963902 9.74875 47.922472 9.72495 45.125 10.15625 C 43.464956 10.41215 42.536102 11.07455 41.75 12.53125 C 41.412275 13.15705 41.15915 13.94425 41.15625 14.28125 C 41.152881 14.66645 41.022173 14.9516 40.8125 15.0625 C 40.629062 15.1596 38.752678 15.35165 36.65625 15.46875 C 34.559822 15.58595 32.2354 15.73025 31.46875 15.78125 C 30.456067 15.84825 29.899658 15.7691 29.5 15.5625 C 29.197437 15.406 28.700703 15.28125 28.375 15.28125 C 27.598255 15.28125 26.444121 14.6287 24.15625 12.875 C 22.934587 11.9386 22.28125 11.3018 22.28125 11.0625 C 22.28125 10.8609 22.487947 10.1851 22.75 9.5625 C 23.012053 8.9399 23.21875 8.2079 23.21875 7.9375 C 23.21875 6.6682 22.074268 5.61035 19 4.03125 L 17.09375 3.0625 L 14.59375 3 C 13.209837 2.9548 11.483749 2.802 10.75 2.6875 C 10.207453 2.602825 9.7016674 2.5599891 9.21875 2.5625 z "
       transform="translate(-109.83652,2166.5253)"
       id="path2901" />
  </g>
</svg>
