<?xml version="1.0" encoding="UTF-8" standalone="no"?>
<!-- Created with Inkscape (http://www.inkscape.org/) -->

<svg
   xmlns:dc="http://purl.org/dc/elements/1.1/"
   xmlns:cc="http://creativecommons.org/ns#"
   xmlns:rdf="http://www.w3.org/1999/02/22-rdf-syntax-ns#"
   xmlns:svg="http://www.w3.org/2000/svg"
   xmlns="http://www.w3.org/2000/svg"
   xmlns:xlink="http://www.w3.org/1999/xlink"
   xmlns:sodipodi="http://sodipodi.sourceforge.net/DTD/sodipodi-0.dtd"
   xmlns:inkscape="http://www.inkscape.org/namespaces/inkscape"
   width="150"
   height="150"
   id="svg2"
   version="1.1"
   inkscape:version="0.47 r22583"
   sodipodi:docname="persy_idle.svg">
  <defs
     id="defs4">
    <inkscape:path-effect
       effect="spiro"
       id="path-effect3827"
       is_visible="true" />
    <inkscape:perspective
       sodipodi:type="inkscape:persp3d"
       inkscape:vp_x="0 : 526.18109 : 1"
       inkscape:vp_y="0 : 1000 : 0"
       inkscape:vp_z="744.09448 : 526.18109 : 1"
       inkscape:persp3d-origin="372.04724 : 350.78739 : 1"
       id="perspective10" />
    <linearGradient
       id="linearGradient3176-734-748-342-116-658-183-116-103-544-940-937-495-352-321-825-596-136-941-902-216">
      <stop
         id="stop8972"
         offset="0"
         style="stop-color:#94e48d;stop-opacity:1;" />
      <stop
         id="stop8974"
         offset="1"
         style="stop-color:#cef9b4;stop-opacity:1;" />
    </linearGradient>
    <linearGradient
       id="linearGradient3176-734-748-342-116-658-183-116-103-544-940-937-495-352-321-825-596-136-941-902">
      <stop
         id="stop8778"
         offset="0"
         style="stop-color:#e48d94;stop-opacity:1;" />
      <stop
         id="stop8780"
         offset="1"
         style="stop-color:#f9b4ce;stop-opacity:1;" />
    </linearGradient>
    <linearGradient
       y2="1565.7361"
       x2="162.55066"
       y1="1565.7361"
       x1="802.89124"
       gradientUnits="userSpaceOnUse"
       id="linearGradient3213-518-745-539-243-423-182-462-947-961-883-365-96-859-607-672-33-327-163-728"
       xlink:href="#linearGradient3176-734-748-342-116-658-183-116-103-544-940-937-495-352-321-825-596-136-941-902"
       inkscape:collect="always" />
    <linearGradient
       id="linearGradient3176-734-748-342-116-658-183-116-103-544-940-937-495-352-321-825-596-136-941">
      <stop
         id="stop8592"
         offset="0"
         style="stop-color:#8d94e4;stop-opacity:1;" />
      <stop
         id="stop8594"
         offset="1"
         style="stop-color:#b4cef9;stop-opacity:1;" />
    </linearGradient>
    <linearGradient
       y2="1565.7361"
       x2="162.55066"
       y1="1565.7361"
       x1="802.89124"
       gradientUnits="userSpaceOnUse"
       id="linearGradient3213-518-745-539-243-423-182-462-947-961-883-365-96-859-607-672-33-327-163"
       xlink:href="#linearGradient3176-734-748-342-116-658-183-116-103-544-940-937-495-352-321-825-596-136-941"
       inkscape:collect="always" />
    <linearGradient
       id="linearGradient3176-734-748-342-116-658-183-116-103-544-940-937-495-352-321-825-596-136">
      <stop
         id="stop8414"
         offset="0"
         style="stop-color:#8dafe4;stop-opacity:1;" />
      <stop
         id="stop8416"
         offset="1"
         style="stop-color:#b4e3f9;stop-opacity:1;" />
    </linearGradient>
    <linearGradient
       y2="1565.7361"
       x2="162.55066"
       y1="1565.7361"
       x1="802.89124"
       gradientUnits="userSpaceOnUse"
       id="linearGradient3213-518-745-539-243-423-182-462-947-961-883-365-96-859-607-672-33-327"
       xlink:href="#linearGradient3176-734-748-342-116-658-183-116-103-544-940-937-495-352-321-825-596-136"
       inkscape:collect="always" />
    <linearGradient
       id="linearGradient3176-734-748-342-116-658-183-116-103-544-940-937-495-352-321-825-596">
      <stop
         id="stop8244"
         offset="0"
         style="stop-color:#8dcae4;stop-opacity:1;" />
      <stop
         id="stop8246"
         offset="1"
         style="stop-color:#b4f8f9;stop-opacity:1;" />
    </linearGradient>
    <linearGradient
       y2="1565.7361"
       x2="162.55066"
       y1="1565.7361"
       x1="802.89124"
       gradientUnits="userSpaceOnUse"
       id="linearGradient3213-518-745-539-243-423-182-462-947-961-883-365-96-859-607-672-33"
       xlink:href="#linearGradient3176-734-748-342-116-658-183-116-103-544-940-937-495-352-321-825-596"
       inkscape:collect="always" />
    <linearGradient
       id="linearGradient3176-734-748-342-116-658-183-116-103-544-940-937-495-352-321-825">
      <stop
         id="stop8082"
         offset="0"
         style="stop-color:#8de4e3;stop-opacity:1;" />
      <stop
         id="stop8084"
         offset="1"
         style="stop-color:#b4f9e5;stop-opacity:1;" />
    </linearGradient>
    <linearGradient
       y2="1565.7361"
       x2="162.55066"
       y1="1565.7361"
       x1="802.89124"
       gradientUnits="userSpaceOnUse"
       id="linearGradient3213-518-745-539-243-423-182-462-947-961-883-365-96-859-607-672"
       xlink:href="#linearGradient3176-734-748-342-116-658-183-116-103-544-940-937-495-352-321-825"
       inkscape:collect="always" />
    <linearGradient
       id="linearGradient3176-734-748-342-116-658-183-116-103-544-940-937-495-352-321">
      <stop
         id="stop7928"
         offset="0"
         style="stop-color:#8de4c9;stop-opacity:1;" />
      <stop
         id="stop7930"
         offset="1"
         style="stop-color:#b4f9d1;stop-opacity:1;" />
    </linearGradient>
    <linearGradient
       y2="1565.7361"
       x2="162.55066"
       y1="1565.7361"
       x1="802.89124"
       gradientUnits="userSpaceOnUse"
       id="linearGradient3213-518-745-539-243-423-182-462-947-961-883-365-96-859-607"
       xlink:href="#linearGradient3176-734-748-342-116-658-183-116-103-544-940-937-495-352-321"
       inkscape:collect="always" />
    <linearGradient
       id="linearGradient3176-734-748-342-116-658-183-116-103-544-940-937-495-352">
      <stop
         id="stop7782"
         offset="0"
         style="stop-color:#8de4af;stop-opacity:1;" />
      <stop
         id="stop7784"
         offset="1"
         style="stop-color:#b4f9bd;stop-opacity:1;" />
    </linearGradient>
    <linearGradient
       y2="1565.7361"
       x2="162.55066"
       y1="1565.7361"
       x1="802.89124"
       gradientUnits="userSpaceOnUse"
       id="linearGradient3213-518-745-539-243-423-182-462-947-961-883-365-96-859"
       xlink:href="#linearGradient3176-734-748-342-116-658-183-116-103-544-940-937-495-352"
       inkscape:collect="always" />
    <linearGradient
       id="linearGradient3176-734-748-342-116-658-183-116-103-544-940-937-495">
      <stop
         id="stop7644"
         offset="0"
         style="stop-color:#8de495;stop-opacity:1;" />
      <stop
         id="stop7646"
         offset="1"
         style="stop-color:#bff9b4;stop-opacity:1;" />
    </linearGradient>
    <linearGradient
       y2="1565.7361"
       x2="162.55066"
       y1="1565.7361"
       x1="802.89124"
       gradientUnits="userSpaceOnUse"
       id="linearGradient3213-518-745-539-243-423-182-462-947-961-883-365-96"
       xlink:href="#linearGradient3176-734-748-342-116-658-183-116-103-544-940-937-495"
       inkscape:collect="always" />
    <linearGradient
       id="linearGradient3176-734-748-342-116-658-183-116-103-544-940-937">
      <stop
         id="stop7514"
         offset="0"
         style="stop-color:#9fe48d;stop-opacity:1;" />
      <stop
         id="stop7516"
         offset="1"
         style="stop-color:#d4f9b4;stop-opacity:1;" />
    </linearGradient>
    <linearGradient
       y2="1565.7361"
       x2="162.55066"
       y1="1565.7361"
       x1="802.89124"
       gradientUnits="userSpaceOnUse"
       id="linearGradient3213-518-745-539-243-423-182-462-947-961-883-365"
       xlink:href="#linearGradient3176-734-748-342-116-658-183-116-103-544-940-937"
       inkscape:collect="always" />
    <linearGradient
       id="linearGradient3176-734-748-342-116-658-183-116-103-544-940">
      <stop
         id="stop7392"
         offset="0"
         style="stop-color:#bae48d;stop-opacity:1;" />
      <stop
         id="stop7394"
         offset="1"
         style="stop-color:#e9f9b4;stop-opacity:1;" />
    </linearGradient>
    <linearGradient
       y2="1565.7361"
       x2="162.55066"
       y1="1565.7361"
       x1="802.89124"
       gradientUnits="userSpaceOnUse"
       id="linearGradient3213-518-745-539-243-423-182-462-947-961-883"
       xlink:href="#linearGradient3176-734-748-342-116-658-183-116-103-544-940"
       inkscape:collect="always" />
    <linearGradient
       id="linearGradient3176-734-748-342-116-658-183-116-103-544">
      <stop
         id="stop7278"
         offset="0"
         style="stop-color:#d5e48d;stop-opacity:1;" />
      <stop
         id="stop7280"
         offset="1"
         style="stop-color:#f9f4b4;stop-opacity:1;" />
    </linearGradient>
    <linearGradient
       y2="1565.7361"
       x2="162.55066"
       y1="1565.7361"
       x1="802.89124"
       gradientUnits="userSpaceOnUse"
       id="linearGradient3213-518-745-539-243-423-182-462-947-961"
       xlink:href="#linearGradient3176-734-748-342-116-658-183-116-103-544"
       inkscape:collect="always" />
    <linearGradient
       id="linearGradient3176-734-748-342-116-658-183-116-103">
      <stop
         id="stop7172"
         offset="0"
         style="stop-color:#e4d88d;stop-opacity:1;" />
      <stop
         id="stop7174"
         offset="1"
         style="stop-color:#f9e0b4;stop-opacity:1;" />
    </linearGradient>
    <linearGradient
       y2="1565.7361"
       x2="162.55066"
       y1="1565.7361"
       x1="802.89124"
       gradientUnits="userSpaceOnUse"
       id="linearGradient3213-518-745-539-243-423-182-462-947"
       xlink:href="#linearGradient3176-734-748-342-116-658-183-116-103"
       inkscape:collect="always" />
    <linearGradient
       id="linearGradient3176-734-748-342-116-658-183-116">
      <stop
         id="stop7074"
         offset="0"
         style="stop-color:#e4be8d;stop-opacity:1;" />
      <stop
         id="stop7076"
         offset="1"
         style="stop-color:#f9ccb4;stop-opacity:1;" />
    </linearGradient>
    <linearGradient
       y2="1565.7361"
       x2="162.55066"
       y1="1565.7361"
       x1="802.89124"
       gradientUnits="userSpaceOnUse"
       id="linearGradient3213-518-745-539-243-423-182-462"
       xlink:href="#linearGradient3176-734-748-342-116-658-183-116"
       inkscape:collect="always" />
    <linearGradient
       id="linearGradient3176-734-748-342-116-658-183">
      <stop
         id="stop6984"
         offset="0"
         style="stop-color:#e4a48d;stop-opacity:1;" />
      <stop
         id="stop6986"
         offset="1"
         style="stop-color:#f9b8b4;stop-opacity:1;" />
    </linearGradient>
    <linearGradient
       y2="1565.7361"
       x2="162.55066"
       y1="1565.7361"
       x1="802.89124"
       gradientUnits="userSpaceOnUse"
       id="linearGradient3213-518-745-539-243-423-182"
       xlink:href="#linearGradient3176-734-748-342-116-658-183"
       inkscape:collect="always" />
    <linearGradient
       id="linearGradient3176-734-748-342-116-658">
      <stop
         id="stop6902"
         offset="0"
         style="stop-color:#e48d90;stop-opacity:1;" />
      <stop
         id="stop6904"
         offset="1"
         style="stop-color:#f9b4c4;stop-opacity:1;" />
    </linearGradient>
    <linearGradient
       y2="1565.7361"
       x2="162.55066"
       y1="1565.7361"
       x1="802.89124"
       gradientUnits="userSpaceOnUse"
       id="linearGradient3213-518-745-539-243-423"
       xlink:href="#linearGradient3176-734-748-342-116-658"
       inkscape:collect="always" />
    <linearGradient
       id="linearGradient3176-734-748-342-116">
      <stop
         id="stop6828"
         offset="0"
         style="stop-color:#e48dab;stop-opacity:1;" />
      <stop
         id="stop6830"
         offset="1"
         style="stop-color:#f9b4d9;stop-opacity:1;" />
    </linearGradient>
    <linearGradient
       y2="1565.7361"
       x2="162.55066"
       y1="1565.7361"
       x1="802.89124"
       gradientUnits="userSpaceOnUse"
       id="linearGradient3213-518-745-539-243"
       xlink:href="#linearGradient3176-734-748-342-116"
       inkscape:collect="always" />
    <linearGradient
       id="linearGradient3176-734-748-342">
      <stop
         id="stop6762"
         offset="0"
         style="stop-color:#e48dc6;stop-opacity:1;" />
      <stop
         id="stop6764"
         offset="1"
         style="stop-color:#f9b4ee;stop-opacity:1;" />
    </linearGradient>
    <linearGradient
       y2="1565.7361"
       x2="162.55066"
       y1="1565.7361"
       x1="802.89124"
       gradientUnits="userSpaceOnUse"
       id="linearGradient3213-518-745-539"
       xlink:href="#linearGradient3176-734-748-342"
       inkscape:collect="always" />
    <linearGradient
       id="linearGradient3176-734-748">
      <stop
         id="stop6704"
         offset="0"
         style="stop-color:#e48de1;stop-opacity:1;" />
      <stop
         id="stop6706"
         offset="1"
         style="stop-color:#efb4f9;stop-opacity:1;" />
    </linearGradient>
    <linearGradient
       y2="1565.7361"
       x2="162.55066"
       y1="1565.7361"
       x1="802.89124"
       gradientUnits="userSpaceOnUse"
       id="linearGradient3213-518-745"
       xlink:href="#linearGradient3176-734-748"
       inkscape:collect="always" />
    <linearGradient
       id="linearGradient3176-734">
      <stop
         id="stop6653"
         offset="0"
         style="stop-color:#cc8de4;stop-opacity:1;" />
      <stop
         id="stop6655"
         offset="1"
         style="stop-color:#dbb4f9;stop-opacity:1;" />
    </linearGradient>
    <linearGradient
       y2="1565.7361"
       x2="162.55066"
       y1="1565.7361"
       x1="802.89124"
       gradientUnits="userSpaceOnUse"
       id="linearGradient3213-518"
       xlink:href="#linearGradient3176-734"
       inkscape:collect="always" />
    <linearGradient
       y2="1565.7361"
       x2="162.55066"
       y1="1565.7361"
       x1="802.89124"
       gradientUnits="userSpaceOnUse"
       id="linearGradient3213"
       xlink:href="#linearGradient3176"
       inkscape:collect="always" />
    <linearGradient
       gradientUnits="userSpaceOnUse"
       y2="1565.7361"
       x2="162.55066"
       y1="1565.7361"
       x1="802.89124"
       id="linearGradient3182"
       xlink:href="#linearGradient3176"
       inkscape:collect="always" />
    <inkscape:perspective
       id="perspective2503"
       inkscape:persp3d-origin="372.04724 : 350.78739 : 1"
       inkscape:vp_z="744.09448 : 526.18109 : 1"
       inkscape:vp_y="0 : 1000 : 0"
       inkscape:vp_x="0 : 526.18109 : 1"
       sodipodi:type="inkscape:persp3d" />
    <linearGradient
       id="linearGradient3176">
      <stop
         id="stop3178"
         offset="0"
         style="stop-color:#b28de4;stop-opacity:1;" />
      <stop
         id="stop3180"
         offset="1"
         style="stop-color:#c7b4f9;stop-opacity:1;" />
    </linearGradient>
    <inkscape:perspective
       id="perspective4426"
       inkscape:persp3d-origin="0.5 : 0.33333333 : 1"
       inkscape:vp_z="1 : 0.5 : 1"
       inkscape:vp_y="0 : 1000 : 0"
       inkscape:vp_x="0 : 0.5 : 1"
       sodipodi:type="inkscape:persp3d" />
    <inkscape:perspective
       id="perspective4426-7"
       inkscape:persp3d-origin="0.5 : 0.33333333 : 1"
       inkscape:vp_z="1 : 0.5 : 1"
       inkscape:vp_y="0 : 1000 : 0"
       inkscape:vp_x="0 : 0.5 : 1"
       sodipodi:type="inkscape:persp3d" />
    <inkscape:perspective
       id="perspective4426-9"
       inkscape:persp3d-origin="0.5 : 0.33333333 : 1"
       inkscape:vp_z="1 : 0.5 : 1"
       inkscape:vp_y="0 : 1000 : 0"
       inkscape:vp_x="0 : 0.5 : 1"
       sodipodi:type="inkscape:persp3d" />
    <inkscape:perspective
       id="perspective4483"
       inkscape:persp3d-origin="0.5 : 0.33333333 : 1"
       inkscape:vp_z="1 : 0.5 : 1"
       inkscape:vp_y="0 : 1000 : 0"
       inkscape:vp_x="0 : 0.5 : 1"
       sodipodi:type="inkscape:persp3d" />
    <inkscape:perspective
       id="perspective5153"
       inkscape:persp3d-origin="0.5 : 0.33333333 : 1"
       inkscape:vp_z="1 : 0.5 : 1"
       inkscape:vp_y="0 : 1000 : 0"
       inkscape:vp_x="0 : 0.5 : 1"
       sodipodi:type="inkscape:persp3d" />
  </defs>
  <sodipodi:namedview
     id="base"
     pagecolor="#ffffff"
     bordercolor="#666666"
     borderopacity="1.0"
     inkscape:pageopacity="0.0"
     inkscape:pageshadow="2"
     inkscape:zoom="3.959798"
     inkscape:cx="41.74914"
     inkscape:cy="77.753414"
     inkscape:document-units="px"
     inkscape:current-layer="layer1"
     showgrid="false"
     inkscape:window-width="1119"
     inkscape:window-height="790"
     inkscape:window-x="455"
     inkscape:window-y="185"
     inkscape:window-maximized="0" />
  <metadata
     id="metadata7">
    <rdf:RDF>
      <cc:Work
         rdf:about="">
        <dc:format>image/svg+xml</dc:format>
        <dc:type
           rdf:resource="http://purl.org/dc/dcmitype/StillImage" />
        <dc:title />
      </cc:Work>
    </rdf:RDF>
  </metadata>
  <g
     inkscape:label="Layer 1"
     inkscape:groupmode="layer"
     id="layer1"
     transform="translate(-225.98364,-345.9071)">
    <path
       style="fill:#eae3d0;fill-opacity:1;opacity:0.6"
       d="M 33.4375 17.03125 C 32.95465 17.01736 32.48585 17.02529 32 17.0625 C 25.08173 18.37033 16.38657 20.92701 13.6875 28.09375 C 11.80013 33.59892 13.18788 39.39841 13.78125 44.9375 C 15.19558 48.50773 16.93599 51.79869 18.5625 55.21875 C 20.82431 57.30175 23.48959 59.98676 21.78125 63.3125 C 20.38089 72.38149 22.82163 81.68432 27.28125 89.53125 C 29.06337 96.90603 30.80922 104.48021 32 111.9375 C 32.66472 115.38076 31.71897 118.65367 28.28125 119.96875 C 24.05988 121.87044 24.17986 128.16885 28.5625 129.90625 C 32.27072 132.17078 37.71639 130.62624 40.84375 130.15625 C 41.41012 136.12672 49.345 136.25245 53.875 135.78125 C 61.28468 134.85639 61.46283 125.86435 63.46875 120.34375 C 65.39496 114.4151 65.69229 107.84675 67.1875 102.03125 C 72.96732 101.49453 77.78396 96.19564 83.71875 97.3125 C 86.52532 95.99948 85.73874 100.93161 87.375 102.28125 C 90.04972 106.66235 94.34818 114.55344 88.46875 118.34375 C 84.49993 120.06265 82.28615 125.90011 86.375 128.8125 C 90.08115 131.33084 95.39632 130.19331 99.21875 129.46875 C 105.62251 123.66016 104.65456 114.18017 107.65625 106.75 C 105.82384 103.0298 105.09889 98.71821 105.84375 94.59375 C 111.3229 102.16254 116.25638 110.2821 118.84375 119.15625 C 120.31833 123.66486 115.01508 128.31166 118.96875 132.21875 C 123.68386 137.07421 134.64658 135.98783 135.34375 128.125 C 135.29875 123.38631 132.45365 119.36738 132.46875 114.46875 C 131.61477 107.10829 128.31262 100.47604 128.5 92.96875 C 127.12582 85.71883 126.42005 78.35496 124.59375 71.21875 C 121.61099 62.75131 117.67694 54.55171 116.96875 45.5 C 115.36413 37.97528 109.47814 31.13731 101.625 30.3125 C 95.46124 30.3421 88.83588 33.59666 87.5 40.125 C 78.45197 40.84857 67.18661 43.37268 60.6875 35.15625 C 63.25024 30.30957 60.87945 24.11922 55.75 22.09375 C 50.58987 18.06748 44.02271 17.32786 37.78125 17.5 C 36.343793 17.30614 34.886051 17.07292 33.4375 17.03125 z M 32.90625 20.53125 C 33.78541 20.52669 34.66854 20.62708 35.65625 20.78125 C 36.99205 20.98976 40.13682 21.26155 42.65625 21.34375 L 47.25 21.46875 L 50.75 23.25 C 56.34673 26.12485 58.375 28.033 58.375 30.34375 C 58.375 30.83604 58.00831 32.17903 57.53125 33.3125 C 57.05417 34.44596 56.65625 35.66428 56.65625 36.03125 C 56.65625 36.46695 57.83844 37.63897 60.0625 39.34375 C 64.22758 42.53637 66.33592 43.75 67.75 43.75 C 68.34295 43.75 69.26168 43.93392 69.8125 44.21875 C 70.54008 44.59503 71.50014 44.68451 73.34375 44.5625 C 74.17291 44.50763 76.83161 44.34811 79 44.21875 C 79.0068 44.23785 79.02425 44.26215 79.03125 44.28125 C 80.29383 44.20575 81.14533 44.17295 82.5625 44.09375 C 86.37909 43.88047 89.72856 43.55175 90.0625 43.375 C 90.44422 43.17296 90.6815 42.70122 90.6875 42 C 90.69286 41.38652 91.22892 39.92057 91.84375 38.78125 C 93.27486 36.12934 94.97788 34.93467 98 34.46875 C 103.09283 33.68368 103.12099 33.63274 103.8125 34.375 C 104.16936 34.75804 105.24027 35.37496 106.1875 35.65625 C 108.75957 36.42008 109.92257 37.8142 112.78125 43.78125 C 113.35019 44.96882 113.90251 46.91748 114.1875 48.96875 C 115.22626 56.44545 115.93206 59.06217 118.6875 64.96875 C 120.83836 69.57932 122.64275 76.21829 122.65625 79.59375 C 122.66172 80.95404 123.08453 83.52658 123.84375 86.4375 C 124.8659 90.35652 125.13155 91.9671 125.28125 96.03125 C 125.48207 101.48313 125.84333 103.60004 126.96875 105.875 C 127.91722 107.79227 128.39463 109.8992 128.90625 114.40625 C 129.3218 118.06695 130.60587 123.61005 131.5 125.75 C 132.35276 127.7909 132.12444 128.75057 130.625 130.25 C 130.25114 130.62388 129.98984 130.83359 129.71875 131.03125 C 129.14035 131.45295 128.68869 131.5625 127.75 131.5625 C 125.4616 131.5625 122.83015 130.92548 121.8125 130.125 C 120.67254 129.2282 120.61978 127.91787 121.75 125.6875 C 123.06893 123.08475 123.00105 119.38158 121.53125 115.53125 C 120.92405 113.9406 119.98631 111.97277 119.46875 111.15625 C 118.95118 110.33974 118.44404 109.13874 118.3125 108.4375 C 118.18094 107.73628 117.77086 106.58969 117.40625 105.875 C 116.26542 103.63881 111.82543 96.78988 110.46875 95.15625 C 109.75561 94.29753 108.90148 93.04289 108.5625 92.375 C 108.22355 91.70709 107.45994 90.47619 106.875 89.65625 C 106.03191 88.47444 105.66923 88.19965 104.96875 88.28125 C 104.47351 88.33897 104.13266 88.69763 103.78125 89.375 C 103.82613 89.44931 103.8906 89.52195 103.9375 89.59375 C 103.83129 89.82175 103.71857 89.93465 103.59375 90.25 C 103.15801 91.3509 102.8059 92.46613 102.5625 93.65625 C 101.8323 97.22662 101.97981 101.01986 103.03125 104.125 L 103.96875 106.90625 L 102.09375 114.4375 C 100.06784 122.62012 99.53982 124.21311 98.1875 125.65625 C 97.93287 125.92799 97.73698 126.17361 97.5 126.3125 L 97.3125 126.46875 L 97.03125 126.46875 C 96.4155 126.63379 95.39444 126.628 93.15625 126.625 C 90.90491 126.62205 88.92872 126.48394 88.71875 126.34375 C 88.21375 126.00654 87.53125 124.73252 87.53125 124.09375 C 87.53125 123.8138 88.65923 122.73944 90 121.71875 C 93.32625 119.18653 95.15625 116.15447 95.15625 113.25 C 95.15625 110.42023 93.51409 105.80618 90.9375 101.53125 C 90.46106 100.74074 90.02915 99.72093 89.625 98.6875 C 88.849 96.70332 88.22675 94.51938 88.21875 93.1875 C 88.21059 91.86014 87.50745 91.74823 86.03125 92.75 C 84.2547 93.95562 82.52967 94.19341 81.25 93.4375 L 80.25 92.78125 L 76.40625 94.84375 C 74.22983 95.98768 70.80831 97.40795 68.40625 98.15625 C 66.09034 98.8777 64.04128 99.67159 63.875 99.96875 C 63.7087 100.26589 63.4712 101.78436 63.28125 103.28125 C 63.09131 104.77816 62.6736 107.22335 62.375 108.75 C 62.07639 110.27663 61.60869 112.72504 61.34375 114.15625 C 60.26689 119.97316 60.02049 120.97288 59.28125 122.46875 C 58.85686 123.32748 58.18208 125.19379 57.84375 126.625 C 57.07242 129.88806 56.57203 131.20642 55.125 131.8125 C 54.99395 131.89269 54.8511 131.9688 54.71875 132 C 54.65781 132.0178 54.59505 132.01505 54.53125 132.03125 C 53.89261 132.19291 53.0924 132.29595 52.09375 132.34375 C 51.92655 132.35175 51.76655 132.33775 51.59375 132.34375 C 50.1145 132.38825 48.52722 132.34608 47.84375 132.21875 C 46.26409 131.92449 45.1897 131.41839 44.53125 130.625 C 43.77235 129.71058 44.97823 127.5617 46.9375 126.34375 C 48.39898 125.43525 48.69107 125.00026 49.875 122.25 C 51.18558 119.20562 51.22005 119.07173 51.46875 113.25 C 51.76046 106.42093 51.3598 98.52043 50.6875 98.09375 C 50.44461 97.93959 49.87481 97.8155 49.46875 97.8125 C 49.0627 97.80957 48.17867 97.60911 47.46875 97.3125 C 45.02356 96.29083 45.0288 96.23303 44.9375 103.21875 C 44.74671 117.80579 44.85407 117.12143 43.21875 120.46875 C 42.41612 122.11162 41.75 123.63482 41.75 123.84375 C 41.75 124.05266 41.18847 124.86297 40.5 125.625 C 39.08808 127.18781 37.63826 127.5999 34.71875 127.5 C 34.30192 127.4858 33.98709 127.5375 33.5 127.5 C 30.91436 127.30099 30.31626 127.10526 29.5 126.34375 C 28.97522 125.85418 28.53125 125.18768 28.53125 124.875 C 28.53125 124.13273 29.88114 122.88295 31.875 121.78125 C 32.75299 121.29613 33.96837 120.23556 34.5625 119.40625 C 35.56716 118.00402 35.67875 117.69355 35.65625 115.0625 C 35.61855 110.64758 34.98412 106.82781 33.25 99.90625 C 32.36875 96.38882 31.66225 92.80913 31.65625 91.9375 C 31.64557 90.13592 30.27669 86.60523 28.65625 84.25 C 26.94042 81.75612 26.47432 80.22699 25.75 75.09375 C 24.66226 67.38482 24.59894 66.19286 25.28125 64.40625 C 26.18281 62.04558 25.74028 58.1347 24.375 56.25 C 23.82192 55.48648 22.9906 54.57145 22.5 54.25 C 21.40019 53.52937 20.53125 52.04202 20.53125 50.71875 C 20.53125 50.06823 20.03277 49.03977 19.03125 47.75 C 17.25707 45.46522 17.02565 44.6096 16.96875 40.53125 C 16.94146 38.57697 16.74639 37.37219 16.4375 37 C 16.26726 36.79487 16.18985 36.36325 16.15625 35.8125 C 16.10835 35.54464 16.12895 35.16675 16.15625 34.78125 C 16.17285 34.48054 16.24175 34.10392 16.28125 33.75 C 16.3956 32.728 16.53971 31.52861 16.84375 30.09375 C 17.46163 27.17762 18.18395 26.19797 21.25 24.5625 C 21.45733 24.45156 21.67671 24.36265 21.90625 24.25 C 22.47848 23.9588 22.95046 23.69435 23.6875 23.34375 C 27.82116 21.37732 30.26878 20.54505 32.90625 20.53125 z "
       transform="translate(225.98364,345.9071)"
       id="path3840" />
    <path
       style="fill:#3a3935;fill-opacity:1;opacity:0.4"
       d="m 258.8978,366.43205 c -2.63747,0.0138 -5.09132,0.85307 -9.22498,2.8195 -0.73704,0.3506 -1.20708,0.61214 -1.77931,0.90334 -0.22954,0.11265 -0.44964,0.21754 -0.65697,0.32848 -3.06605,1.63547 -3.7893,2.61339 -4.40718,5.52952 -0.30404,1.43486 -0.4605,2.61872 -0.57485,3.64072 -0.0395,0.35392 -0.0929,0.73949 -0.1095,1.0402 -0.0273,0.3855 -0.0479,0.74497 0,1.01283 0.0336,0.55075 0.1035,0.99932 0.27374,1.20445 0.30889,0.37219 0.52019,1.57694 0.54748,3.53122 0.0569,4.07835 0.27886,4.94192 2.05304,7.2267 1.00152,1.28977 1.50555,2.30585 1.50555,2.95637 0,1.32327 0.84374,2.8106 1.94355,3.53123 0.4906,0.32145 1.33571,1.23476 1.88879,1.99828 1.36528,1.8847 1.80489,5.79674 0.90333,8.15741 -0.68231,1.78661 -0.62238,2.96686 0.46536,10.67579 0.72432,5.13324 1.1858,6.67635 2.90163,9.17023 1.62044,2.35523 3.00044,5.89047 3.01112,7.69205 0.006,0.87163 0.70643,4.44835 1.58768,7.96578 1.73412,6.92156 2.3712,10.75018 2.4089,15.1651 0.0225,2.63105 -0.0903,2.92284 -1.09496,4.32507 -0.59413,0.82931 -1.80464,1.89641 -2.68263,2.38153 -1.99386,1.1017 -3.3396,2.35097 -3.3396,3.09324 0,0.31268 0.4333,0.98861 0.95808,1.47818 0.81626,0.76151 1.41093,0.95069 3.99657,1.1497 0.48709,0.0375 0.815,-0.0142 1.23183,0 2.91951,0.0999 4.36396,-0.32598 5.77588,-1.88879 0.68847,-0.76203 1.25919,-1.57039 1.25919,-1.7793 0,-0.20893 0.64819,-1.72411 1.45082,-3.36698 1.63532,-3.34732 1.53376,-2.65847 1.72455,-17.24551 0.0913,-6.98572 0.10057,-6.93442 2.54576,-5.91275 0.70992,0.29661 1.59224,0.4898 1.99829,0.49273 0.40606,0.003 0.96156,0.14695 1.20445,0.30111 0.6723,0.42668 1.08556,8.30866 0.79385,15.13773 -0.2487,5.82173 -0.27711,5.96161 -1.58769,9.00599 -1.18393,2.75026 -1.49489,3.19757 -2.95637,4.10607 -1.95927,1.21795 -3.1678,3.3559 -2.4089,4.27032 0.65845,0.79339 1.73257,1.29342 3.31223,1.58768 0.68347,0.12733 2.27097,0.18137 3.75022,0.13687 0.1728,-0.006 0.3529,0.008 0.5201,0 0.99865,-0.0478 1.79764,-0.13945 2.43628,-0.30111 0.0638,-0.0162 0.10329,-0.0369 0.16423,-0.0547 0.13235,-0.0312 0.27956,-0.11143 0.41061,-0.19162 1.44703,-0.60608 1.96606,-1.91059 2.73739,-5.17365 0.33833,-1.43121 0.99905,-3.30209 1.42344,-4.16082 0.73924,-1.49587 0.97618,-2.47736 2.05304,-8.29427 0.26494,-1.43121 0.74159,-3.89339 1.0402,-5.42002 0.2986,-1.52665 0.71339,-3.97786 0.90333,-5.47477 0.18995,-1.49689 0.43593,-3.01509 0.60223,-3.31223 0.16628,-0.29716 2.20077,-1.08522 4.51668,-1.80667 2.40206,-0.7483 5.84411,-2.1683 8.02053,-3.31223 l 3.83234,-2.05304 1.01283,0.65697 c 1.27967,0.75591 3.01387,0.4939 4.79042,-0.71172 1.4762,-1.00177 2.15438,-0.862 2.16254,0.46536 0.008,1.33188 0.64744,3.49058 1.42344,5.47476 0.40415,1.03343 0.8375,2.05637 1.31394,2.84688 2.57659,4.27493 4.21556,8.88623 4.21556,11.716 0,2.90447 -1.84739,5.95367 -5.17364,8.48589 -1.34077,1.02069 -2.46365,2.07419 -2.46365,2.35414 0,0.63877 0.69944,1.93482 1.20444,2.27203 0.20997,0.14019 2.18322,0.27079 4.43456,0.27374 2.23819,0.003 3.24397,8e-4 3.85972,-0.16424 l 0.30111,0 0.16425,-0.16424 c 0.23698,-0.13889 0.42971,-0.35787 0.68434,-0.62961 1.35232,-1.44314 1.88854,-3.04065 3.91445,-11.22327 l 1.8888,-7.5278 -0.95809,-2.79212 c -1.05144,-3.10514 -1.19555,-6.88644 -0.46535,-10.45681 0.2434,-1.19012 0.60447,-2.32083 1.04021,-3.42173 0.12482,-0.31535 0.22228,-0.42897 0.32849,-0.65697 -0.0469,-0.0718 -0.092,-0.14468 -0.13688,-0.21899 0.35141,-0.67737 0.68184,-1.03724 1.17708,-1.09496 0.70048,-0.0816 1.07308,0.18689 1.91617,1.3687 0.58494,0.81994 1.35822,2.06947 1.69717,2.73738 0.33898,0.66789 1.17566,1.90604 1.8888,2.76476 1.35668,1.63363 5.81212,8.49434 6.95295,10.73053 0.36461,0.71469 0.77178,1.84455 0.90334,2.54577 0.13154,0.70124 0.63213,1.92088 1.1497,2.73739 0.51756,0.81652 1.44583,2.78916 2.05303,4.37981 1.4698,3.85033 1.53792,7.55294 0.21899,10.15569 -1.13022,2.23037 -1.08526,3.53776 0.0547,4.43456 1.01765,0.80048 3.65173,1.42344 5.94013,1.42344 0.93869,0 1.39251,-0.0984 1.97091,-0.5201 0.27109,-0.19766 0.55685,-0.41996 0.93071,-0.79384 1.49944,-1.49943 1.70135,-2.44841 0.84859,-4.48931 -0.89413,-2.13995 -2.15759,-7.67207 -2.57314,-11.33277 -0.51162,-4.50705 -0.99507,-6.62337 -1.94354,-8.54064 -1.12542,-2.27496 -1.49636,-4.4027 -1.69718,-9.85458 -0.1497,-4.06415 -0.40129,-5.66182 -1.42344,-9.58084 -0.75922,-2.91092 -1.19897,-5.48317 -1.20444,-6.84346 -0.0135,-3.37546 -1.81836,-10.00705 -3.96922,-14.61762 -2.75544,-5.90658 -3.45054,-8.53699 -4.4893,-16.01369 -0.28499,-2.05127 -0.82712,-3.98609 -1.39606,-5.17366 -2.85868,-5.96705 -4.02503,-7.36619 -6.5971,-8.13002 -0.94723,-0.28129 -2.02466,-0.90353 -2.38152,-1.28657 -0.69151,-0.74226 -0.71042,-0.70297 -5.80325,0.0821 -3.02212,0.46592 -4.72801,1.67316 -6.15912,4.32507 -0.61483,1.13932 -1.14433,2.58926 -1.14969,3.20274 -0.006,0.70122 -0.24789,1.19403 -0.62961,1.39607 -0.33394,0.17675 -3.68384,0.49844 -7.50043,0.71172 -1.41717,0.0792 -2.26863,0.11611 -3.53121,0.19161 -0.007,-0.0191 -0.0206,-0.0356 -0.0274,-0.0547 -2.16839,0.12936 -4.83723,0.27361 -5.66639,0.32848 -1.84361,0.12201 -2.80363,0.0478 -3.53121,-0.32848 -0.55082,-0.28483 -1.46009,-0.49273 -2.05304,-0.49273 -1.41408,0 -3.52697,-1.21456 -7.69205,-4.40718 -2.22406,-1.70478 -3.42173,-2.87654 -3.42173,-3.31224 0,-0.36697 0.39889,-1.57655 0.87597,-2.71001 0.47706,-1.13347 0.84858,-2.46408 0.84858,-2.95637 0,-2.31075 -2.04056,-4.24235 -7.63729,-7.1172 l -3.47648,-1.7793 -4.59881,-0.1095 c -2.51943,-0.0822 -5.6719,-0.36633 -7.0077,-0.57484 -0.98771,-0.15417 -1.85822,-0.25093 -2.73738,-0.24637 z"
       id="path100" />
  </g>
</svg>
