<?xml version="1.0" encoding="UTF-8" standalone="no"?>
<!-- Created with Inkscape (http://www.inkscape.org/) -->
<svg
   xmlns:dc="http://purl.org/dc/elements/1.1/"
   xmlns:cc="http://creativecommons.org/ns#"
   xmlns:rdf="http://www.w3.org/1999/02/22-rdf-syntax-ns#"
   xmlns:svg="http://www.w3.org/2000/svg"
   xmlns="http://www.w3.org/2000/svg"
   xmlns:xlink="http://www.w3.org/1999/xlink"
   xmlns:sodipodi="http://sodipodi.sourceforge.net/DTD/sodipodi-0.dtd"
   xmlns:inkscape="http://www.inkscape.org/namespaces/inkscape"
   width="1380.9644"
   height="1329.5786"
   id="svg2495"
   sodipodi:version="0.32"
   inkscape:version="0.46"
   inkscape:export-filename="percy 2.png"
   inkscape:export-xdpi="90"
   inkscape:export-ydpi="90"
   sodipodi:docname="persy_unsynced.svg"
   inkscape:output_extension="org.inkscape.output.svg.inkscape"
   version="1.0">
  <sodipodi:namedview
     id="base"
     pagecolor="#ffffff"
     bordercolor="#666666"
     borderopacity="1.0"
     inkscape:pageopacity="0.0"
     inkscape:pageshadow="2"
     inkscape:zoom="0.32"
     inkscape:cx="1214.4693"
     inkscape:cy="697.99326"
     inkscape:document-units="px"
     inkscape:current-layer="g2505"
     showgrid="false"
     inkscape:window-width="1688"
     inkscape:window-height="886"
     inkscape:window-x="72"
     inkscape:window-y="57"
     showguides="true"
     inkscape:guide-bbox="true">
    <sodipodi:guide
       orientation="0,1"
       position="559.0563,159.09903"
       id="guide2523" />
  </sodipodi:namedview>
  <defs
     id="defs2497">
    <linearGradient
       id="linearGradient3176-734-748-342-116-658-183-116-103-544-940-937-495-352-321-825-596-136-941-902-216-541">
      <stop
         id="stop2835"
         offset="0"
         style="stop-color:#c2c2c2;stop-opacity:1;" />
      <stop
         id="stop2837"
         offset="1"
         style="stop-color:#e4e4e4;stop-opacity:1;" />
    </linearGradient>
    <linearGradient
       y2="1565.7361"
       x2="162.55066"
       y1="1565.7361"
       x1="802.89124"
       gradientUnits="userSpaceOnUse"
       id="linearGradient3213-518-745-539-243-423-182-462-947-961-883-365-96-859-607-672-33-327-163-728-402-911"
       xlink:href="#linearGradient3176-734-748-342-116-658-183-116-103-544-940-937-495-352-321-825-596-136-941-902-216-541"
       inkscape:collect="always" />
    <linearGradient
       id="linearGradient3176">
      <stop
         style="stop-color:#b28de4;stop-opacity:1;"
         offset="0"
         id="stop3178" />
      <stop
         style="stop-color:#c7b4f9;stop-opacity:1;"
         offset="1"
         id="stop3180" />
    </linearGradient>
    <inkscape:perspective
       sodipodi:type="inkscape:persp3d"
       inkscape:vp_x="0 : 526.18109 : 1"
       inkscape:vp_y="0 : 1000 : 0"
       inkscape:vp_z="744.09448 : 526.18109 : 1"
       inkscape:persp3d-origin="372.04724 : 350.78739 : 1"
       id="perspective2503" />
    <linearGradient
       inkscape:collect="always"
       xlink:href="#linearGradient3176"
       id="linearGradient3182"
       x1="802.89124"
       y1="1565.7361"
       x2="162.55066"
       y2="1565.7361"
       gradientUnits="userSpaceOnUse" />
    <linearGradient
       inkscape:collect="always"
       xlink:href="#linearGradient3176"
       id="linearGradient3213"
       gradientUnits="userSpaceOnUse"
       x1="802.89124"
       y1="1565.7361"
       x2="162.55066"
       y2="1565.7361" />
    <linearGradient
       inkscape:collect="always"
       xlink:href="#linearGradient3176-734"
       id="linearGradient3213-518"
       gradientUnits="userSpaceOnUse"
       x1="802.89124"
       y1="1565.7361"
       x2="162.55066"
       y2="1565.7361" />
    <linearGradient
       id="linearGradient3176-734">
      <stop
         style="stop-color:#cc8de4;stop-opacity:1;"
         offset="0"
         id="stop6653" />
      <stop
         style="stop-color:#dbb4f9;stop-opacity:1;"
         offset="1"
         id="stop6655" />
    </linearGradient>
    <linearGradient
       inkscape:collect="always"
       xlink:href="#linearGradient3176-734-748"
       id="linearGradient3213-518-745"
       gradientUnits="userSpaceOnUse"
       x1="802.89124"
       y1="1565.7361"
       x2="162.55066"
       y2="1565.7361" />
    <linearGradient
       id="linearGradient3176-734-748">
      <stop
         style="stop-color:#e48de1;stop-opacity:1;"
         offset="0"
         id="stop6704" />
      <stop
         style="stop-color:#efb4f9;stop-opacity:1;"
         offset="1"
         id="stop6706" />
    </linearGradient>
    <linearGradient
       inkscape:collect="always"
       xlink:href="#linearGradient3176-734-748-342"
       id="linearGradient3213-518-745-539"
       gradientUnits="userSpaceOnUse"
       x1="802.89124"
       y1="1565.7361"
       x2="162.55066"
       y2="1565.7361" />
    <linearGradient
       id="linearGradient3176-734-748-342">
      <stop
         style="stop-color:#e48dc6;stop-opacity:1;"
         offset="0"
         id="stop6762" />
      <stop
         style="stop-color:#f9b4ee;stop-opacity:1;"
         offset="1"
         id="stop6764" />
    </linearGradient>
    <linearGradient
       inkscape:collect="always"
       xlink:href="#linearGradient3176-734-748-342-116"
       id="linearGradient3213-518-745-539-243"
       gradientUnits="userSpaceOnUse"
       x1="802.89124"
       y1="1565.7361"
       x2="162.55066"
       y2="1565.7361" />
    <linearGradient
       id="linearGradient3176-734-748-342-116">
      <stop
         style="stop-color:#e48dab;stop-opacity:1;"
         offset="0"
         id="stop6828" />
      <stop
         style="stop-color:#f9b4d9;stop-opacity:1;"
         offset="1"
         id="stop6830" />
    </linearGradient>
    <linearGradient
       inkscape:collect="always"
       xlink:href="#linearGradient3176-734-748-342-116-658"
       id="linearGradient3213-518-745-539-243-423"
       gradientUnits="userSpaceOnUse"
       x1="802.89124"
       y1="1565.7361"
       x2="162.55066"
       y2="1565.7361" />
    <linearGradient
       id="linearGradient3176-734-748-342-116-658">
      <stop
         style="stop-color:#e48d90;stop-opacity:1;"
         offset="0"
         id="stop6902" />
      <stop
         style="stop-color:#f9b4c4;stop-opacity:1;"
         offset="1"
         id="stop6904" />
    </linearGradient>
    <linearGradient
       inkscape:collect="always"
       xlink:href="#linearGradient3176-734-748-342-116-658-183"
       id="linearGradient3213-518-745-539-243-423-182"
       gradientUnits="userSpaceOnUse"
       x1="802.89124"
       y1="1565.7361"
       x2="162.55066"
       y2="1565.7361" />
    <linearGradient
       id="linearGradient3176-734-748-342-116-658-183">
      <stop
         style="stop-color:#e4a48d;stop-opacity:1;"
         offset="0"
         id="stop6984" />
      <stop
         style="stop-color:#f9b8b4;stop-opacity:1;"
         offset="1"
         id="stop6986" />
    </linearGradient>
    <linearGradient
       inkscape:collect="always"
       xlink:href="#linearGradient3176-734-748-342-116-658-183-116"
       id="linearGradient3213-518-745-539-243-423-182-462"
       gradientUnits="userSpaceOnUse"
       x1="802.89124"
       y1="1565.7361"
       x2="162.55066"
       y2="1565.7361" />
    <linearGradient
       id="linearGradient3176-734-748-342-116-658-183-116">
      <stop
         style="stop-color:#e4be8d;stop-opacity:1;"
         offset="0"
         id="stop7074" />
      <stop
         style="stop-color:#f9ccb4;stop-opacity:1;"
         offset="1"
         id="stop7076" />
    </linearGradient>
    <linearGradient
       inkscape:collect="always"
       xlink:href="#linearGradient3176-734-748-342-116-658-183-116-103"
       id="linearGradient3213-518-745-539-243-423-182-462-947"
       gradientUnits="userSpaceOnUse"
       x1="802.89124"
       y1="1565.7361"
       x2="162.55066"
       y2="1565.7361" />
    <linearGradient
       id="linearGradient3176-734-748-342-116-658-183-116-103">
      <stop
         style="stop-color:#e4d88d;stop-opacity:1;"
         offset="0"
         id="stop7172" />
      <stop
         style="stop-color:#f9e0b4;stop-opacity:1;"
         offset="1"
         id="stop7174" />
    </linearGradient>
    <linearGradient
       inkscape:collect="always"
       xlink:href="#linearGradient3176-734-748-342-116-658-183-116-103-544"
       id="linearGradient3213-518-745-539-243-423-182-462-947-961"
       gradientUnits="userSpaceOnUse"
       x1="802.89124"
       y1="1565.7361"
       x2="162.55066"
       y2="1565.7361" />
    <linearGradient
       id="linearGradient3176-734-748-342-116-658-183-116-103-544">
      <stop
         style="stop-color:#d5e48d;stop-opacity:1;"
         offset="0"
         id="stop7278" />
      <stop
         style="stop-color:#f9f4b4;stop-opacity:1;"
         offset="1"
         id="stop7280" />
    </linearGradient>
    <linearGradient
       inkscape:collect="always"
       xlink:href="#linearGradient3176-734-748-342-116-658-183-116-103-544-940"
       id="linearGradient3213-518-745-539-243-423-182-462-947-961-883"
       gradientUnits="userSpaceOnUse"
       x1="802.89124"
       y1="1565.7361"
       x2="162.55066"
       y2="1565.7361" />
    <linearGradient
       id="linearGradient3176-734-748-342-116-658-183-116-103-544-940">
      <stop
         style="stop-color:#bae48d;stop-opacity:1;"
         offset="0"
         id="stop7392" />
      <stop
         style="stop-color:#e9f9b4;stop-opacity:1;"
         offset="1"
         id="stop7394" />
    </linearGradient>
    <linearGradient
       inkscape:collect="always"
       xlink:href="#linearGradient3176-734-748-342-116-658-183-116-103-544-940-937"
       id="linearGradient3213-518-745-539-243-423-182-462-947-961-883-365"
       gradientUnits="userSpaceOnUse"
       x1="802.89124"
       y1="1565.7361"
       x2="162.55066"
       y2="1565.7361" />
    <linearGradient
       id="linearGradient3176-734-748-342-116-658-183-116-103-544-940-937">
      <stop
         style="stop-color:#9fe48d;stop-opacity:1;"
         offset="0"
         id="stop7514" />
      <stop
         style="stop-color:#d4f9b4;stop-opacity:1;"
         offset="1"
         id="stop7516" />
    </linearGradient>
    <linearGradient
       inkscape:collect="always"
       xlink:href="#linearGradient3176-734-748-342-116-658-183-116-103-544-940-937-495"
       id="linearGradient3213-518-745-539-243-423-182-462-947-961-883-365-96"
       gradientUnits="userSpaceOnUse"
       x1="802.89124"
       y1="1565.7361"
       x2="162.55066"
       y2="1565.7361" />
    <linearGradient
       id="linearGradient3176-734-748-342-116-658-183-116-103-544-940-937-495">
      <stop
         style="stop-color:#8de495;stop-opacity:1;"
         offset="0"
         id="stop7644" />
      <stop
         style="stop-color:#bff9b4;stop-opacity:1;"
         offset="1"
         id="stop7646" />
    </linearGradient>
    <linearGradient
       inkscape:collect="always"
       xlink:href="#linearGradient3176-734-748-342-116-658-183-116-103-544-940-937-495-352"
       id="linearGradient3213-518-745-539-243-423-182-462-947-961-883-365-96-859"
       gradientUnits="userSpaceOnUse"
       x1="802.89124"
       y1="1565.7361"
       x2="162.55066"
       y2="1565.7361" />
    <linearGradient
       id="linearGradient3176-734-748-342-116-658-183-116-103-544-940-937-495-352">
      <stop
         style="stop-color:#8de4af;stop-opacity:1;"
         offset="0"
         id="stop7782" />
      <stop
         style="stop-color:#b4f9bd;stop-opacity:1;"
         offset="1"
         id="stop7784" />
    </linearGradient>
    <linearGradient
       inkscape:collect="always"
       xlink:href="#linearGradient3176-734-748-342-116-658-183-116-103-544-940-937-495-352-321"
       id="linearGradient3213-518-745-539-243-423-182-462-947-961-883-365-96-859-607"
       gradientUnits="userSpaceOnUse"
       x1="802.89124"
       y1="1565.7361"
       x2="162.55066"
       y2="1565.7361" />
    <linearGradient
       id="linearGradient3176-734-748-342-116-658-183-116-103-544-940-937-495-352-321">
      <stop
         style="stop-color:#8de4c9;stop-opacity:1;"
         offset="0"
         id="stop7928" />
      <stop
         style="stop-color:#b4f9d1;stop-opacity:1;"
         offset="1"
         id="stop7930" />
    </linearGradient>
    <linearGradient
       inkscape:collect="always"
       xlink:href="#linearGradient3176-734-748-342-116-658-183-116-103-544-940-937-495-352-321-825"
       id="linearGradient3213-518-745-539-243-423-182-462-947-961-883-365-96-859-607-672"
       gradientUnits="userSpaceOnUse"
       x1="802.89124"
       y1="1565.7361"
       x2="162.55066"
       y2="1565.7361" />
    <linearGradient
       id="linearGradient3176-734-748-342-116-658-183-116-103-544-940-937-495-352-321-825">
      <stop
         style="stop-color:#8de4e3;stop-opacity:1;"
         offset="0"
         id="stop8082" />
      <stop
         style="stop-color:#b4f9e5;stop-opacity:1;"
         offset="1"
         id="stop8084" />
    </linearGradient>
    <linearGradient
       inkscape:collect="always"
       xlink:href="#linearGradient3176-734-748-342-116-658-183-116-103-544-940-937-495-352-321-825-596"
       id="linearGradient3213-518-745-539-243-423-182-462-947-961-883-365-96-859-607-672-33"
       gradientUnits="userSpaceOnUse"
       x1="802.89124"
       y1="1565.7361"
       x2="162.55066"
       y2="1565.7361" />
    <linearGradient
       id="linearGradient3176-734-748-342-116-658-183-116-103-544-940-937-495-352-321-825-596">
      <stop
         style="stop-color:#8dcae4;stop-opacity:1;"
         offset="0"
         id="stop8244" />
      <stop
         style="stop-color:#b4f8f9;stop-opacity:1;"
         offset="1"
         id="stop8246" />
    </linearGradient>
    <linearGradient
       inkscape:collect="always"
       xlink:href="#linearGradient3176-734-748-342-116-658-183-116-103-544-940-937-495-352-321-825-596-136"
       id="linearGradient3213-518-745-539-243-423-182-462-947-961-883-365-96-859-607-672-33-327"
       gradientUnits="userSpaceOnUse"
       x1="802.89124"
       y1="1565.7361"
       x2="162.55066"
       y2="1565.7361" />
    <linearGradient
       id="linearGradient3176-734-748-342-116-658-183-116-103-544-940-937-495-352-321-825-596-136">
      <stop
         style="stop-color:#8dafe4;stop-opacity:1;"
         offset="0"
         id="stop8414" />
      <stop
         style="stop-color:#b4e3f9;stop-opacity:1;"
         offset="1"
         id="stop8416" />
    </linearGradient>
    <linearGradient
       inkscape:collect="always"
       xlink:href="#linearGradient3176-734-748-342-116-658-183-116-103-544-940-937-495-352-321-825-596-136-941"
       id="linearGradient3213-518-745-539-243-423-182-462-947-961-883-365-96-859-607-672-33-327-163"
       gradientUnits="userSpaceOnUse"
       x1="802.89124"
       y1="1565.7361"
       x2="162.55066"
       y2="1565.7361" />
    <linearGradient
       id="linearGradient3176-734-748-342-116-658-183-116-103-544-940-937-495-352-321-825-596-136-941">
      <stop
         style="stop-color:#8d94e4;stop-opacity:1;"
         offset="0"
         id="stop8592" />
      <stop
         style="stop-color:#b4cef9;stop-opacity:1;"
         offset="1"
         id="stop8594" />
    </linearGradient>
    <linearGradient
       inkscape:collect="always"
       xlink:href="#linearGradient3176-734-748-342-116-658-183-116-103-544-940-937-495-352-321-825-596-136-941-902"
       id="linearGradient3213-518-745-539-243-423-182-462-947-961-883-365-96-859-607-672-33-327-163-728"
       gradientUnits="userSpaceOnUse"
       x1="802.89124"
       y1="1565.7361"
       x2="162.55066"
       y2="1565.7361" />
    <linearGradient
       id="linearGradient3176-734-748-342-116-658-183-116-103-544-940-937-495-352-321-825-596-136-941-902">
      <stop
         style="stop-color:#e48d94;stop-opacity:1;"
         offset="0"
         id="stop8778" />
      <stop
         style="stop-color:#f9b4ce;stop-opacity:1;"
         offset="1"
         id="stop8780" />
    </linearGradient>
    <linearGradient
       inkscape:collect="always"
       xlink:href="#linearGradient3176-734-748-342-116-658-183-116-103-544-940-937-495-352-321-825-596-136-941-902-216"
       id="linearGradient3213-518-745-539-243-423-182-462-947-961-883-365-96-859-607-672-33-327-163-728-402"
       gradientUnits="userSpaceOnUse"
       x1="802.89124"
       y1="1565.7361"
       x2="162.55066"
       y2="1565.7361" />
    <linearGradient
       id="linearGradient3176-734-748-342-116-658-183-116-103-544-940-937-495-352-321-825-596-136-941-902-216">
      <stop
         style="stop-color:#94e48d;stop-opacity:1;"
         offset="0"
         id="stop8972" />
      <stop
         style="stop-color:#cef9b4;stop-opacity:1;"
         offset="1"
         id="stop8974" />
    </linearGradient>
    <mask
       maskUnits="userSpaceOnUse"
       id="mask3243">
      <rect
         style="fill:#008080"
         id="rect3245"
         width="843.75"
         height="812.5"
         x="-2641.0864"
         y="1543.0253" />
    </mask>
    <mask
       maskUnits="userSpaceOnUse"
       id="mask3257">
      <rect
         style="fill:#ffffff"
         id="rect3259"
         width="715.94562"
         height="1334.6641"
         x="579.59259"
         y="900.2807"
         mask="none" />
    </mask>
    <linearGradient
       inkscape:collect="always"
       xlink:href="#linearGradient3176-734-748-342-116-658-183-116-103-544-940-937-495-352-321-825-596-136-941-902-216-541"
       id="linearGradient3277"
       gradientUnits="userSpaceOnUse"
       x1="802.89124"
       y1="1565.7361"
       x2="162.55066"
       y2="1565.7361" />
    <linearGradient
       inkscape:collect="always"
       xlink:href="#linearGradient3176-734-748-342-116-658-183-116-103-544-940-937-495-352-321-825-596-136-941-902-216"
       id="linearGradient2521"
       gradientUnits="userSpaceOnUse"
       x1="802.89124"
       y1="1565.7361"
       x2="162.55066"
       y2="1565.7361" />
  </defs>
  <metadata
     id="metadata2500">
    <rdf:RDF>
      <cc:Work
         rdf:about="">
        <dc:format>image/svg+xml</dc:format>
        <dc:type
           rdf:resource="http://purl.org/dc/dcmitype/StillImage" />
      </cc:Work>
    </rdf:RDF>
  </metadata>
  <g
     inkscape:label="Ebene 1"
     inkscape:groupmode="layer"
     id="layer1"
     transform="translate(109.83652,-900.94669)">
    <g
       id="g3261"
       transform="translate(0.7775307,1.876668)">
      <path
         id="path3263"
         d="M 266.96788,2228.6907 C 248.18853,2225.1924 235.71859,2219.1324 227.89074,2209.7003 C 218.8687,2198.8294 233.19365,2173.382 256.486,2158.9028 C 273.86053,2148.1022 277.68195,2142.817 291.75709,2110.1211 C 307.33753,2073.9285 307.58143,2072.5416 310.53784,2003.3311 C 314.00586,1922.1451 309.08387,1828.3093 301.09137,1823.2368 C 298.20383,1821.4042 291.89166,1819.8764 287.06427,1819.8417 C 282.23692,1819.8069 271.38191,1816.8933 262.94207,1813.3669 C 233.87297,1801.221 234.08554,1800.7213 232.99929,1883.7697 C 230.7311,2057.1848 231.57451,2048.9015 212.13317,2088.6954 C 202.59128,2108.2263 194.78428,2126.2383 194.78428,2128.722 C 194.78428,2131.2057 188.08773,2140.6501 179.90311,2149.7095 C 160.72145,2170.9412 143.00952,2175.7156 96.660499,2172.1478 C 65.921495,2169.7817 59.089779,2167.8526 49.385893,2158.7996 C 43.147138,2152.9793 38.042741,2145.1757 38.042741,2141.4584 C 38.042741,2132.6341 54.234798,2117.6594 77.938489,2104.5621 C 88.376246,2098.7949 102.69519,2086.0097 109.75843,2076.1506 C 121.70132,2059.4804 122.58055,2055.8695 122.31343,2024.5909 C 121.86517,1972.1049 114.82986,1927.0915 94.214117,1844.8059 C 83.737512,1802.9897 75.115525,1760.2982 75.054167,1749.9361 C 74.927268,1728.5185 58.435195,1686.4892 39.170957,1658.4896 C 18.77256,1628.8415 12.94651,1610.6311 4.3357122,1549.6056 C -8.5957079,1457.9596 -9.2152306,1443.4494 -1.1036965,1422.2096 C 9.6141558,1394.1453 4.5204169,1347.5127 -11.710321,1325.1068 C -18.285483,1316.03 -28.437268,1305.4768 -34.269826,1301.6552 C -47.34458,1293.0883 -56.827139,1275.4659 -56.827139,1259.7346 C -56.827139,1252.0009 -63.177083,1239.6989 -75.083592,1224.3657 C -96.175387,1197.2036 -99.045697,1187.2292 -99.722361,1138.7444 C -100.04665,1115.5115 -102.15788,1100.9005 -105.83005,1096.4758 C -112.20832,1088.7904 -110.47213,1059.903 -100.92348,1014.8383 C -91.868019,972.10124 -84.254003,964.48774 -20.001878,933.92244 C 45.521139,902.7526 75.631756,896.37182 122.60067,903.70336 C 138.48105,906.18218 175.98009,909.00997 205.9318,909.98733 L 260.38947,911.76435 L 301.55126,932.90769 C 368.08698,967.08479 392.77359,989.95787 392.77359,1017.4288 C 392.77359,1023.2814 388.1332,1039.0949 382.46164,1052.57 C 376.79008,1066.045 372.14969,1080.6394 372.14969,1085.002 C 372.14969,1090.1816 386.19963,1103.7035 412.63982,1123.9704 C 462.15572,1161.9252 487.29906,1176.3133 504.10998,1176.3133 C 511.15911,1176.3133 522.28428,1179.0839 528.83259,1182.4701 C 537.4823,1186.9431 548.98943,1188.0809 570.90671,1186.6304 C 587.49915,1185.5322 638.19782,1182.5594 683.57036,1180.024 C 728.9429,1177.4886 769.31417,1173.6951 773.28428,1171.5939 C 777.82218,1169.1921 780.5457,1162.8494 780.61861,1154.5131 C 780.68239,1147.2199 786.71486,1130.1708 794.02416,1116.6264 C 811.03761,1085.0994 831.19499,1070.9866 867.12296,1065.4476 C 927.66805,1056.1133 928.1284,1056.1099 936.34937,1064.9341 C 940.59183,1069.4878 953.27652,1075.9497 964.53757,1079.2939 C 995.11521,1088.3745 1008.8322,1105.3752 1042.817,1176.3133 C 1049.5807,1190.4315 1055.7416,1213.7988 1059.1295,1238.1849 C 1071.4785,1327.0702 1080.1636,1357.7054 1112.9211,1427.9247 C 1138.491,1482.7365 1159.9257,1561.8266 1160.0862,1601.9552 C 1160.1509,1618.1265 1165.6878,1649.0548 1174.7137,1683.6608 C 1186.8652,1730.2511 1189.5846,1748.7764 1191.3643,1797.0922 C 1193.7517,1861.9056 1198.1625,1887.603 1211.5419,1914.6484 C 1222.8177,1937.4415 1228.4274,1962.1242 1234.5097,2015.7054 C 1239.4498,2059.2248 1254.3924,2125.4071 1265.0221,2150.8474 C 1275.1599,2175.1103 1273.163,2186.0423 1255.3373,2203.868 C 1241.4091,2217.7962 1236.8692,2219.8819 1220.4797,2219.8819 C 1193.2745,2219.8819 1161.9357,2212.2939 1149.8376,2202.7775 C 1136.2838,2192.1161 1136.2338,2176.276 1149.6702,2149.7607 C 1165.3499,2118.8183 1164.3309,2075.2373 1146.8575,2029.4634 C 1139.6389,2010.5533 1128.6985,1987.1394 1122.5456,1977.4323 C 1116.3925,1967.7253 1110.0787,1952.9624 1108.5148,1944.626 C 1106.9509,1936.2895 1102.1248,1922.5171 1097.7902,1914.0206 C 1084.2278,1887.4361 1031.8009,1806.2014 1015.6723,1786.7803 C 1007.1942,1776.5715 996.96063,1761.7223 992.93093,1753.7821 C 988.90126,1745.8419 979.91461,1731.3698 972.96061,1721.6219 C 962.93785,1707.5723 958.13937,1704.1523 949.81179,1705.1228 C 941.30655,1706.114 937.58247,1710.7031 930.25076,1729.2271 C 909.53027,1781.5785 906.96834,1845.7658 923.63479,1894.9854 L 934.77408,1927.8822 L 912.66849,2017.1664 C 888.58393,2114.4438 881.84854,2133.6353 865.77176,2150.7919 C 855.33181,2161.933 854.27591,2162.1339 806.47946,2162.0718 C 779.71474,2162.0371 755.77405,2160.645 753.27787,2158.9783 C 747.27422,2154.9695 739.25485,2139.4713 739.25485,2131.8774 C 739.25485,2128.5493 752.29607,2115.8982 768.2354,2103.764 C 807.779,2073.6604 829.99997,2037.3409 829.99997,2002.8118 C 829.99997,1969.1706 810.12986,1914.3808 779.4985,1863.5591 C 762.95908,1836.1178 747.72298,1789.0767 747.57493,1764.9958 C 747.47795,1749.2158 738.91466,1747.3376 721.36516,1759.247 C 700.24481,1773.5797 680.19019,1776.5304 664.97704,1767.5438 L 652.68978,1760.2856 L 607.33314,1784.1253 C 581.45914,1797.7247 540.47416,1814.6633 511.91788,1823.5592 C 484.38562,1832.1361 460.24174,1842.0438 458.26477,1845.5765 C 456.28783,1849.1091 452.82284,1866.5595 450.56474,1884.3551 C 448.30672,1902.1507 443.55473,1931.5599 440.0048,1949.709 C 436.45481,1967.858 430.97313,1996.6283 427.82329,2013.643 C 415.02129,2082.7961 412.02664,2094.8544 403.23828,2112.6377 C 398.19311,2122.8465 390.77455,2145.1203 386.75255,2162.135 C 372.96328,2220.4693 365.51064,2227.8402 318.02195,2230.1115 C 299.01669,2231.0206 276.04239,2230.3812 266.96788,2228.6907 z"
         style="fill:url(#linearGradient3277);fill-opacity:1" />
      <path
         sodipodi:nodetypes="csscccsssssssssssscccsssssssssssssssssssssssssssssssssssssssscccsscccscccssssssssssssscccssssssssssscccssssssssssssssssssccssscccsssccsscccsssssssssccssscccsccsssssccsssssssccsssssssscccsssssccscccccssssssssssssssssssssssssssssssssssssssssssssssssssssssssssssssssssssssssssssssssssssssssssssssssssssssssssssssssssssssccssssccssssccssssssccssc"
         id="path3265"
         d="M 273.32481,2227.729 C 249.55192,2223.6088 232.99338,2215.1373 229.15343,2205.1307 C 224.41572,2192.7843 236.71576,2174.9109 258.35393,2162.6991 C 279.40127,2150.8207 280.11592,2149.7758 297.24146,2105.8381 L 314.6876,2061.0779 L 315.30981,1966.2081 C 315.652,1914.0297 314.47637,1859.7266 312.69725,1845.5346 C 309.74948,1822.0202 308.49237,1819.5333 298.52712,1817.5028 C 292.51271,1816.2773 276.85953,1812.2638 263.74234,1808.584 C 244.95067,1803.3123 238.8275,1802.9628 234.86891,1806.9362 C 231.38964,1810.4286 229.70508,1831.8852 229.39029,1876.7193 C 229.14028,1912.3263 227.85475,1967.0163 226.53363,1998.2525 C 224.18675,2053.7393 223.75638,2055.8265 207.82257,2088.9976 C 198.85263,2107.6712 190.34466,2126.6619 188.91599,2131.1991 C 184.07416,2146.5759 165.58556,2163.0402 146.81717,2168.6887 C 129.70952,2173.8373 95.51618,2173.5416 68.061553,2168.0076 C 57.495701,2165.8778 42.167502,2150.8363 42.167502,2142.5978 C 42.167502,2135.3765 60.589961,2118.8177 80.272017,2108.3479 C 88.752064,2103.8371 103.33626,2090.4734 112.6814,2078.6509 L 129.6726,2057.1554 L 127.21506,2017.8689 C 122.89939,1948.8778 117.91698,1918.4126 98.38742,1841.6 C 87.884121,1800.289 79.267878,1758.5256 79.240154,1748.7925 C 79.183876,1729.0249 59.497603,1680.0819 39.722647,1650.5462 C 20.383206,1621.661 17.51605,1612.0831 8.3681047,1545.8068 C -4.5296149,1452.3632 -4.7549593,1447.0941 3.1305664,1423.353 C 8.5225621,1407.1192 9.5965918,1395.0274 7.5768595,1373.2957 C 4.2429448,1337.4243 1.508731,1332.1156 -28.020014,1304.1814 C -47.076471,1286.1539 -52.542342,1278.1069 -54.636049,1264.996 C -57.557358,1246.703 -56.852307,1248.1328 -78.588393,1216.422 C -91.098927,1198.1703 -94.832093,1188.1387 -97.566632,1165.4245 C -99.555486,1148.904 -99.364971,1131.3323 -97.10834,1123.1595 C -93.909765,1111.5752 -94.724285,1107.1713 -101.84754,1097.5366 C -112.37927,1083.2916 -112.42918,1077.1275 -102.40577,1028.552 C -90.414958,970.44199 -78.146602,958.39817 1.5274572,926.52114 C 49.961522,907.143 81.375464,902.1437 118.47591,907.90965 C 134.35629,910.3777 171.47928,913.15968 200.97144,914.09185 C 258.33076,915.90481 255.22109,915.00103 334.78927,952.98421 C 354.93393,962.60059 387.48439,994.77491 390.89205,1008.4387 C 392.96613,1016.7552 390.16661,1029.1191 380.89914,1052.5713 C 373.81834,1070.49 368.02492,1087.6319 368.02492,1090.6644 C 368.02492,1097.1801 443.73924,1154.3153 472.78987,1169.7217 C 483.90376,1175.6157 497.45301,1180.4381 502.89936,1180.4381 C 508.3457,1180.4381 518.09265,1183.1741 524.55924,1186.5181 C 534.52344,1191.6708 548.17601,1192.0002 614.06834,1188.6779 C 782.85824,1180.1677 781.88947,1180.3783 785.78284,1151.3511 C 788.72792,1129.3938 797.00175,1119.5997 797.00175,1138.0707 C 797.00175,1145.1683 799.70562,1153.6793 803.01038,1156.984 C 806.31511,1160.2887 811.19506,1171.6344 813.85463,1182.1966 C 819.40391,1204.2348 832.20414,1213.4363 857.31259,1213.4363 C 866.02595,1213.4363 876.04181,1216.4963 880.48246,1220.515 C 884.78452,1224.4083 894.21143,1227.8295 901.43112,1228.1177 C 908.65084,1228.4059 920.59037,1230.0084 927.96342,1231.6787 C 942.98004,1235.0806 945.09663,1230.2554 936.68548,1211.7949 C 931.10519,1199.5474 926.33783,1197.2242 893.98665,1190.9864 C 871.01026,1186.5563 868.52659,1184.9462 858.31763,1167.8635 C 852.28247,1157.7648 846.28393,1140.847 844.98755,1130.2684 C 842.77415,1112.2068 843.31398,1110.7734 853.8455,1106.7493 C 860.01377,1104.3924 869.70092,1099.7277 875.37252,1096.3834 C 881.04408,1093.039 888.93272,1089.2957 892.90279,1088.0649 C 902.73856,1085.0157 901.97139,1079.4049 891.05246,1074.5327 C 883.10402,1070.986 884.71051,1069.947 904.05736,1066.1217 L 926.13095,1061.7572 L 964.68578,1099.4167 C 988.19381,1122.3789 1003.2406,1140.3286 1003.2406,1145.4099 C 1003.2406,1157.1331 1018.1562,1196.6002 1025.7634,1205.0061 C 1034.9679,1215.1769 1033.6526,1224.1504 1020.062,1243.9036 L 1008.01,1261.4206 L 1015.7241,1278.6505 C 1023.6315,1296.3122 1043.263,1319.156 1047.1733,1315.2456 C 1048.3751,1314.0439 1044.2742,1301.7316 1038.0602,1287.8849 L 1026.762,1262.7093 L 1036.1463,1252.7201 C 1046.398,1241.8077 1046.3963,1241.7797 1032.5172,1193.8958 C 1022.6962,1160.0127 1022.0016,1154.0512 1028.3306,1157.9628 C 1035.4494,1162.3624 1049.0427,1197.4097 1050.6341,1215.4674 C 1052.2412,1233.7023 1057.8837,1268.2513 1065.4596,1306.2438 C 1072.7393,1342.7507 1096.5679,1409.7988 1112.7862,1439.4098 C 1120.5949,1453.6668 1126.9839,1467.6852 1126.9839,1470.5619 C 1126.9839,1473.4385 1133.5021,1498.8759 1141.4687,1527.0894 C 1152.004,1564.3999 1155.7001,1585.1473 1155.0244,1603.1815 C 1154.3526,1621.1158 1158.3815,1643.9545 1169.5855,1685.7232 C 1183.1469,1736.2801 1185.477,1751.9441 1188.3004,1811.5289 C 1191.0427,1869.4049 1192.9402,1882.6735 1200.9827,1900.2116 C 1216.7807,1934.6621 1221.9111,1955.3899 1230.0793,2017.7678 C 1234.3868,2050.6629 1242.7385,2093.3543 1248.6386,2112.6377 C 1270.4146,2183.808 1269.8177,2177.183 1256.1903,2196.4568 L 1244.0024,2213.6947 L 1205.9786,2213.3655 C 1174.6184,2213.094 1165.9912,2211.5768 1156.7501,2204.7081 C 1141.6975,2193.5196 1140.8192,2179.007 1153.5161,2151.2734 C 1166.3276,2123.2892 1168.2033,2074.3297 1157.5609,2045.6935 C 1144.625,2010.8862 1137.4538,1994.848 1128.4753,1980.6448 C 1123.456,1972.7046 1117.1611,1957.8658 1114.4867,1947.6698 C 1111.8122,1937.4737 1106.0123,1922.0519 1101.5979,1913.3991 C 1089.1957,1889.0887 1029.6396,1796.3938 1014.0679,1777.1646 C 1006.4093,1767.7072 996.87344,1753.4727 992.87714,1745.5325 C 973.92779,1707.8821 950.3174,1690.54 938.12437,1705.3159 C 920.44255,1726.7433 902.58085,1838.8896 911.83534,1870.3738 C 930.81394,1934.94 930.98662,1920.6953 910.14839,2009.5182 C 884.14202,2120.3702 881.36471,2129.2739 867.67976,2145.6663 L 855.65281,2160.0726 L 805.37087,2160.0726 C 760.35787,2160.0726 754.47544,2159.2336 749.23432,2152.0659 C 738.04775,2136.7673 742.14615,2127.9874 770.14865,2107.2617 C 784.87157,2096.3647 801.43044,2081.5155 806.94612,2074.2635 C 821.60038,2054.9961 834.12473,2020.1981 834.12473,1998.7497 C 834.12473,1966.38 807.43453,1897.55 780.42355,1860.2625 C 765.92757,1840.2514 760.42285,1824.2003 754.15624,1783.6702 C 748.41814,1746.5584 742.11627,1740.0035 724.32997,1752.6464 C 704.92219,1766.4419 682.4785,1770.9949 668.78582,1763.9141 C 652.17594,1755.3248 649.20317,1755.9635 614.95796,1775.479 C 575.81428,1797.786 562.54785,1803.3269 503.12776,1822.1861 C 455.39154,1837.337 454.61666,1837.7818 450.51614,1852.3884 C 448.22713,1860.5422 445.37459,1877.4222 444.17718,1889.8997 C 442.97973,1902.3772 439.38279,1926.5071 436.18384,1943.5218 C 432.98493,1960.5365 427.57849,1989.3068 424.16957,2007.4558 C 420.76065,2025.6049 415.82433,2051.591 413.19998,2065.2027 C 410.57566,2078.8145 403.30139,2102.0164 397.03501,2116.7624 C 390.7686,2131.5085 383.29545,2155.6385 380.42803,2170.3845 C 374.61924,2200.2571 362.10939,2222.5911 349.52295,2225.56 C 329.36019,2230.316 294.05018,2231.3211 273.32481,2227.729 z M 368.07453,2122.5502 C 372.86546,2083.996 370.98362,2075.5146 357.6383,2075.5146 C 342.91521,2075.5146 326.77714,2097.4944 326.77714,2117.547 C 326.77714,2133.6891 326.4003,2134.1426 314.44489,2132.3879 C 305.32822,2131.0498 299.75262,2133.09 293.06175,2140.2121 L 284.01082,2149.8463 L 299.91362,2164.4127 C 312.79254,2176.2094 317.99645,2178.5003 327.28172,2176.4609 C 335.89889,2174.5682 340.59042,2176.106 346.16765,2182.6512 C 353.5661,2191.3337 353.60355,2191.3073 358.73783,2173.8024 C 361.57012,2164.1458 365.77165,2141.0824 368.07453,2122.5502 z M 1245.3419,2152.8542 C 1240.6212,2133.1404 1209.6722,2049.7811 1204.97,2044.1154 C 1201.1609,2039.5257 1201.1328,2035.6986 1204.848,2027.5446 C 1209.0741,2018.2694 1208.08,2014.3434 1196.9081,1996.1867 L 1184.1373,1975.4315 L 1190.6212,1955.608 C 1198.0088,1933.0216 1198.6089,1923.4127 1193.169,1914.8124 C 1189.855,1909.573 1188.3871,1909.6351 1181.889,1915.2896 C 1177.7804,1918.8648 1169.0918,1923.0585 1162.5809,1924.6091 C 1151.4052,1927.2706 1150.8888,1928.3396 1153.3488,1943.7235 C 1157.3151,1968.5275 1167.823,1996.6989 1179.9724,2015.1009 C 1189.7192,2029.864 1190.7994,2035.0612 1189.8353,2062.5573 C 1188.9416,2088.0447 1190.1131,2094.931 1196.5456,2102.0051 C 1200.8317,2106.7187 1206.5576,2117.5063 1209.2697,2125.9776 C 1213.7182,2139.8727 1234.9676,2161.9738 1243.9897,2162.0893 C 1245.9556,2162.1144 1246.5641,2157.9586 1245.3419,2152.8542 z M 147.96288,2126.5068 C 171.25237,2115.4552 185.85128,2078.8645 178.24356,2050.6115 C 173.54105,2033.1477 164.03594,2028.9296 159.75805,2042.4081 C 158.33689,2046.8858 152.17932,2052.932 146.07456,2055.8441 C 131.53114,2062.7817 129.16301,2080.791 140.73593,2096.4442 L 149.22301,2107.9236 L 134.07411,2115.4366 C 125.74217,2119.5688 118.20534,2125.2698 117.32561,2128.1056 C 115.05962,2135.4096 130.9488,2134.5805 147.96288,2126.5068 z M 857.92312,2107.4817 C 862.0687,2102.3739 886.99703,2021.3346 890.66731,2001.0341 C 891.74061,1995.0977 890.16675,1988.4915 887.06692,1985.9215 C 882.61076,1982.2269 881.50469,1985.1051 881.27161,2001.0018 C 881.0877,2013.5391 877.79224,2025.724 872.16417,2034.6759 C 857.40898,2058.1451 849.85711,2076.7152 847.58846,2095.1074 C 845.42018,2112.6864 849.61875,2117.7137 857.92312,2107.4817 z M 203.54561,2053.8596 C 205.08026,2026.0313 201.55935,1997.5022 194.99866,1984.6055 C 190.91351,1976.5751 186.31392,1964.5102 184.77739,1957.7945 C 183.24085,1951.0788 174.88056,1930.8824 166.19898,1912.9135 C 152.03605,1883.5994 150.08312,1881.2686 147.19053,1890.2272 C 137.91708,1918.9483 152.2669,1984.7696 167.80192,1984.7696 C 177.57623,1984.7696 190.61937,2009.4392 190.70042,2028.0797 C 190.78787,2048.1972 194.4915,2063.1403 199.39011,2063.1403 C 201.39413,2063.1403 203.26416,2058.964 203.54561,2053.8596 z M 375.35667,2007.222 C 388.15963,1998.2544 388.51034,1962.7335 375.92811,1949.3403 C 368.4446,1941.3745 367.70784,1937.1838 370.23487,1916.9579 C 372.71376,1897.1179 374.81796,1892.8565 384.64532,1887.7746 C 398.3396,1880.693 401.05801,1874.6344 396.30553,1861.7874 C 391.99868,1850.1451 396.92468,1839.9118 411.40177,1830.426 C 420.25704,1824.6238 421.89591,1820.7663 420.85,1808.1868 C 419.60113,1793.1659 419.37382,1792.9861 403.42086,1794.4006 C 394.53076,1795.1888 380.60964,1800.2302 372.48503,1805.6035 C 364.36038,1810.9768 351.6805,1817.4741 344.30745,1820.0417 L 330.9019,1824.7103 L 330.9019,1871.4044 C 330.9019,1897.0861 332.05492,1921.1031 333.46416,1924.7755 C 334.87337,1928.4479 341.36991,1934.2158 347.90088,1937.5931 C 357.85561,1942.7409 359.77537,1946.294 359.77537,1959.5706 C 359.77537,1969.1618 356.52194,1979.5435 351.52581,1985.8951 C 343.13212,1996.5659 341.07036,2005.9374 346.02611,2010.8931 C 350.86163,2015.7287 365.89871,2013.8466 375.35667,2007.222 z M 427.24182,1911.8156 C 432.98045,1887.1042 432.55234,1881.6502 424.87386,1881.6502 C 419.194,1881.6502 410.48396,1906.1528 407.2789,1931.1475 L 404.36981,1953.8337 L 412.84269,1945.5842 C 417.50277,1941.0469 423.98238,1925.8511 427.24182,1911.8156 z M 1118.8887,1814.6225 C 1126.2899,1806.7501 1127.4097,1801.2732 1126.2678,1778.5307 C 1124.9675,1752.6351 1125.2736,1751.6709 1135.2335,1750.2933 C 1150.4991,1748.1816 1155.1648,1742.6553 1158.0768,1723.2363 C 1159.9271,1710.8976 1158.5992,1700.965 1153.5723,1689.5442 C 1148.9967,1679.1486 1146.7061,1664.4862 1147.1759,1648.6003 C 1148.1284,1616.3975 1133.7111,1510.0689 1124.8045,1483.6092 C 1115.2794,1455.3118 1092.178,1405.6411 1081.6956,1390.92 C 1075.4148,1382.0993 1066.4697,1376.9203 1049.0958,1372.0455 C 1035.9268,1368.3504 1019.7579,1361.0261 1013.1651,1355.7692 C 1002.6392,1347.3761 1001.1782,1343.5434 1001.1782,1324.3232 C 1001.1782,1300.9587 996.12791,1295.3629 970.2424,1290.0463 C 964.5708,1288.8814 956.21815,1282.2701 951.68089,1275.3544 C 941.61782,1260.0165 916.42341,1251.5702 901.29545,1258.4629 C 895.89884,1260.9218 888.32253,1262.989 884.45917,1263.0567 C 873.49811,1263.2488 843.50437,1291.9149 832.83602,1312.3948 C 826.66161,1324.2478 817.74107,1333.7874 808.06879,1338.8809 C 799.75442,1343.2593 780.73293,1358.5888 765.79877,1372.9464 C 748.6745,1389.4097 735.17707,1399.0512 729.25394,1399.0512 C 724.08839,1399.0512 713.68732,1401.2037 706.14045,1403.8346 C 693.01779,1408.4092 691.86563,1407.959 679.74505,1393.5225 C 672.77448,1385.22 665.07462,1378.4271 662.63428,1378.4272 C 649.50388,1378.4277 628.0872,1416.8128 627.94798,1440.5954 C 627.87152,1453.6527 615.88617,1489.7963 611.63278,1489.7963 C 609.92595,1489.7963 602.80789,1486.9421 595.81491,1483.4535 C 581.05912,1476.0923 577.38425,1464.3141 577.24314,1423.93 C 577.14201,1394.9951 573.60091,1386.6769 561.3844,1386.6769 C 555.8332,1386.6769 553.63989,1389.6554 553.63989,1397.1937 C 553.63989,1402.9779 551.10811,1412.7227 548.01365,1418.8488 C 544.91919,1424.9748 541.10726,1440.0011 539.54264,1452.2405 C 535.91458,1480.6217 522.72498,1507.2922 513.20646,1505.4945 C 505.74666,1504.0856 479.75592,1455.1941 469.77765,1423.7999 C 466.53292,1413.5911 463.70949,1398.1743 463.5034,1389.5403 C 463.03276,1369.8229 449.24747,1349.5539 436.30792,1349.5539 C 423.96551,1349.5539 418.52109,1356.4755 416.82803,1374.3191 C 415.67063,1386.5178 413.89653,1388.7393 405.3122,1388.7393 C 393.89938,1388.7393 376.27448,1366.5681 376.27448,1352.2114 C 376.27448,1347.5382 382.52041,1337.1398 390.15429,1329.1039 C 407.04284,1311.3263 422.69439,1281.3742 431.87889,1249.2564 C 438.17047,1227.2552 438.19378,1224.4353 432.16028,1215.227 C 428.54199,1209.7049 423.98148,1205.1867 422.0258,1205.1867 C 415.81071,1205.1867 372.14969,1243.1001 372.14969,1248.497 C 372.14969,1258.7974 360.32012,1264.506 349.3413,1259.5037 C 336.56822,1253.6839 336.01214,1239.8851 347.63277,1217.1069 C 357.45047,1197.8626 357.34648,1170.1261 347.4566,1170.1261 C 344.08427,1170.1261 338.75831,1175.6946 335.62115,1182.5004 C 323.48706,1208.8249 305.07313,1234.0601 297.99851,1234.0601 C 288.0202,1234.0601 283.92738,1195.7087 292.18786,1179.6117 C 295.33156,1173.4856 297.90371,1165.2213 297.90371,1161.2466 C 297.90371,1152.9378 274.04656,1126.816 266.4581,1126.816 C 259.46392,1126.816 244.28161,1146.8769 244.28161,1156.1186 C 244.28161,1160.2801 240.69679,1170.7026 236.31534,1179.2798 C 223.61972,1204.1331 223.82807,1211.1569 237.30686,1212.7026 C 254.75895,1214.7038 255.17969,1223.9415 238.65192,1242.2358 C 230.52027,1251.2366 222.62634,1263.752 221.10992,1270.048 C 219.59347,1276.3439 213.85315,1290.4964 208.35358,1301.4979 C 202.85404,1312.4995 199.07014,1322.2164 199.94485,1323.0912 C 200.8196,1323.966 207.80504,1318.2129 215.46805,1310.3068 C 223.99308,1301.5111 233.36514,1295.9318 239.61479,1295.9318 C 245.98562,1295.9318 258.92063,1288.024 273.99234,1274.915 C 301.16956,1251.277 311.62465,1250.4015 309.51029,1271.941 C 308.46263,1282.6139 303.97247,1288.0656 285.97358,1300.518 C 259.36528,1318.9267 256.27616,1323.2694 260.98319,1335.6497 C 266.40421,1349.9082 258.00773,1368.5654 241.89001,1378.0751 C 230.34605,1384.8862 227.7825,1388.8805 227.7825,1400.0567 C 227.7825,1407.5687 230.75886,1417.9641 234.39664,1423.1578 C 239.2752,1430.1229 240.30062,1437.3369 238.30429,1450.6493 C 235.88099,1466.8089 236.66675,1469.3982 245.81254,1475.3907 C 254.96733,1481.3891 257.26234,1481.445 267.92869,1475.9293 C 275.65332,1471.9347 281.91578,1471.0945 285.77327,1473.5353 C 294.77094,1479.2282 296.6067,1478.4546 306.25679,1464.9023 C 313.49049,1454.7435 314.21151,1451.2257 310.08024,1446.2479 C 305.58541,1440.8319 303.80988,1440.8857 294.92589,1446.7067 C 277.47367,1458.1418 273.3432,1452.4101 274.05041,1417.7385 C 274.89193,1376.4797 276.98616,1374.7627 325.62814,1375.4507 C 368.56274,1376.0579 371.6306,1378.3123 361.73882,1401.9866 C 356.20934,1415.2205 356.21378,1417.5855 361.77979,1423.7359 C 369.7213,1432.5111 369.96537,1464.942 362.17015,1475.6024 C 356.41592,1483.4717 356.14585,1483.4499 346.43642,1474.3284 C 341.00296,1469.224 334.47006,1465.0477 331.91893,1465.0477 C 325.06951,1465.0477 264.90549,1519.2125 264.90549,1525.379 C 264.90549,1528.2825 256.55446,1534.3521 246.34766,1538.8671 C 229.64871,1546.2538 198.97856,1573.8396 198.92876,1581.5173 C 198.9179,1583.1883 205.57348,1587.3401 213.71891,1590.7434 C 230.90601,1597.9247 237.37705,1595.6198 262.09763,1573.5116 C 277.44761,1559.7837 289.41623,1557.124 292.61435,1566.7299 C 293.48411,1569.3425 285.6961,1577.5839 275.30765,1585.0444 C 253.58923,1600.6413 248.64317,1613.1786 258.35871,1628.0064 C 266.92967,1641.0874 269.87741,1640.9256 296.47648,1625.914 C 324.36529,1610.1745 337.04826,1609.9041 344.84082,1624.8828 C 348.08645,1631.1215 355.57955,1640.7454 361.49216,1646.2692 C 367.4048,1651.793 374.15053,1663.3989 376.48276,1672.0601 C 381.86685,1692.0549 396.16727,1701.989 414.59102,1698.5327 C 430.94537,1695.4646 457.27275,1666.0587 465.7846,1641.3529 C 468.89812,1632.3158 474.14887,1619.6942 477.45294,1613.3048 C 480.75697,1606.9155 482.34517,1598.7819 480.98228,1595.2302 C 479.61933,1591.6785 479.71575,1583.9453 481.19651,1578.0455 C 483.66922,1568.1935 485.13547,1567.5485 499.17166,1570.1392 C 507.57724,1571.6906 518.53637,1576.7567 523.52539,1581.3973 C 535.34675,1592.3931 545.39033,1588.425 545.39033,1572.7587 C 545.39033,1556.5371 549.17407,1547.5432 555.99848,1547.5432 C 566.61467,1547.5432 569.72112,1562.2239 567.2326,1600.6345 C 564.80006,1638.1815 564.90276,1638.7392 576.47713,1650.8202 C 587.67539,1662.5087 589.71846,1663.037 623.72524,1663.037 C 655.64436,1663.037 661.143,1661.8485 677.64586,1651.3827 C 707.10671,1632.6992 732.59971,1624.2695 742.9268,1629.7964 C 757.45559,1637.572 753.4297,1648.8472 731.25209,1662.4932 C 708.71586,1676.3598 698.635,1690.0635 705.74213,1697.1706 C 713.40088,1704.8293 742.33132,1692.7442 765.7829,1672.0898 C 777.87593,1661.4392 801.44824,1644.3876 818.16586,1634.1975 C 834.88341,1624.0073 855.98606,1608.9425 865.06056,1600.7202 C 887.76994,1580.1435 904.71898,1572.2919 926.42801,1572.2919 C 949.85217,1572.2919 957.94507,1581.7361 967.66915,1620.4195 C 971.56531,1635.9189 977.42642,1653.2406 980.6938,1658.9122 C 983.96118,1664.5838 991.60778,1679.433 997.6863,1691.9104 C 1003.7648,1704.3878 1015.9325,1722.8359 1024.7255,1732.9061 C 1033.5186,1742.9763 1047.2652,1762.0019 1055.2736,1775.1851 C 1063.282,1788.3683 1071.0921,1799.1842 1072.6293,1799.2205 C 1074.1665,1799.2567 1081.7082,1804.8252 1089.3887,1811.5948 C 1106.1317,1826.3523 1107.7088,1826.5142 1118.8887,1814.6225 z M 746.47371,1725.1811 C 766.30235,1710.8173 770.48718,1704.9937 764.9554,1699.4619 C 762.23321,1696.7397 758.25716,1696.7593 753.14669,1699.5202 C 748.9091,1701.8095 742.3019,1704.6464 738.46401,1705.8243 C 729.48759,1708.5795 717.11413,1727.3669 720.58125,1732.9768 C 724.5991,1739.4778 728.2586,1738.376 746.47371,1725.1811 z M 219.2051,1541.705 C 224.3529,1536.2254 233.47461,1530.5098 239.47544,1529.0037 C 252.13058,1525.8274 256.50456,1520.2883 256.59278,1507.3266 C 256.67877,1494.6901 250.85604,1495.6177 225.83296,1512.2271 C 197.37701,1531.1151 192.24602,1537.4524 198.90904,1545.4808 C 205.81732,1553.8048 208.26589,1553.3492 219.2051,1541.705 z M 260.78069,1093.0773 C 260.78069,1086.8499 245.47378,1038.7657 236.99845,1018.3693 C 232.68911,1007.9985 228.53902,1003.4826 224.67904,1004.9638 C 221.47761,1006.1923 215.51413,1007.1974 211.42689,1007.1974 C 199.48573,1007.1974 198.2764,1026.5227 209.2094,1042.6334 C 214.35361,1050.2138 219.87503,1063.4393 221.47927,1072.0233 C 223.08341,1080.6073 226.31323,1089.9508 228.65665,1092.7865 C 234.09244,1099.3645 260.78069,1099.6061 260.78069,1093.0773 z M 983.6013,1104.4594 C 975.13493,1096.7006 969.65744,1088.903 971.42908,1087.1313 C 973.20073,1085.3597 982.44788,1091.7078 991.97835,1101.2383 C 1012.6754,1121.9353 1005.6279,1124.6453 983.6013,1104.4594 z"
         style="fill:#9e9e9e" />
      <path
         id="path3267"
         d="M 271.86523,2223.8264 C 235.97369,2217.7972 224.25548,2203.7685 238.3283,2183.6767 C 246.59439,2171.8752 258.25675,2171.2171 254.59353,2182.7589 C 251.69062,2191.9053 256.87835,2193.3872 269.03138,2186.8831 C 274.23943,2184.0958 280.50651,2184.1947 288.35289,2187.1882 C 296.96797,2190.4749 304.12338,2190.2505 316.06922,2186.319 C 331.11154,2181.3683 332.57122,2181.6199 338.22741,2190.1386 C 345.77158,2201.5006 358.36045,2201.9645 361.83776,2191.0084 C 365.18948,2180.4481 372.14969,2180.2929 372.14969,2190.7784 C 372.14969,2204.7969 354.79545,2220.3771 334.90654,2224.2142 C 313.07689,2228.4258 298.71963,2228.3375 271.86523,2223.8264 z M 1178.5436,2208.7904 C 1171.7377,2207.86 1161.7726,2203.7682 1156.3988,2199.6976 C 1148.3725,2193.6177 1147.4128,2190.8305 1151.0229,2184.085 C 1154.3524,2177.8638 1158.47,2176.3215 1168.0117,2177.722 C 1178.7143,2179.2928 1180.606,2178.2415 1180.606,2170.7232 C 1180.606,2157.6295 1192.811,2154.8386 1201.7571,2165.8865 C 1206.6182,2171.8897 1211.9066,2174.2949 1216.8177,2172.7362 C 1228.2117,2169.1199 1249.9834,2192.9646 1243.9954,2202.5016 C 1239.4891,2209.679 1207.5151,2212.7511 1178.5436,2208.7904 z M 88.683534,2166.662 C 49.5531,2162.9047 29.337715,2137.3863 65.491691,2137.3863 C 73.704625,2137.3863 85.401448,2133.5967 92.258099,2128.7143 L 104.43686,2120.0423 L 109.26707,2132.8391 C 114.88577,2147.7247 122.64572,2148.899 141.95761,2137.786 C 149.46031,2133.4686 161.63136,2128.6808 169.00441,2127.1464 C 180.38877,2124.7772 182.40993,2125.5334 182.40993,2132.1621 C 182.40993,2142.3938 163.36174,2159.7966 145.70263,2165.6985 C 131.02175,2170.6051 129.93928,2170.6234 88.683534,2166.662 z M 755.50037,2149.5071 C 741.44578,2135.4525 746.68345,2128.285 775.7219,2121.8351 C 800.74943,2116.276 802.26797,2116.3967 811.04668,2124.6439 C 832.34917,2144.6566 861.91109,2129.1351 872.77207,2092.235 C 879.49157,2069.4056 887.74683,2065.3201 887.74683,2084.824 C 887.74683,2104.6302 864.67638,2149.3268 851.95729,2154.1626 C 846.39124,2156.2788 824.32466,2158.0102 802.92037,2158.0102 C 769.11635,2158.0102 762.8864,2156.8931 755.50037,2149.5071 z M 786.86909,1862.1466 C 773.93066,1848.2341 759.87876,1812.2125 759.87876,1792.9578 C 759.87876,1782.8024 762.32684,1777.5108 768.57114,1774.1689 C 781.78694,1767.0961 786.21191,1774.906 785.05465,1803.2618 C 784.17332,1824.8565 785.45825,1829.887 794.64412,1840.8038 C 813.19025,1862.8445 805.96446,1882.6797 786.86909,1862.1466 z M 449.29602,1817.9648 C 443.20358,1811.8724 443.03887,1809.426 447.93223,1797.7144 C 450.99345,1790.388 454.87029,1771.5798 456.54751,1755.9185 C 458.64799,1736.3039 463.31883,1720.8484 471.5578,1706.2497 C 478.13631,1694.5933 483.51868,1682.1853 483.51868,1678.6764 C 483.51868,1675.1675 486.30289,1669.9859 489.70584,1667.1617 C 498.09484,1660.1995 508.26735,1668.6117 508.26735,1682.5113 C 508.26735,1696.0946 519.51149,1720.1568 532.4363,1734.2325 C 541.82211,1744.4541 542.41471,1746.9856 538.22948,1758.9812 C 535.66526,1766.3305 531.51892,1780.2198 529.0153,1789.8463 C 523.59807,1810.676 510.04806,1819.3393 477.65753,1822.6823 C 460.98029,1824.4036 454.68818,1823.357 449.29602,1817.9648 z M 890.49672,1821.1534 C 888.98429,1819.641 887.74683,1813.2963 887.74683,1807.054 C 887.74683,1800.8118 886.53335,1792.5422 885.05024,1788.6773 C 882.66223,1782.4542 881.52661,1782.7464 875.12725,1791.2302 C 868.96924,1799.3941 866.92873,1800.0035 861.32477,1795.3526 C 857.41718,1792.1097 854.74861,1783.5331 854.74861,1774.2174 C 854.74861,1752.0943 838.24286,1732.8498 820.44344,1734.2199 C 808.574,1735.1336 807.10546,1733.8728 803.54882,1719.7158 C 800.01851,1705.6637 800.74641,1703.0705 811.31817,1692.036 L 822.98272,1679.8608 L 807.38914,1684.1664 C 794.91445,1687.6108 790.58141,1687.2579 785.72513,1682.4016 C 774.57226,1671.2487 783.05962,1660.4594 810.54154,1650.8544 C 824.64663,1645.9247 844.53978,1637.5318 854.74861,1632.2036 C 887.77921,1614.9641 899.153,1615.0884 923.53163,1632.9548 C 949.70395,1652.1358 956.89053,1666.1046 949.61849,1683.6608 C 946.79941,1690.4667 943.06634,1696.0352 941.32278,1696.0352 C 931.81801,1696.0352 916.54068,1745.1502 906.36034,1808.4354 C 904.07485,1822.643 897.36532,1828.0221 890.49672,1821.1534 z M 159.91234,1691.252 C 145.0608,1674.9324 141.18827,1667.959 143.30562,1661.3473 C 144.82426,1656.6051 147.42434,1643.8338 149.08343,1632.9667 C 153.96248,1601.0096 173.01575,1590.8935 182.30564,1615.3277 C 184.44882,1620.9646 193.23768,1629.2148 201.83646,1633.6614 C 210.4352,1638.108 230.33829,1653.596 246.06551,1668.0791 C 267.99912,1688.2777 273.99274,1696.1522 271.79408,1701.8818 C 269.61239,1707.5672 266.2302,1708.7417 257.6358,1706.7985 C 225.43237,1699.517 203.76462,1699.1803 194.29351,1705.8141 C 189.0166,1709.5102 183.4799,1712.5343 181.98972,1712.5343 C 180.4995,1712.5343 170.56469,1702.9573 159.91234,1691.252 z M 64.002034,1455.7669 C 59.286237,1450.604 54.233935,1437.4876 52.615121,1426.2051 C 49.488322,1404.4131 43.085049,1391.7742 25.274477,1372.2402 C 19.06909,1365.4343 12.008378,1352.3529 9.5840413,1343.1703 C 5.1525897,1326.3857 -7.4735679,1311.7095 -29.547654,1297.6851 C -42.185566,1289.6557 -52.702344,1269.5757 -52.702344,1253.4751 C -52.702344,1248.1272 -61.055021,1232.9951 -71.263834,1219.8481 C -81.472648,1206.7012 -89.825318,1195.3741 -89.825318,1194.677 C -89.825318,1193.9798 -91.741452,1179.6326 -94.083446,1162.7943 C -97.087389,1141.1967 -97.029684,1128.7288 -93.887453,1120.464 C -90.166472,1110.6771 -90.82348,1106.8683 -97.878834,1097.3255 C -102.5239,1091.0427 -106.29319,1080.7227 -106.25508,1074.3921 C -106.11134,1050.5191 -91.562491,992.34907 -82.580504,979.73501 C -72.250542,965.22787 -48.554939,950.1355 -15.140655,936.78072 C 22.512805,921.73165 29.13362,920.50679 35.954877,927.32802 C 41.190158,932.56332 44.346307,932.69754 56.749843,928.21238 C 68.665836,923.9035 72.952093,923.911 79.904566,928.2529 C 84.597088,931.18342 103.54796,934.51042 122.01763,935.64622 C 140.48731,936.78203 157.36224,939.42457 159.51743,941.51855 C 166.66006,948.45827 187.63266,945.46643 200.5821,935.66049 C 207.60211,930.34458 221.37521,924.73168 231.18896,923.18738 C 247.10285,920.68315 250.78496,921.76778 265.24266,933.21847 C 277.4489,942.886 286.28926,946.30447 301.03167,947.05765 C 322.1569,948.13694 347.54037,961.41747 371.07559,983.70435 C 389.08235,1000.756 392.14318,1018.9794 381.14646,1043.6643 C 376.43784,1054.234 368.83563,1071.2346 364.25267,1081.4434 C 359.66972,1091.6522 351.85488,1105.0153 346.88638,1111.1391 C 340.93864,1118.4698 337.72233,1128.333 337.47092,1140.0125 C 337.12761,1155.9619 335.99959,1157.8782 326.29133,1159.0043 C 317.7902,1159.9905 311.77834,1156.0426 298.02583,1140.4428 C 275.59024,1114.9937 268.71602,1101.1853 252.50411,1049.0027 C 239.86294,1008.3134 225.86902,984.5711 220.06388,993.96404 C 218.6228,996.29573 211.95816,998.83501 205.25354,999.60687 C 194.22814,1000.8762 192.96472,1002.5848 192.03094,1017.4896 C 191.19597,1030.8169 192.96914,1035.5506 201.30117,1042.2382 C 211.12319,1050.1218 217.57308,1068.3187 227.62472,1116.504 C 229.51766,1125.5785 232.94387,1138.9018 235.23842,1146.1113 C 238.69708,1156.9782 237.8122,1162.2679 230.06377,1177.0472 C 224.92311,1186.8523 219.63972,1201.8327 218.32292,1210.3369 C 216.36786,1222.9627 217.41636,1226.5951 224.03867,1230.1393 C 231.86284,1234.3266 231.64357,1235.3806 217.81662,1260.0497 C 200.29696,1291.3069 185.67192,1306.6256 163.21438,1317.2414 C 153.79116,1321.6959 143.05899,1328.6799 139.36513,1332.7616 C 133.10486,1339.6791 133.33665,1340.6334 142.7799,1346.8209 C 158.22221,1356.939 159.32353,1367.1718 147.48464,1390.5347 C 136.43356,1412.3429 87.194043,1465.0477 77.870756,1465.0477 C 74.905255,1465.0477 68.664341,1460.8713 64.002034,1455.7669 z M 79.290522,1300.0566 C 91.767966,1295.6674 107.79604,1292.0157 114.90845,1291.9417 C 124.08222,1291.8462 134.5995,1286.2423 151.10024,1272.658 C 163.89327,1262.1261 173.50612,1252.6549 172.46214,1251.6108 C 170.70327,1249.852 143.624,1262.1436 114.35111,1277.988 C 89.990312,1291.1736 78.506548,1295.9318 71.044054,1295.9318 C 60.565823,1295.9318 50.417059,1300.2078 50.417059,1304.6227 C 50.417059,1309.6692 53.227073,1309.2248 79.290522,1300.0566 z M 52.35767,1234.2572 C 55.702641,1228.8449 19.420936,1195.9681 3.5529003,1190.0326 C -21.685503,1180.5921 -56.961907,1184.7541 -65.722667,1198.206 C -68.693142,1202.7671 -61.407563,1221.6858 -56.68065,1221.6858 C -55.059745,1221.6858 -52.61987,1216.1174 -51.258673,1209.3115 C -49.499114,1200.5137 -46.400305,1196.9372 -40.537069,1196.9372 C -35.545859,1196.9372 -29.7642,1201.8222 -25.891312,1209.3115 C -17.814275,1224.9307 -5.2350321,1226.4688 -9.0236198,1211.3739 C -13.435283,1193.7964 4.0218171,1198.1733 23.374307,1219.4968 C 40.014396,1237.8317 47.722422,1241.7572 52.35767,1234.2572 z M 209.46563,1159.4184 C 212.57984,1154.3794 200.56796,1140.2813 196.56824,1144.2809 C 193.15643,1147.6928 198.52837,1163.9389 203.06836,1163.9389 C 205.05021,1163.9389 207.92899,1161.9047 209.46563,1159.4184 z M 182.40993,1040.8122 C 182.40993,1036.5733 142.5677,1011.3222 135.87945,1011.3222 C 129.10541,1011.3222 141.74169,1023.0861 160.41689,1034.1656 C 178.06314,1044.6346 182.40993,1045.9483 182.40993,1040.8122 z M 48.814215,1019.5233 C 51.767232,1009.522 53.547543,1000.7034 52.770475,999.92632 C 49.320584,996.47644 33.917979,1021.6871 33.917979,1030.7837 C 33.917979,1046.5364 42.826569,1039.8022 48.814215,1019.5233 z M 492.98108,1284.4561 C 489.10185,1278.2903 480.28148,1268.2832 473.38017,1262.2182 C 462.97041,1253.0697 461.61054,1249.907 465.39926,1243.6567 C 472.72688,1231.5681 481.47305,1232.6848 497.44521,1247.7485 C 509.13157,1258.7702 512.39211,1265.017 512.39211,1276.3849 C 512.39211,1295.4636 502.49545,1299.5786 492.98108,1284.4561 z M 658.82169,1242.2664 C 642.61104,1238.4762 608.72641,1206.1972 614.69397,1200.2296 C 620.75224,1194.1713 652.07102,1199.5381 668.31819,1209.4186 C 679.73499,1216.3616 681.28278,1219.1848 678.99441,1228.893 C 675.38591,1244.2022 673.22593,1245.6342 658.82169,1242.2664 z M 466.0633,1217.6942 C 442.75293,1199.3583 449.0729,1165.7413 474.17308,1174.5572 C 488.10309,1179.4498 503.0819,1207.632 496.95328,1217.4173 C 490.93472,1227.0267 478.07429,1227.142 466.0633,1217.6942 z M 792.85348,1219.939 C 767.79762,1213.0176 755.75397,1206.1398 755.75397,1198.7523 C 755.75397,1192.1923 771.56609,1184.5628 785.16162,1184.5628 C 793.15755,1184.5628 834.11863,1216.4828 834.12271,1222.717 C 834.12563,1227.2007 814.31336,1225.8671 792.85348,1219.939 z M 952.39427,1172.3847 C 939.44522,1162.5832 933.88605,1160.851 921.45844,1162.7455 C 913.12588,1164.0157 903.19818,1167.7508 899.39688,1171.0457 C 889.95569,1179.2291 879.94415,1176.4428 869.76763,1162.7997 L 861.22612,1151.3485 L 871.39288,1132.6436 C 876.98462,1122.3558 888.52025,1107.4805 897.02759,1099.5871 C 905.53493,1091.6938 912.4955,1082.6809 912.4955,1079.5585 C 912.4955,1067.0088 924.03481,1071.4373 947.55609,1093.014 C 994.19603,1135.7978 1006.6642,1165.9402 982.82154,1178.2697 C 976.12831,1181.7309 970.09584,1184.5112 969.41602,1184.4481 C 968.7362,1184.385 961.07642,1178.9564 952.39427,1172.3847 z"
         style="fill:#6b6b6b" />
      <path
         style="fill:#171717;fill-opacity:1"
         d="M 309.02882,1143.7944 C 286.47437,1120.3179 269.30551,1090.4017 254.20836,1048.2717 C 249.09954,1034.015 239.51504,1010.3129 232.90954,995.60043 C 215.91826,957.75559 214.23721,952.28309 216.2719,941.43741 C 217.88814,932.82234 218.59452,932.15666 224.53788,933.64832 C 228.11216,934.54542 234.21744,933.96184 238.10512,932.35153 C 244.55295,929.68075 246.70989,930.40653 262.66657,940.61544 C 279.1635,951.17007 281.48819,951.90742 303.4945,953.56535 C 321.4327,954.91674 329.213,956.71905 337.13545,961.35825 C 355.42472,972.06811 373.41256,987.77854 381.12645,999.77982 C 387.34149,1009.4492 388.47493,1013.4682 387.63315,1022.8504 C 386.31974,1037.4876 367.53531,1076.884 351.79154,1098.0205 C 338.59473,1115.7378 333.38117,1127.4674 333.20999,1139.827 C 332.93807,1159.4548 325.28122,1160.7112 309.02884,1143.7944 L 309.02882,1143.7944 z"
         id="path3269" />
      <path
         style="fill:#171717;fill-opacity:1"
         d="M -18.785422,1283.0475 C -24.049759,1281.1146 -30.539631,1277.5579 -33.207285,1275.1437 C -39.227781,1269.6952 -39.499259,1260.047 -33.722943,1256.8144 C -29.87818,1254.6628 -30.15615,1254.0389 -36.18292,1251.2928 C -43.560313,1247.9314 -44.336257,1246.234 -46.813305,1228.0373 C -48.305337,1217.0758 -48.020996,1216.0227 -43.888933,1217.2084 C -17.960727,1224.6489 -7.1034225,1226.7622 -1.1694862,1225.5232 C 22.915225,1220.4948 21.472221,1220.3298 25.749408,1228.6009 C 31.095593,1238.9393 39.41331,1240.6415 56.854692,1234.9669 C 74.221535,1229.3166 77.317686,1227.1719 77.317686,1220.7931 C 77.317686,1217.0635 76.217342,1216.2507 72.928439,1217.5514 C 58.175286,1223.3858 53.907483,1222.217 35.906502,1207.4131 C 3.8465623,1181.0471 -19.003011,1174.7064 -53.944495,1182.4803 C -64.669075,1184.8663 -74.119215,1186.143 -74.944737,1185.3174 C -75.770212,1184.4919 -73.451751,1181.4614 -69.792436,1178.5829 C -61.874413,1172.3547 -61.031329,1163.7625 -68.155458,1161.8996 C -74.756179,1160.1733 -74.483131,1157.1849 -66.901402,1148.1746 C -59.805285,1139.7413 -58.779959,1133.583 -64.4719,1133.583 C -74.380957,1133.583 -69.534941,1118.0327 -56.403529,1107.6924 C -49.49126,1102.2492 -48.612464,1093.4351 -54.987631,1093.4908 C -61.307919,1093.5463 -64.264059,1096.1901 -67.803927,1104.953 C -69.523169,1109.2091 -74.358874,1116.4457 -78.549876,1121.0342 C -86.792155,1130.0583 -90.612549,1128.5447 -90.690511,1116.2241 C -90.711635,1112.8844 -94.266948,1102.8893 -98.59133,1094.0129 C -105.68381,1079.4541 -106.30838,1076.3172 -104.96936,1061.9774 C -102.99386,1040.823 -93.798969,1001.9816 -87.639462,988.7725 C -80.041481,972.47837 -65.691951,960.00129 -40.08128,947.42 C -7.3710549,931.35099 27.154539,922.53625 27.154539,930.2539 C 27.154539,931.54086 17.296983,941.41674 5.2488423,952.20032 C -28.941475,982.80201 -69.438431,1022.7772 -67.854261,1024.3613 C -67.064852,1025.1507 -59.128036,1023.8843 -50.21687,1021.547 C -29.767501,1016.1835 -25.528577,1017.6393 -25.478369,1030.0428 C -25.457266,1035.2592 -24.34587,1041.2201 -23.008632,1043.2893 C -21.053674,1046.3144 -20.569745,1045.9135 -20.53887,1041.2433 C -20.449785,1027.7689 -10.047929,1020.934 -2.8429169,1029.6155 C 3.9732064,1037.8284 10.433993,1032.813 22.028063,1010.309 C 35.342332,984.46631 34.546679,982.06965 11.799745,979.4961 C 3.4010726,978.54597 -2.7963778,977.09424 -1.972273,976.27011 C -1.148157,975.44602 10.690924,973.90691 24.336864,972.8499 C 45.958823,971.17508 51.385517,969.75574 66.559589,961.80676 L 83.971565,952.68547 L 105.68527,955.72308 C 122.26799,958.04292 131.51307,958.08121 144.81021,955.88525 C 154.38657,954.30372 163.87799,953.64537 165.90234,954.42218 C 170.40162,956.14876 182.80618,983.10005 183.44845,992.54468 C 184.06044,1001.5432 177.56003,1001.6969 173.28868,992.78501 C 168.95399,983.74103 154.70654,977.56088 134.9294,976.1458 C 122.47641,975.25481 116.33748,976.01465 110.15377,979.21237 C 100.55119,984.17805 101.50701,985.90653 115.75779,989.34565 C 122.211,990.90295 126.2268,993.30097 126.2268,995.59728 C 126.2268,998.63634 122.70123,999.17517 107.08128,998.52326 L 87.935749,997.72434 L 78.640677,1007.0194 C 66.376545,1019.2835 59.781489,1030.4254 59.770008,1038.9001 C 59.762922,1044.1285 60.974395,1045.7975 64.776925,1045.7975 C 67.635222,1045.7975 69.793248,1044.1254 69.793248,1041.9107 C 69.793248,1034.2317 77.642196,1023.0823 87.37195,1016.94 C 99.990317,1008.9744 103.04101,1009.0827 115.78409,1017.9488 C 121.52753,1021.9449 137.5135,1031.6552 151.30837,1039.5275 C 175.77283,1053.4883 176.6368,1053.7683 186.42259,1050.9063 C 203.9775,1045.7721 206.11417,1046.2292 209.43692,1055.8301 C 212.6757,1065.188 213.79957,1105.1757 211.19064,1118.2206 C 209.51049,1126.6213 205.71616,1127.9272 197.5258,1122.9233 C 192.99639,1120.1561 191.5284,1120.7496 185.019,1127.9793 C 177.07291,1136.8046 175.32978,1147.2073 181.40626,1149.539 C 183.47548,1150.3331 185.17954,1152.9932 185.19299,1155.4507 C 185.20649,1157.9081 188.02816,1165.9563 191.46337,1173.3357 C 198.90796,1189.3274 199.68393,1197.5814 193.5205,1195.2163 C 191.21655,1194.3321 184.36973,1192.4968 178.30519,1191.1377 C 172.2406,1189.7788 163.98143,1186.229 159.95141,1183.2495 C 149.08608,1175.2163 148.5292,1179.1966 158.66128,1192.4704 C 166.29682,1202.4735 167.61137,1206.1296 167.61137,1217.3612 C 167.61137,1232.2436 163.987,1237.0225 145.76492,1246.1672 C 132.26932,1252.9397 129.63632,1252.8301 122.46454,1245.1961 C 113.59679,1235.7568 101.59845,1237.3057 88.052417,1249.6384 C 82.798994,1254.4214 80.436734,1254.6085 46.275081,1252.9477 C 23.222792,1251.8269 9.5103396,1252.0865 8.536755,1253.6618 C 6.2080075,1257.4298 9.4599436,1258.5418 34.784467,1262.6377 C 47.640193,1264.717 59.204003,1267.4638 60.481787,1268.7414 C 69.947916,1278.2076 1.6197001,1290.5394 -18.785372,1283.0475 L -18.785422,1283.0475 z M -1.6892647,1251.4665 C -0.74624226,1249.9406 -4.3719932,1248.9735 -10.946812,1248.9967 C -18.849034,1249.0247 -20.743094,1249.6887 -17.992282,1251.4665 C -13.069075,1254.6481 -3.6556033,1254.6481 -1.6892647,1251.4665 z M 103.05787,1183.9549 C 107.34744,1182.3386 104.53285,1181.4704 91.112578,1180.2707 C 81.456168,1179.4073 69.040757,1177.5053 63.522842,1176.0436 C 58.004891,1174.5822 48.975522,1172.4798 43.45757,1171.372 C 37.939641,1170.2642 27.217259,1165.8436 19.63009,1161.5485 C 12.042909,1157.2533 4.1421951,1153.7658 2.0729786,1153.7981 C -3.2401596,1153.8813 15.445192,1169.8973 26.720994,1174.9249 C 31.787689,1177.1839 39.883408,1181.2755 44.711662,1184.0174 C 52.307209,1188.3307 56.451948,1188.8048 75.468168,1187.536 C 87.556105,1186.7293 99.971444,1185.1178 103.05788,1183.9549 L 103.05787,1183.9549 z M 107.41562,1163.5136 C 107.41562,1158.8519 95.070266,1144.4333 85.254829,1137.6312 C 71.282379,1127.9483 66.854808,1129.7608 79.198818,1140.1106 C 85.061636,1145.0261 89.858514,1150.5158 89.858514,1152.3097 C 89.858514,1156.0659 82.142697,1158.581 70.468047,1158.6305 C 63.902222,1158.6581 62.065669,1157.4746 60.790547,1152.3943 C 58.692301,1144.034 49.000933,1143.4613 50.180587,1151.7672 C 51.471926,1160.8592 65.422128,1166.1806 87.977346,1166.1853 C 100.07707,1166.1877 107.41562,1165.179 107.41562,1163.5135 L 107.41562,1163.5136 z M 173.88179,1157.4106 C 173.88179,1156.0311 160.27833,1148.1304 143.65184,1139.8534 C 127.02531,1131.5765 103.53541,1118.7609 91.451933,1111.3742 C 79.368436,1103.9877 68.915758,1098.5102 68.223839,1099.2021 C 67.531841,1099.8942 71.83439,1104.4298 77.785019,1109.2812 C 83.735686,1114.1326 94.81213,1123.3124 102.39928,1129.6806 C 109.98646,1136.0488 119.58017,1142.6359 123.71862,1144.3185 C 127.8571,1146.0012 136.88644,1150.4121 143.78389,1154.1205 C 156.20302,1160.7977 173.88179,1162.7302 173.88179,1157.4106 z M 162.71861,1120.4152 C 169.1722,1115.0573 172.5528,1110.1675 172.58251,1106.1474 L 172.62773,1100.0312 L 167.51374,1105.5204 C 164.70098,1108.5395 160.79032,1111.0095 158.82339,1111.0095 C 154.87805,1111.0095 150.0543,1118.5071 150.0543,1124.6395 C 150.0543,1130.1648 151.59302,1129.6517 162.71859,1120.4152 L 162.71861,1120.4152 z M 8.5598424,1106.6203 C 9.4936578,1101.4474 11.277542,1095.2395 12.523973,1092.8254 C 15.680267,1086.7124 26.403769,1087.1357 28.40862,1093.4525 C 30.453077,1099.8939 39.695314,1100.194 39.695314,1093.8188 C 39.695314,1087.8722 29.270509,1076.5757 20.816968,1073.3617 C 11.38096,1069.7741 4.5811411,1070.31 4.5811411,1074.6413 C 4.5811411,1076.7106 5.7097963,1078.4036 7.0892779,1078.4036 C 8.4687851,1078.4036 9.5974532,1080.0966 9.5974532,1082.1657 C 9.5974532,1087.7669 1.8097929,1086.7175 0.29155671,1080.9118 C -0.51205977,1077.8385 -3.1296186,1075.8954 -6.4658303,1075.8954 C -12.873632,1075.8954 -30.156578,1089.5612 -27.356087,1092.4136 C -26.298478,1093.4908 -24.097581,1093.0365 -22.465174,1091.4041 C -17.068541,1086.0076 -10.46782,1087.8678 -10.46782,1094.7852 C -10.46782,1098.2772 -8.6883705,1101.8172 -6.5134749,1102.6518 C -4.3385548,1103.4864 -1.5448082,1106.8371 -0.30513547,1110.0975 C 2.9923863,1118.771 6.6235513,1117.3467 8.5598681,1106.6203 L 8.5598424,1106.6203 z M 146.54281,1094.9574 C 156.04186,1085.4584 156.77319,1082.9389 151.3403,1078.43 C 145.86505,1073.886 140.68543,1076.9759 136.3387,1087.3793 C 128.78632,1105.4545 132.9521,1108.5482 146.54283,1094.9573 L 146.54281,1094.9574 z M -60.630971,1082.1657 C -60.630971,1080.0966 -61.62144,1078.4036 -62.832032,1078.4036 C -64.042613,1078.4036 -66.43815,1080.0966 -68.155458,1082.1657 C -70.764137,1085.3091 -70.401966,1085.928 -65.954423,1085.928 C -62.894563,1085.928 -60.630971,1084.3283 -60.630971,1082.1657 z M 121.94449,1056.6812 C 132.37428,1058.9445 141.44716,1060.257 142.10637,1059.5978 C 143.86698,1057.8372 121.01843,1048.1626 111.42212,1046.6053 C 100.75493,1044.8744 87.35036,1051.539 87.35036,1058.5735 C 87.35036,1063.637 87.440635,1063.6319 95.165793,1058.1311 C 102.90722,1052.6187 103.16069,1052.6049 121.94449,1056.6812 L 121.94449,1056.6812 z M -67.660375,1048.5939 L -59.561705,1041.3578 L -68.131729,1036.146 C -72.845212,1033.2796 -77.034832,1031.2674 -77.442022,1031.6746 C -77.849275,1032.0818 -79.166592,1037.6834 -80.369572,1044.1225 C -83.022253,1058.3217 -79.811745,1059.4511 -67.660375,1048.5939 z M 45.29372,1040.8617 C 49.824057,1037.2981 52.016841,1032.5461 53.181296,1023.7683 C 55.318206,1007.6596 64.634653,993.89232 81.261604,982.27312 C 95.093293,972.6073 97.524638,968.90399 91.545117,966.60943 C 85.821263,964.41293 76.696875,969.56435 57.967444,985.56672 C 36.336704,1004.0478 29.662726,1013.9836 29.662726,1027.7042 C 29.662726,1046.3821 33.823318,1049.8843 45.29372,1040.8617 L 45.29372,1040.8617 z M -52.436912,994.96898 C -41.742564,986.6517 -37.035589,979.34193 -39.029022,974.14707 C -40.709576,969.76761 -52.116507,973.44761 -57.347846,980.05695 C -63.279257,987.55082 -70.505246,1002.4812 -68.952228,1004.0341 C -67.141677,1005.8446 -64.691913,1004.5 -52.436873,994.96898 L -52.436912,994.96898 z"
         id="path3271" />
      <path
         style="fill:#171717;fill-opacity:1"
         d="M -5.5301925,1014.7646 C -8.7855586,1008.1024 -12.196936,1004.886 -16.638451,1004.2914 C -26.870725,1002.9217 -28.498233,999.22503 -20.260999,996.06348 C -11.812369,992.82078 2.4286168,994.34817 8.1696101,999.11278 C 14.062532,1004.0034 8.4475062,1024.3798 1.2069575,1024.3798 C 0.08556233,1024.3798 -2.94616,1020.053 -5.5301805,1014.7646 L -5.5301925,1014.7646 z"
         id="path3273" />
      <path
         style="fill:#a7a7a7;fill-opacity:1"
         d="M 25.965024,1222.1638 C -1.1544586,1196.787 -9.5066642,1192.956 -9.5066642,1209.9953 C -9.5066642,1214.9069 -8.6537336,1219.8639 -9.3572846,1220.5747 C -11.725,1222.9661 -18.065002,1221.2998 -26.461681,1207.4299 C -37.07019,1189.9064 -44.418255,1195.2281 -51.319384,1207.5903 C -53.927317,1212.262 -54.307977,1221.2033 -55.535999,1221.6168 C -58.378554,1222.5738 -66.226342,1209.0734 -66.226342,1202.635 C -66.226342,1186.4977 -27.420496,1179.0677 1.4951338,1189.6688 C 22.28665,1197.2914 59.21185,1229.0146 52.744078,1234.7532 C 48.051821,1238.9165 45.31219,1241.6209 29.536452,1225.7351 L 25.965024,1222.1638 z"
         id="path3275"
         sodipodi:nodetypes="csssssssscc" />
    </g>
    <g
       inkscape:groupmode="layer"
       id="layer2">
      <g
         transform="translate(1.1566196,4.0863778)"
         id="g2505">
        <path
           id="path2507"
           d="M 621.69852,1184.4434 C 667.07106,1181.908 769.31417,1173.6951 773.28428,1171.5939 C 777.82218,1169.1921 780.5457,1162.8494 780.61861,1154.5131 C 780.68239,1147.2199 786.71486,1130.1708 794.02416,1116.6264 C 811.03761,1085.0994 831.19499,1070.9866 867.12296,1065.4476 C 927.66805,1056.1133 928.1284,1056.1099 936.34937,1064.9341 C 940.59183,1069.4878 953.27652,1075.9497 964.53757,1079.2939 C 995.11521,1088.3745 1008.8322,1105.3752 1042.817,1176.3133 C 1049.5807,1190.4315 1055.7416,1213.7988 1059.1295,1238.1849 C 1071.4785,1327.0702 1080.1636,1357.7054 1112.9211,1427.9247 C 1138.491,1482.7365 1159.9257,1561.8266 1160.0862,1601.9552 C 1160.1509,1618.1265 1165.6878,1649.0548 1174.7137,1683.6608 C 1186.8652,1730.2511 1189.5846,1748.7764 1191.3643,1797.0922 C 1193.7517,1861.9056 1198.1625,1887.603 1211.5419,1914.6484 C 1222.8177,1937.4415 1228.4274,1962.1242 1234.5097,2015.7054 C 1239.4498,2059.2248 1254.3924,2125.4071 1265.0221,2150.8474 C 1275.1599,2175.1103 1273.163,2186.0423 1255.3373,2203.868 C 1241.4091,2217.7962 1236.8692,2219.8819 1220.4797,2219.8819 C 1193.2745,2219.8819 1161.9357,2212.2939 1149.8376,2202.7775 C 1136.2838,2192.1161 1136.2338,2176.276 1149.6702,2149.7607 C 1165.3499,2118.8183 1164.3309,2075.2373 1146.8575,2029.4634 C 1139.6389,2010.5533 1128.6985,1987.1394 1122.5456,1977.4323 C 1116.3925,1967.7253 1110.0787,1952.9624 1108.5148,1944.626 C 1106.9509,1936.2895 1102.1248,1922.5171 1097.7902,1914.0206 C 1084.2278,1887.4361 1031.8009,1806.2014 1015.6723,1786.7803 C 1007.1942,1776.5715 996.96063,1761.7223 992.93093,1753.7821 C 988.90126,1745.8419 979.91461,1731.3698 972.96061,1721.6219 C 962.93785,1707.5723 958.13937,1704.1523 949.81179,1705.1228 C 941.30655,1706.114 937.58247,1710.7031 930.25076,1729.2271 C 909.53027,1781.5785 906.96834,1845.7658 923.63479,1894.9854 L 934.77408,1927.8822 L 912.66849,2017.1664 C 888.58393,2114.4438 881.84854,2133.6353 865.77176,2150.7919 C 855.33181,2161.933 854.27591,2162.1339 806.47946,2162.0718 C 779.71474,2162.0371 755.77405,2160.645 753.27787,2158.9783 C 747.27422,2154.9695 739.25485,2139.4713 739.25485,2131.8774 C 739.25485,2128.5493 752.29607,2115.8982 768.2354,2103.764 C 807.779,2073.6604 829.99997,2037.3409 829.99997,2002.8118 C 829.99997,1969.1706 810.12986,1914.3808 779.4985,1863.5591 C 762.95908,1836.1178 747.72298,1789.0767 747.57493,1764.9958 C 747.47795,1749.2158 738.91466,1747.3376 721.36516,1759.247 C 700.24481,1773.5797 680.19019,1776.5304 664.97704,1767.5438 L 619.54415,1766.9147 C 625.81992,1480.9974 625.05431,1524.9651 621.69852,1184.4434 z"
           style="fill:url(#linearGradient2521);fill-opacity:1"
           sodipodi:nodetypes="csssssssssssssssssssssssssssscccsssssssssccc" />
        <path
           sodipodi:nodetypes="csssssssssssssssscccsscccscccssssssssssssscccssssssssssscccsssssssscccsscccsssssssssccsssssccsssssssssssssssssssssccsssssssssssssssccssssccssc"
           id="path2509"
           d="M 614.06834,1188.6779 C 782.85824,1180.1677 781.88947,1180.3783 785.78284,1151.3511 C 788.72792,1129.3938 797.00175,1119.5997 797.00175,1138.0707 C 797.00175,1145.1683 799.70562,1153.6793 803.01038,1156.984 C 806.31511,1160.2887 811.19506,1171.6344 813.85463,1182.1966 C 819.40391,1204.2348 832.20414,1213.4363 857.31259,1213.4363 C 866.02595,1213.4363 876.04181,1216.4963 880.48246,1220.515 C 884.78452,1224.4083 894.21143,1227.8295 901.43112,1228.1177 C 908.65084,1228.4059 920.59037,1230.0084 927.96342,1231.6787 C 942.98004,1235.0806 945.09663,1230.2554 936.68548,1211.7949 C 931.10519,1199.5474 926.33783,1197.2242 893.98665,1190.9864 C 871.01026,1186.5563 868.52659,1184.9462 858.31763,1167.8635 C 852.28247,1157.7648 846.28393,1140.847 844.98755,1130.2684 C 842.77415,1112.2068 843.31398,1110.7734 853.8455,1106.7493 C 860.01377,1104.3924 869.70092,1099.7277 875.37252,1096.3834 C 881.04408,1093.039 888.93272,1089.2957 892.90279,1088.0649 C 902.73856,1085.0157 901.97139,1079.4049 891.05246,1074.5327 C 883.10402,1070.986 884.71051,1069.947 904.05736,1066.1217 L 926.13095,1061.7572 L 964.68578,1099.4167 C 988.19381,1122.3789 1003.2406,1140.3286 1003.2406,1145.4099 C 1003.2406,1157.1331 1018.1562,1196.6002 1025.7634,1205.0061 C 1034.9679,1215.1769 1033.6526,1224.1504 1020.062,1243.9036 L 1008.01,1261.4206 L 1015.7241,1278.6505 C 1023.6315,1296.3122 1043.263,1319.156 1047.1733,1315.2456 C 1048.3751,1314.0439 1044.2742,1301.7316 1038.0602,1287.8849 L 1026.762,1262.7093 L 1036.1463,1252.7201 C 1046.398,1241.8077 1046.3963,1241.7797 1032.5172,1193.8958 C 1022.6962,1160.0127 1022.0016,1154.0512 1028.3306,1157.9628 C 1035.4494,1162.3624 1049.0427,1197.4097 1050.6341,1215.4674 C 1052.2412,1233.7023 1057.8837,1268.2513 1065.4596,1306.2438 C 1072.7393,1342.7507 1096.5679,1409.7988 1112.7862,1439.4098 C 1120.5949,1453.6668 1126.9839,1467.6852 1126.9839,1470.5619 C 1126.9839,1473.4385 1133.5021,1498.8759 1141.4687,1527.0894 C 1152.004,1564.3999 1155.7001,1585.1473 1155.0244,1603.1815 C 1154.3526,1621.1158 1158.3815,1643.9545 1169.5855,1685.7232 C 1183.1469,1736.2801 1185.477,1751.9441 1188.3004,1811.5289 C 1191.0427,1869.4049 1192.9402,1882.6735 1200.9827,1900.2116 C 1216.7807,1934.6621 1221.9111,1955.3899 1230.0793,2017.7678 C 1234.3868,2050.6629 1242.7385,2093.3543 1248.6386,2112.6377 C 1270.4146,2183.808 1269.8177,2177.183 1256.1903,2196.4568 L 1244.0024,2213.6947 L 1205.9786,2213.3655 C 1174.6184,2213.094 1165.9912,2211.5768 1156.7501,2204.7081 C 1141.6975,2193.5196 1140.8192,2179.007 1153.5161,2151.2734 C 1166.3276,2123.2892 1168.2033,2074.3297 1157.5609,2045.6935 C 1144.625,2010.8862 1137.4538,1994.848 1128.4753,1980.6448 C 1123.456,1972.7046 1117.1611,1957.8658 1114.4867,1947.6698 C 1111.8122,1937.4737 1106.0123,1922.0519 1101.5979,1913.3991 C 1089.1957,1889.0887 1029.6396,1796.3938 1014.0679,1777.1646 C 1006.4093,1767.7072 996.87344,1753.4727 992.87714,1745.5325 C 973.92779,1707.8821 950.3174,1690.54 938.12437,1705.3159 C 920.44255,1726.7433 902.58085,1838.8896 911.83534,1870.3738 C 930.81394,1934.94 930.98662,1920.6953 910.14839,2009.5182 C 884.14202,2120.3702 881.36471,2129.2739 867.67976,2145.6663 L 855.65281,2160.0726 L 805.37087,2160.0726 C 760.35787,2160.0726 754.47544,2159.2336 749.23432,2152.0659 C 738.04775,2136.7673 742.14615,2127.9874 770.14865,2107.2617 C 784.87157,2096.3647 801.43044,2081.5155 806.94612,2074.2635 C 821.60038,2054.9961 834.12473,2020.1981 834.12473,1998.7497 C 834.12473,1966.38 807.43453,1897.55 780.42355,1860.2625 C 765.92757,1840.2514 760.42285,1824.2003 754.15624,1783.6702 C 748.41814,1746.5584 742.11627,1740.0035 724.32997,1752.6464 C 704.92219,1766.4419 682.4785,1770.9949 668.78582,1763.9141 C 652.17594,1755.3248 653.62259,1753.7538 619.37738,1773.2693 C 626.20753,1466.4351 626.6822,1563.6494 614.06834,1188.6779 z M 1245.3419,2152.8542 C 1240.6212,2133.1404 1209.6722,2049.7811 1204.97,2044.1154 C 1201.1609,2039.5257 1201.1328,2035.6986 1204.848,2027.5446 C 1209.0741,2018.2694 1208.08,2014.3434 1196.9081,1996.1867 L 1184.1373,1975.4315 L 1190.6212,1955.608 C 1198.0088,1933.0216 1198.6089,1923.4127 1193.169,1914.8124 C 1189.855,1909.573 1188.3871,1909.6351 1181.889,1915.2896 C 1177.7804,1918.8648 1169.0918,1923.0585 1162.5809,1924.6091 C 1151.4052,1927.2706 1150.8888,1928.3396 1153.3488,1943.7235 C 1157.3151,1968.5275 1167.823,1996.6989 1179.9724,2015.1009 C 1189.7192,2029.864 1190.7994,2035.0612 1189.8353,2062.5573 C 1188.9416,2088.0447 1190.1131,2094.931 1196.5456,2102.0051 C 1200.8317,2106.7187 1206.5576,2117.5063 1209.2697,2125.9776 C 1213.7182,2139.8727 1234.9676,2161.9738 1243.9897,2162.0893 C 1245.9556,2162.1144 1246.5641,2157.9586 1245.3419,2152.8542 z M 857.92312,2107.4817 C 862.0687,2102.3739 886.99703,2021.3346 890.66731,2001.0341 C 891.74061,1995.0977 890.16675,1988.4915 887.06692,1985.9215 C 882.61076,1982.2269 881.50469,1985.1051 881.27161,2001.0018 C 881.0877,2013.5391 877.79224,2025.724 872.16417,2034.6759 C 857.40898,2058.1451 849.85711,2076.7152 847.58846,2095.1074 C 845.42018,2112.6864 849.61875,2117.7137 857.92312,2107.4817 z M 1118.8887,1814.6225 C 1126.2899,1806.7501 1127.4097,1801.2732 1126.2678,1778.5307 C 1124.9675,1752.6351 1125.2736,1751.6709 1135.2335,1750.2933 C 1150.4991,1748.1816 1155.1648,1742.6553 1158.0768,1723.2363 C 1159.9271,1710.8976 1158.5992,1700.965 1153.5723,1689.5442 C 1148.9967,1679.1486 1146.7061,1664.4862 1147.1759,1648.6003 C 1148.1284,1616.3975 1133.7111,1510.0689 1124.8045,1483.6092 C 1115.2794,1455.3118 1092.178,1405.6411 1081.6956,1390.92 C 1075.4148,1382.0993 1066.4697,1376.9203 1049.0958,1372.0455 C 1035.9268,1368.3504 1019.7579,1361.0261 1013.1651,1355.7692 C 1002.6392,1347.3761 1001.1782,1343.5434 1001.1782,1324.3232 C 1001.1782,1300.9587 996.12791,1295.3629 970.2424,1290.0463 C 964.5708,1288.8814 956.21815,1282.2701 951.68089,1275.3544 C 941.61782,1260.0165 916.42341,1251.5702 901.29545,1258.4629 C 895.89884,1260.9218 888.32253,1262.989 884.45917,1263.0567 C 873.49811,1263.2488 843.50437,1291.9149 832.83602,1312.3948 C 826.66161,1324.2478 817.74107,1333.7874 808.06879,1338.8809 C 799.75442,1343.2593 780.73293,1358.5888 765.79877,1372.9464 C 748.6745,1389.4097 735.17707,1399.0512 729.25394,1399.0512 C 724.08839,1399.0512 713.68732,1401.2037 706.14045,1403.8346 C 693.01779,1408.4092 691.86563,1407.959 679.74505,1393.5225 C 672.77448,1385.22 665.07462,1378.4271 662.63428,1378.4272 C 649.50388,1378.4277 628.0872,1416.8128 627.94798,1440.5954 C 621.6911,1665.697 630.31717,1444.7735 623.72524,1663.037 C 655.64436,1663.037 661.143,1661.8485 677.64586,1651.3827 C 707.10671,1632.6992 732.59971,1624.2695 742.9268,1629.7964 C 757.45559,1637.572 753.4297,1648.8472 731.25209,1662.4932 C 708.71586,1676.3598 698.635,1690.0635 705.74213,1697.1706 C 713.40088,1704.8293 742.33132,1692.7442 765.7829,1672.0898 C 777.87593,1661.4392 801.44824,1644.3876 818.16586,1634.1975 C 834.88341,1624.0073 855.98606,1608.9425 865.06056,1600.7202 C 887.76994,1580.1435 904.71898,1572.2919 926.42801,1572.2919 C 949.85217,1572.2919 957.94507,1581.7361 967.66915,1620.4195 C 971.56531,1635.9189 977.42642,1653.2406 980.6938,1658.9122 C 983.96118,1664.5838 991.60778,1679.433 997.6863,1691.9104 C 1003.7648,1704.3878 1015.9325,1722.8359 1024.7255,1732.9061 C 1033.5186,1742.9763 1047.2652,1762.0019 1055.2736,1775.1851 C 1063.282,1788.3683 1071.0921,1799.1842 1072.6293,1799.2205 C 1074.1665,1799.2567 1081.7082,1804.8252 1089.3887,1811.5948 C 1106.1317,1826.3523 1107.7088,1826.5142 1118.8887,1814.6225 z M 746.47371,1725.1811 C 766.30235,1710.8173 770.48718,1704.9937 764.9554,1699.4619 C 762.23321,1696.7397 758.25716,1696.7593 753.14669,1699.5202 C 748.9091,1701.8095 742.3019,1704.6464 738.46401,1705.8243 C 729.48759,1708.5795 717.11413,1727.3669 720.58125,1732.9768 C 724.5991,1739.4778 728.2586,1738.376 746.47371,1725.1811 z M 983.6013,1104.4594 C 975.13493,1096.7006 969.65744,1088.903 971.42908,1087.1313 C 973.20073,1085.3597 982.44788,1091.7078 991.97835,1101.2383 C 1012.6754,1121.9353 1005.6279,1124.6453 983.6013,1104.4594 z"
           style="fill:#61c37e" />
        <path
           id="path2511"
           d="M 1178.5436,2208.7904 C 1171.7377,2207.86 1161.7726,2203.7682 1156.3988,2199.6976 C 1148.3725,2193.6177 1147.4128,2190.8305 1151.0229,2184.085 C 1154.3524,2177.8638 1158.47,2176.3215 1168.0117,2177.722 C 1178.7143,2179.2928 1180.606,2178.2415 1180.606,2170.7232 C 1180.606,2157.6295 1192.811,2154.8386 1201.7571,2165.8865 C 1206.6182,2171.8897 1211.9066,2174.2949 1216.8177,2172.7362 C 1228.2117,2169.1199 1249.9834,2192.9646 1243.9954,2202.5016 C 1239.4891,2209.679 1207.5151,2212.7511 1178.5436,2208.7904 z M 755.50037,2149.5071 C 741.44578,2135.4525 746.68345,2128.285 775.7219,2121.8351 C 800.74943,2116.276 802.26797,2116.3967 811.04668,2124.6439 C 832.34917,2144.6566 861.91109,2129.1351 872.77207,2092.235 C 879.49157,2069.4056 887.74683,2065.3201 887.74683,2084.824 C 887.74683,2104.6302 864.67638,2149.3268 851.95729,2154.1626 C 846.39124,2156.2788 824.32466,2158.0102 802.92037,2158.0102 C 769.11635,2158.0102 762.8864,2156.8931 755.50037,2149.5071 z M 786.86909,1862.1466 C 773.93066,1848.2341 759.87876,1812.2125 759.87876,1792.9578 C 759.87876,1782.8024 762.32684,1777.5108 768.57114,1774.1689 C 781.78694,1767.0961 786.21191,1774.906 785.05465,1803.2618 C 784.17332,1824.8565 785.45825,1829.887 794.64412,1840.8038 C 813.19025,1862.8445 805.96446,1882.6797 786.86909,1862.1466 z M 890.49672,1821.1534 C 888.98429,1819.641 887.74683,1813.2963 887.74683,1807.054 C 887.74683,1800.8118 886.53335,1792.5422 885.05024,1788.6773 C 882.66223,1782.4542 881.52661,1782.7464 875.12725,1791.2302 C 868.96924,1799.3941 866.92873,1800.0035 861.32477,1795.3526 C 857.41718,1792.1097 854.74861,1783.5331 854.74861,1774.2174 C 854.74861,1752.0943 838.24286,1732.8498 820.44344,1734.2199 C 808.574,1735.1336 807.10546,1733.8728 803.54882,1719.7158 C 800.01851,1705.6637 800.74641,1703.0705 811.31817,1692.036 L 822.98272,1679.8608 L 807.38914,1684.1664 C 794.91445,1687.6108 790.58141,1687.2579 785.72513,1682.4016 C 774.57226,1671.2487 783.05962,1660.4594 810.54154,1650.8544 C 824.64663,1645.9247 844.53978,1637.5318 854.74861,1632.2036 C 887.77921,1614.9641 899.153,1615.0884 923.53163,1632.9548 C 949.70395,1652.1358 956.89053,1666.1046 949.61849,1683.6608 C 946.79941,1690.4667 943.06634,1696.0352 941.32278,1696.0352 C 931.81801,1696.0352 916.54068,1745.1502 906.36034,1808.4354 C 904.07485,1822.643 897.36532,1828.0221 890.49672,1821.1534 z M 658.82169,1242.2664 C 642.61104,1238.4762 608.72641,1206.1972 614.69397,1200.2296 C 620.75224,1194.1713 652.07102,1199.5381 668.31819,1209.4186 C 679.73499,1216.3616 681.28278,1219.1848 678.99441,1228.893 C 675.38591,1244.2022 673.22593,1245.6342 658.82169,1242.2664 z M 792.85348,1219.939 C 767.79762,1213.0176 755.75397,1206.1398 755.75397,1198.7523 C 755.75397,1192.1923 771.56609,1184.5628 785.16162,1184.5628 C 793.15755,1184.5628 834.11863,1216.4828 834.12271,1222.717 C 834.12563,1227.2007 814.31336,1225.8671 792.85348,1219.939 z M 952.39427,1172.3847 C 939.44522,1162.5832 933.88605,1160.851 921.45844,1162.7455 C 913.12588,1164.0157 903.19818,1167.7508 899.39688,1171.0457 C 889.95569,1179.2291 879.94415,1176.4428 869.76763,1162.7997 L 861.22612,1151.3485 L 871.39288,1132.6436 C 876.98462,1122.3558 888.52025,1107.4805 897.02759,1099.5871 C 905.53493,1091.6938 912.4955,1082.6809 912.4955,1079.5585 C 912.4955,1067.0088 924.03481,1071.4373 947.55609,1093.014 C 994.19603,1135.7978 1006.6642,1165.9402 982.82154,1178.2697 C 976.12831,1181.7309 970.09584,1184.5112 969.41602,1184.4481 C 968.7362,1184.385 961.07642,1178.9564 952.39427,1172.3847 z"
           style="fill:#3f8653"
           sodipodi:nodetypes="csssssssccssssssccssssccssssssscccsssssssccsssccsssccsscccsssssc" />
      </g>
    </g>
  </g>
</svg>
