<?xml version="1.0" encoding="UTF-8" standalone="no"?>
<!-- Created with Inkscape (http://www.inkscape.org/) -->

<svg
   xmlns:dc="http://purl.org/dc/elements/1.1/"
   xmlns:cc="http://creativecommons.org/ns#"
   xmlns:rdf="http://www.w3.org/1999/02/22-rdf-syntax-ns#"
   xmlns:svg="http://www.w3.org/2000/svg"
   xmlns="http://www.w3.org/2000/svg"
   xmlns:xlink="http://www.w3.org/1999/xlink"
   xmlns:sodipodi="http://sodipodi.sourceforge.net/DTD/sodipodi-0.dtd"
   xmlns:inkscape="http://www.inkscape.org/namespaces/inkscape"
   width="64"
   height="64"
   id="svg2495"
   sodipodi:version="0.32"
   inkscape:version="0.47 r22583"
   inkscape:export-filename="percy 2.png"
   inkscape:export-xdpi="90"
   inkscape:export-ydpi="90"
   sodipodi:docname="persy_idle.svg"
   inkscape:output_extension="org.inkscape.output.svg.inkscape"
   version="1.0">
  <defs
     id="defs2497">
    <linearGradient
       id="linearGradient3176">
      <stop
         style="stop-color:#df8de4;stop-opacity:1;"
         offset="0"
         id="stop3178" />
      <stop
         style="stop-color:#f4b7f9;stop-opacity:1;"
         offset="1"
         id="stop3180" />
    </linearGradient>
    <inkscape:perspective
       sodipodi:type="inkscape:persp3d"
       inkscape:vp_x="0 : 526.18109 : 1"
       inkscape:vp_y="0 : 1000 : 0"
       inkscape:vp_z="744.09448 : 526.18109 : 1"
       inkscape:persp3d-origin="372.04724 : 350.78739 : 1"
       id="perspective2503" />
    <linearGradient
       inkscape:collect="always"
       xlink:href="#linearGradient3176"
       id="linearGradient3182"
       x1="802.89124"
       y1="1565.7361"
       x2="162.55066"
       y2="1565.7361"
       gradientUnits="userSpaceOnUse" />
    <linearGradient
       inkscape:collect="always"
       xlink:href="#linearGradient3176"
       id="linearGradient3213"
       gradientUnits="userSpaceOnUse"
       x1="802.89124"
       y1="1565.7361"
       x2="162.55066"
       y2="1565.7361"
       gradientTransform="matrix(0.04639497,0,0,0.04639497,5.09586,-39.4851)" />
  </defs>
  <sodipodi:namedview
     id="base"
     pagecolor="#ffffff"
     bordercolor="#666666"
     borderopacity="1.0"
     inkscape:pageopacity="0.0"
     inkscape:pageshadow="2"
     inkscape:zoom="5.12"
     inkscape:cx="21.22186"
     inkscape:cy="31.693123"
     inkscape:document-units="px"
     inkscape:current-layer="g3204"
     showgrid="false"
     inkscape:window-width="1366"
     inkscape:window-height="716"
     inkscape:window-x="86"
     inkscape:window-y="129"
     inkscape:window-maximized="0" />
  <metadata
     id="metadata2500">
    <rdf:RDF>
      <cc:Work
         rdf:about="">
        <dc:format>image/svg+xml</dc:format>
        <dc:type
           rdf:resource="http://purl.org/dc/dcmitype/StillImage" />
      </cc:Work>
    </rdf:RDF>
  </metadata>
  <g
     inkscape:label="Ebene 1"
     inkscape:groupmode="layer"
     id="layer1"
     transform="translate(109.83652,-2166.5253)">
    <g
       id="g3204">
      <path
         style="fill:url(#linearGradient3213);fill-opacity:1"
         d="M 9.25 2.3125 C 7.7952876 2.3200563 6.436205 2.759175 4.15625 3.84375 C 3.6455112 4.0867166 3.307518 4.2747515 2.9375 4.46875 C 1.1478694 5.4070441 0.75439807 5.9506681 0.40625 7.59375 C 0.24012125 8.3778 0.15719807 9.0330934 0.09375 9.59375 C 0.072600645 9.7806355 0.040880937 9.9960062 0.03125 10.15625 C 0.016190596 10.368882 0.0048836589 10.571005 0.03125 10.71875 C 0.049302424 11.026668 0.0928056 11.260888 0.1875 11.375 C 0.35787 11.5802 0.45365 12.26585 0.46875 13.34375 C 0.50015 15.59325 0.64645 16.0524 1.625 17.3125 C 2.1774 18.0239 2.46875 18.60995 2.46875 18.96875 C 2.46875 19.69855 2.89341 20.50875 3.5 20.90625 C 3.77061 21.08345 4.25744 21.5788 4.5625 22 C 5.31553 23.0396 5.5285 25.198 5.03125 26.5 C 4.65491 27.4854 4.71255 28.15425 5.3125 32.40625 C 5.712 35.23745 5.95988 36.09325 6.90625 37.46875 C 7.80002 38.76785 8.5565 40.72505 8.5625 41.71875 C 8.56534 42.19945 8.98269 44.15355 9.46875 46.09375 C 10.425219 49.91135 10.76046 52.0025 10.78125 54.4375 C 10.793643 55.8887 10.74159 56.07025 10.1875 56.84375 C 9.8598 57.30115 9.203 57.88865 8.71875 58.15625 C 7.61902 58.76395 6.875 59.4656 6.875 59.875 C 6.875 60.0475 7.08555 60.4174 7.375 60.6875 C 7.7824534 61.067612 8.1398371 61.151254 9.25 61.25 C 9.3664963 61.260362 9.4583098 61.270822 9.59375 61.28125 C 9.8503527 61.300987 10.028862 61.304421 10.25 61.3125 C 11.882028 61.372121 12.653763 61.11746 13.4375 60.25 C 13.817226 59.8297 14.125 59.39655 14.125 59.28125 C 14.125 59.16605 14.494804 58.31235 14.9375 57.40625 C 15.839472 55.56005 15.801018 55.95175 15.90625 47.90625 C 15.956648 44.05315 15.93259 44.09285 17.28125 44.65625 C 17.672816 44.81985 18.182285 44.9375 18.40625 44.9375 C 18.630217 44.9391 18.928533 45.00875 19.0625 45.09375 C 19.43332 45.32915 19.660899 49.70215 19.5 53.46875 C 19.362837 56.67985 19.347854 56.72705 18.625 58.40625 C 17.971984 59.92315 17.806091 60.1864 17 60.6875 C 15.919352 61.3593 15.237673 62.52695 15.65625 63.03125 C 16.019423 63.46885 16.597482 63.74395 17.46875 63.90625 C 17.845726 63.976092 18.746606 63.993106 19.5625 63.96875 C 19.657807 63.965905 19.751524 63.973143 19.84375 63.96875 C 20.394559 63.9424 20.835258 63.901662 21.1875 63.8125 C 21.233291 63.800909 21.269422 63.794538 21.3125 63.78125 C 21.385493 63.764037 21.458968 63.731719 21.53125 63.6875 C 22.309236 63.347553 22.610612 62.591958 23.03125 60.8125 C 23.21785 60.0231 23.578429 59.00495 23.8125 58.53125 C 24.220235 57.70625 24.343552 57.1459 24.9375 53.9375 C 25.083636 53.1481 25.335297 51.81075 25.5 50.96875 C 25.664698 50.12675 25.895239 48.7631 26 47.9375 C 26.104764 47.1118 26.25203 46.32005 26.34375 46.15625 C 26.435471 45.99225 27.566392 45.523 28.84375 45.125 C 30.168618 44.7124 32.080826 43.91225 33.28125 43.28125 L 35.375 42.1875 L 35.9375 42.53125 C 36.643313 42.94825 37.582622 42.79 38.5625 42.125 C 39.376709 41.5725 39.77675 41.67415 39.78125 42.40625 C 39.785767 43.140913 40.134496 44.311858 40.5625 45.40625 C 40.785419 45.976246 40.98721 46.532723 41.25 46.96875 C 42.671141 49.32655 43.59375 51.8767 43.59375 53.4375 C 43.59375 55.0394 42.584625 56.7283 40.75 58.125 C 40.010496 58.688 39.40625 59.2831 39.40625 59.4375 C 39.40625 59.7897 39.752711 60.5014 40.03125 60.6875 C 40.147061 60.7649 41.258252 60.8125 42.5 60.8125 C 43.734493 60.814114 44.285377 60.810169 44.625 60.71875 L 44.78125 60.71875 L 44.875 60.625 C 45.005709 60.548398 45.10956 60.462374 45.25 60.3125 C 45.995882 59.5165 46.320097 58.60705 47.4375 54.09375 L 48.46875 49.96875 L 47.9375 48.4375 C 47.164262 46.154 47.288673 43.1788 48.25 40.75 C 48.590154 39.8906 48.76165 39.671 49.15625 39.625 C 49.542608 39.58 49.784994 39.7231 50.25 40.375 C 50.572631 40.8272 50.969294 41.5066 51.15625 41.875 C 51.343209 42.2433 51.825408 42.93265 52.21875 43.40625 C 52.967035 44.30735 55.402023 48.0792 56.03125 49.3125 C 56.232354 49.7067 56.4587 50.3632 56.53125 50.75 C 56.603807 51.1368 56.902027 51.7997 57.1875 52.25 C 57.472964 52.7004 57.977593 53.8102 58.3125 54.6875 C 59.123178 56.8112 59.164959 58.8144 58.4375 60.25 C 57.814152 61.4801 57.808672 62.22405 58.4375 62.71875 C 58.998791 63.16025 60.456565 63.5 61.71875 63.5 C 62.236486 63.5 62.493476 63.45137 62.8125 63.21875 C 62.962021 63.109725 63.137536 62.956214 63.34375 62.75 C 64.170772 61.9229 64.251593 61.4382 63.78125 60.3125 C 63.288085 59.1323 62.604195 56.05035 62.375 54.03125 C 62.092811 51.54535 61.83564 50.40115 61.3125 49.34375 C 60.691763 48.08885 60.485763 46.91315 60.375 43.90625 C 60.292431 41.66455 60.157519 40.7867 59.59375 38.625 C 59.174994 37.0196 58.90925 35.59405 58.90625 34.84375 C 58.898804 32.98195 57.905065 29.293 56.71875 26.75 C 55.198967 23.4922 54.791681 22.09265 54.21875 17.96875 C 54.061569 16.83735 53.782552 15.74875 53.46875 15.09375 C 51.892027 11.80265 51.262399 11.01505 49.84375 10.59375 C 49.321294 10.43855 48.728078 10.1488 48.53125 9.9375 C 48.149838 9.5272 48.121488 9.5044 45.3125 9.9375 C 43.645623 10.1944 42.726838 10.8498 41.9375 12.3125 C 41.598384 12.9409 41.3155 13.7241 41.3125 14.0625 C 41.309118 14.4493 41.179286 14.7635 40.96875 14.875 C 40.784557 14.9725 38.917557 15.1324 36.8125 15.25 C 34.707442 15.3676 32.363555 15.5115 31.59375 15.5625 C 30.576898 15.6298 30.026303 15.5825 29.625 15.375 C 29.321191 15.2178 28.795795 15.09375 28.46875 15.09375 C 27.688808 15.09375 26.547288 14.41715 24.25 12.65625 C 23.023308 11.71595 22.375 11.08405 22.375 10.84375 C 22.375 10.64135 22.580619 9.96905 22.84375 9.34375 C 23.106882 8.71865 23.3125 7.99025 23.3125 7.71875 C 23.3125 6.44425 22.180673 5.36695 19.09375 3.78125 L 17.1875 2.8125 L 14.65625 2.71875 C 13.266642 2.67335 11.51802 2.5525 10.78125 2.4375 C 10.236471 2.352475 9.7349041 2.3099812 9.25 2.3125 z "
         transform="translate(-109.83652,2166.5253)"
         id="path2901" />
    </g>
  </g>
</svg>
