<?xml version="1.0" encoding="UTF-8" standalone="no"?>
<!-- Created with Inkscape (http://www.inkscape.org/) -->

<svg
   xmlns:dc="http://purl.org/dc/elements/1.1/"
   xmlns:cc="http://creativecommons.org/ns#"
   xmlns:rdf="http://www.w3.org/1999/02/22-rdf-syntax-ns#"
   xmlns:svg="http://www.w3.org/2000/svg"
   xmlns="http://www.w3.org/2000/svg"
   xmlns:xlink="http://www.w3.org/1999/xlink"
   xmlns:sodipodi="http://sodipodi.sourceforge.net/DTD/sodipodi-0.dtd"
   xmlns:inkscape="http://www.inkscape.org/namespaces/inkscape"
   width="150"
   height="150"
   id="svg2"
   version="1.1"
   inkscape:version="0.47 r22583"
   sodipodi:docname="persy_untracked.svg">
  <defs
     id="defs4">
    <inkscape:path-effect
       effect="spiro"
       id="path-effect3827"
       is_visible="true" />
    <inkscape:perspective
       sodipodi:type="inkscape:persp3d"
       inkscape:vp_x="0 : 526.18109 : 1"
       inkscape:vp_y="0 : 1000 : 0"
       inkscape:vp_z="744.09448 : 526.18109 : 1"
       inkscape:persp3d-origin="372.04724 : 350.78739 : 1"
       id="perspective10" />
    <linearGradient
       id="linearGradient3176-734-748-342-116-658-183-116-103-544-940-937-495-352-321-825-596-136-941-902-216">
      <stop
         id="stop8972"
         offset="0"
         style="stop-color:#94e48d;stop-opacity:1;" />
      <stop
         id="stop8974"
         offset="1"
         style="stop-color:#cef9b4;stop-opacity:1;" />
    </linearGradient>
    <linearGradient
       id="linearGradient3176-734-748-342-116-658-183-116-103-544-940-937-495-352-321-825-596-136-941-902">
      <stop
         id="stop8778"
         offset="0"
         style="stop-color:#e48d94;stop-opacity:1;" />
      <stop
         id="stop8780"
         offset="1"
         style="stop-color:#f9b4ce;stop-opacity:1;" />
    </linearGradient>
    <linearGradient
       y2="1565.7361"
       x2="162.55066"
       y1="1565.7361"
       x1="802.89124"
       gradientUnits="userSpaceOnUse"
       id="linearGradient3213-518-745-539-243-423-182-462-947-961-883-365-96-859-607-672-33-327-163-728"
       xlink:href="#linearGradient3176-734-748-342-116-658-183-116-103-544-940-937-495-352-321-825-596-136-941-902"
       inkscape:collect="always" />
    <linearGradient
       id="linearGradient3176-734-748-342-116-658-183-116-103-544-940-937-495-352-321-825-596-136-941">
      <stop
         id="stop8592"
         offset="0"
         style="stop-color:#8d94e4;stop-opacity:1;" />
      <stop
         id="stop8594"
         offset="1"
         style="stop-color:#b4cef9;stop-opacity:1;" />
    </linearGradient>
    <linearGradient
       y2="1565.7361"
       x2="162.55066"
       y1="1565.7361"
       x1="802.89124"
       gradientUnits="userSpaceOnUse"
       id="linearGradient3213-518-745-539-243-423-182-462-947-961-883-365-96-859-607-672-33-327-163"
       xlink:href="#linearGradient3176-734-748-342-116-658-183-116-103-544-940-937-495-352-321-825-596-136-941"
       inkscape:collect="always" />
    <linearGradient
       id="linearGradient3176-734-748-342-116-658-183-116-103-544-940-937-495-352-321-825-596-136">
      <stop
         id="stop8414"
         offset="0"
         style="stop-color:#8dafe4;stop-opacity:1;" />
      <stop
         id="stop8416"
         offset="1"
         style="stop-color:#b4e3f9;stop-opacity:1;" />
    </linearGradient>
    <linearGradient
       y2="1565.7361"
       x2="162.55066"
       y1="1565.7361"
       x1="802.89124"
       gradientUnits="userSpaceOnUse"
       id="linearGradient3213-518-745-539-243-423-182-462-947-961-883-365-96-859-607-672-33-327"
       xlink:href="#linearGradient3176-734-748-342-116-658-183-116-103-544-940-937-495-352-321-825-596-136"
       inkscape:collect="always" />
    <linearGradient
       id="linearGradient3176-734-748-342-116-658-183-116-103-544-940-937-495-352-321-825-596">
      <stop
         id="stop8244"
         offset="0"
         style="stop-color:#8dcae4;stop-opacity:1;" />
      <stop
         id="stop8246"
         offset="1"
         style="stop-color:#b4f8f9;stop-opacity:1;" />
    </linearGradient>
    <linearGradient
       y2="1565.7361"
       x2="162.55066"
       y1="1565.7361"
       x1="802.89124"
       gradientUnits="userSpaceOnUse"
       id="linearGradient3213-518-745-539-243-423-182-462-947-961-883-365-96-859-607-672-33"
       xlink:href="#linearGradient3176-734-748-342-116-658-183-116-103-544-940-937-495-352-321-825-596"
       inkscape:collect="always" />
    <linearGradient
       id="linearGradient3176-734-748-342-116-658-183-116-103-544-940-937-495-352-321-825">
      <stop
         id="stop8082"
         offset="0"
         style="stop-color:#8de4e3;stop-opacity:1;" />
      <stop
         id="stop8084"
         offset="1"
         style="stop-color:#b4f9e5;stop-opacity:1;" />
    </linearGradient>
    <linearGradient
       y2="1565.7361"
       x2="162.55066"
       y1="1565.7361"
       x1="802.89124"
       gradientUnits="userSpaceOnUse"
       id="linearGradient3213-518-745-539-243-423-182-462-947-961-883-365-96-859-607-672"
       xlink:href="#linearGradient3176-734-748-342-116-658-183-116-103-544-940-937-495-352-321-825"
       inkscape:collect="always" />
    <linearGradient
       id="linearGradient3176-734-748-342-116-658-183-116-103-544-940-937-495-352-321">
      <stop
         id="stop7928"
         offset="0"
         style="stop-color:#8de4c9;stop-opacity:1;" />
      <stop
         id="stop7930"
         offset="1"
         style="stop-color:#b4f9d1;stop-opacity:1;" />
    </linearGradient>
    <linearGradient
       y2="1565.7361"
       x2="162.55066"
       y1="1565.7361"
       x1="802.89124"
       gradientUnits="userSpaceOnUse"
       id="linearGradient3213-518-745-539-243-423-182-462-947-961-883-365-96-859-607"
       xlink:href="#linearGradient3176-734-748-342-116-658-183-116-103-544-940-937-495-352-321"
       inkscape:collect="always" />
    <linearGradient
       id="linearGradient3176-734-748-342-116-658-183-116-103-544-940-937-495-352">
      <stop
         id="stop7782"
         offset="0"
         style="stop-color:#8de4af;stop-opacity:1;" />
      <stop
         id="stop7784"
         offset="1"
         style="stop-color:#b4f9bd;stop-opacity:1;" />
    </linearGradient>
    <linearGradient
       y2="1565.7361"
       x2="162.55066"
       y1="1565.7361"
       x1="802.89124"
       gradientUnits="userSpaceOnUse"
       id="linearGradient3213-518-745-539-243-423-182-462-947-961-883-365-96-859"
       xlink:href="#linearGradient3176-734-748-342-116-658-183-116-103-544-940-937-495-352"
       inkscape:collect="always" />
    <linearGradient
       id="linearGradient3176-734-748-342-116-658-183-116-103-544-940-937-495">
      <stop
         id="stop7644"
         offset="0"
         style="stop-color:#8de495;stop-opacity:1;" />
      <stop
         id="stop7646"
         offset="1"
         style="stop-color:#bff9b4;stop-opacity:1;" />
    </linearGradient>
    <linearGradient
       y2="1565.7361"
       x2="162.55066"
       y1="1565.7361"
       x1="802.89124"
       gradientUnits="userSpaceOnUse"
       id="linearGradient3213-518-745-539-243-423-182-462-947-961-883-365-96"
       xlink:href="#linearGradient3176-734-748-342-116-658-183-116-103-544-940-937-495"
       inkscape:collect="always" />
    <linearGradient
       id="linearGradient3176-734-748-342-116-658-183-116-103-544-940-937">
      <stop
         id="stop7514"
         offset="0"
         style="stop-color:#9fe48d;stop-opacity:1;" />
      <stop
         id="stop7516"
         offset="1"
         style="stop-color:#d4f9b4;stop-opacity:1;" />
    </linearGradient>
    <linearGradient
       y2="1565.7361"
       x2="162.55066"
       y1="1565.7361"
       x1="802.89124"
       gradientUnits="userSpaceOnUse"
       id="linearGradient3213-518-745-539-243-423-182-462-947-961-883-365"
       xlink:href="#linearGradient3176-734-748-342-116-658-183-116-103-544-940-937"
       inkscape:collect="always" />
    <linearGradient
       id="linearGradient3176-734-748-342-116-658-183-116-103-544-940">
      <stop
         id="stop7392"
         offset="0"
         style="stop-color:#bae48d;stop-opacity:1;" />
      <stop
         id="stop7394"
         offset="1"
         style="stop-color:#e9f9b4;stop-opacity:1;" />
    </linearGradient>
    <linearGradient
       y2="1565.7361"
       x2="162.55066"
       y1="1565.7361"
       x1="802.89124"
       gradientUnits="userSpaceOnUse"
       id="linearGradient3213-518-745-539-243-423-182-462-947-961-883"
       xlink:href="#linearGradient3176-734-748-342-116-658-183-116-103-544-940"
       inkscape:collect="always" />
    <linearGradient
       id="linearGradient3176-734-748-342-116-658-183-116-103-544">
      <stop
         id="stop7278"
         offset="0"
         style="stop-color:#d5e48d;stop-opacity:1;" />
      <stop
         id="stop7280"
         offset="1"
         style="stop-color:#f9f4b4;stop-opacity:1;" />
    </linearGradient>
    <linearGradient
       y2="1565.7361"
       x2="162.55066"
       y1="1565.7361"
       x1="802.89124"
       gradientUnits="userSpaceOnUse"
       id="linearGradient3213-518-745-539-243-423-182-462-947-961"
       xlink:href="#linearGradient3176-734-748-342-116-658-183-116-103-544"
       inkscape:collect="always" />
    <linearGradient
       id="linearGradient3176-734-748-342-116-658-183-116-103">
      <stop
         id="stop7172"
         offset="0"
         style="stop-color:#e4d88d;stop-opacity:1;" />
      <stop
         id="stop7174"
         offset="1"
         style="stop-color:#f9e0b4;stop-opacity:1;" />
    </linearGradient>
    <linearGradient
       y2="1565.7361"
       x2="162.55066"
       y1="1565.7361"
       x1="802.89124"
       gradientUnits="userSpaceOnUse"
       id="linearGradient3213-518-745-539-243-423-182-462-947"
       xlink:href="#linearGradient3176-734-748-342-116-658-183-116-103"
       inkscape:collect="always" />
    <linearGradient
       id="linearGradient3176-734-748-342-116-658-183-116">
      <stop
         id="stop7074"
         offset="0"
         style="stop-color:#e4be8d;stop-opacity:1;" />
      <stop
         id="stop7076"
         offset="1"
         style="stop-color:#f9ccb4;stop-opacity:1;" />
    </linearGradient>
    <linearGradient
       y2="1565.7361"
       x2="162.55066"
       y1="1565.7361"
       x1="802.89124"
       gradientUnits="userSpaceOnUse"
       id="linearGradient3213-518-745-539-243-423-182-462"
       xlink:href="#linearGradient3176-734-748-342-116-658-183-116"
       inkscape:collect="always" />
    <linearGradient
       id="linearGradient3176-734-748-342-116-658-183">
      <stop
         id="stop6984"
         offset="0"
         style="stop-color:#e4a48d;stop-opacity:1;" />
      <stop
         id="stop6986"
         offset="1"
         style="stop-color:#f9b8b4;stop-opacity:1;" />
    </linearGradient>
    <linearGradient
       y2="1565.7361"
       x2="162.55066"
       y1="1565.7361"
       x1="802.89124"
       gradientUnits="userSpaceOnUse"
       id="linearGradient3213-518-745-539-243-423-182"
       xlink:href="#linearGradient3176-734-748-342-116-658-183"
       inkscape:collect="always" />
    <linearGradient
       id="linearGradient3176-734-748-342-116-658">
      <stop
         id="stop6902"
         offset="0"
         style="stop-color:#e48d90;stop-opacity:1;" />
      <stop
         id="stop6904"
         offset="1"
         style="stop-color:#f9b4c4;stop-opacity:1;" />
    </linearGradient>
    <linearGradient
       y2="1565.7361"
       x2="162.55066"
       y1="1565.7361"
       x1="802.89124"
       gradientUnits="userSpaceOnUse"
       id="linearGradient3213-518-745-539-243-423"
       xlink:href="#linearGradient3176-734-748-342-116-658"
       inkscape:collect="always" />
    <linearGradient
       id="linearGradient3176-734-748-342-116">
      <stop
         id="stop6828"
         offset="0"
         style="stop-color:#e48dab;stop-opacity:1;" />
      <stop
         id="stop6830"
         offset="1"
         style="stop-color:#f9b4d9;stop-opacity:1;" />
    </linearGradient>
    <linearGradient
       y2="1565.7361"
       x2="162.55066"
       y1="1565.7361"
       x1="802.89124"
       gradientUnits="userSpaceOnUse"
       id="linearGradient3213-518-745-539-243"
       xlink:href="#linearGradient3176-734-748-342-116"
       inkscape:collect="always" />
    <linearGradient
       id="linearGradient3176-734-748-342">
      <stop
         id="stop6762"
         offset="0"
         style="stop-color:#e48dc6;stop-opacity:1;" />
      <stop
         id="stop6764"
         offset="1"
         style="stop-color:#f9b4ee;stop-opacity:1;" />
    </linearGradient>
    <linearGradient
       y2="1565.7361"
       x2="162.55066"
       y1="1565.7361"
       x1="802.89124"
       gradientUnits="userSpaceOnUse"
       id="linearGradient3213-518-745-539"
       xlink:href="#linearGradient3176-734-748-342"
       inkscape:collect="always" />
    <linearGradient
       id="linearGradient3176-734-748">
      <stop
         id="stop6704"
         offset="0"
         style="stop-color:#e48de1;stop-opacity:1;" />
      <stop
         id="stop6706"
         offset="1"
         style="stop-color:#efb4f9;stop-opacity:1;" />
    </linearGradient>
    <linearGradient
       y2="1565.7361"
       x2="162.55066"
       y1="1565.7361"
       x1="802.89124"
       gradientUnits="userSpaceOnUse"
       id="linearGradient3213-518-745"
       xlink:href="#linearGradient3176-734-748"
       inkscape:collect="always" />
    <linearGradient
       id="linearGradient3176-734">
      <stop
         id="stop6653"
         offset="0"
         style="stop-color:#cc8de4;stop-opacity:1;" />
      <stop
         id="stop6655"
         offset="1"
         style="stop-color:#dbb4f9;stop-opacity:1;" />
    </linearGradient>
    <linearGradient
       y2="1565.7361"
       x2="162.55066"
       y1="1565.7361"
       x1="802.89124"
       gradientUnits="userSpaceOnUse"
       id="linearGradient3213-518"
       xlink:href="#linearGradient3176-734"
       inkscape:collect="always" />
    <linearGradient
       y2="1565.7361"
       x2="162.55066"
       y1="1565.7361"
       x1="802.89124"
       gradientUnits="userSpaceOnUse"
       id="linearGradient3213"
       xlink:href="#linearGradient3176"
       inkscape:collect="always" />
    <linearGradient
       gradientUnits="userSpaceOnUse"
       y2="1565.7361"
       x2="162.55066"
       y1="1565.7361"
       x1="802.89124"
       id="linearGradient3182"
       xlink:href="#linearGradient3176"
       inkscape:collect="always" />
    <inkscape:perspective
       id="perspective2503"
       inkscape:persp3d-origin="372.04724 : 350.78739 : 1"
       inkscape:vp_z="744.09448 : 526.18109 : 1"
       inkscape:vp_y="0 : 1000 : 0"
       inkscape:vp_x="0 : 526.18109 : 1"
       sodipodi:type="inkscape:persp3d" />
    <linearGradient
       id="linearGradient3176">
      <stop
         id="stop3178"
         offset="0"
         style="stop-color:#b28de4;stop-opacity:1;" />
      <stop
         id="stop3180"
         offset="1"
         style="stop-color:#c7b4f9;stop-opacity:1;" />
    </linearGradient>
    <inkscape:perspective
       id="perspective4426"
       inkscape:persp3d-origin="0.5 : 0.33333333 : 1"
       inkscape:vp_z="1 : 0.5 : 1"
       inkscape:vp_y="0 : 1000 : 0"
       inkscape:vp_x="0 : 0.5 : 1"
       sodipodi:type="inkscape:persp3d" />
    <inkscape:perspective
       id="perspective4426-7"
       inkscape:persp3d-origin="0.5 : 0.33333333 : 1"
       inkscape:vp_z="1 : 0.5 : 1"
       inkscape:vp_y="0 : 1000 : 0"
       inkscape:vp_x="0 : 0.5 : 1"
       sodipodi:type="inkscape:persp3d" />
    <inkscape:perspective
       id="perspective4426-9"
       inkscape:persp3d-origin="0.5 : 0.33333333 : 1"
       inkscape:vp_z="1 : 0.5 : 1"
       inkscape:vp_y="0 : 1000 : 0"
       inkscape:vp_x="0 : 0.5 : 1"
       sodipodi:type="inkscape:persp3d" />
    <inkscape:perspective
       id="perspective4483"
       inkscape:persp3d-origin="0.5 : 0.33333333 : 1"
       inkscape:vp_z="1 : 0.5 : 1"
       inkscape:vp_y="0 : 1000 : 0"
       inkscape:vp_x="0 : 0.5 : 1"
       sodipodi:type="inkscape:persp3d" />
    <inkscape:perspective
       id="perspective5598"
       inkscape:persp3d-origin="0.5 : 0.33333333 : 1"
       inkscape:vp_z="1 : 0.5 : 1"
       inkscape:vp_y="0 : 1000 : 0"
       inkscape:vp_x="0 : 0.5 : 1"
       sodipodi:type="inkscape:persp3d" />
    <inkscape:perspective
       id="perspective6261"
       inkscape:persp3d-origin="0.5 : 0.33333333 : 1"
       inkscape:vp_z="1 : 0.5 : 1"
       inkscape:vp_y="0 : 1000 : 0"
       inkscape:vp_x="0 : 0.5 : 1"
       sodipodi:type="inkscape:persp3d" />
  </defs>
  <sodipodi:namedview
     id="base"
     pagecolor="#ffffff"
     bordercolor="#666666"
     borderopacity="1.0"
     inkscape:pageopacity="0.0"
     inkscape:pageshadow="2"
     inkscape:zoom="1.979899"
     inkscape:cx="58.169423"
     inkscape:cy="86.744232"
     inkscape:document-units="px"
     inkscape:current-layer="layer1"
     showgrid="false"
     inkscape:window-width="1119"
     inkscape:window-height="790"
     inkscape:window-x="559"
     inkscape:window-y="31"
     inkscape:window-maximized="0" />
  <metadata
     id="metadata7">
    <rdf:RDF>
      <cc:Work
         rdf:about="">
        <dc:format>image/svg+xml</dc:format>
        <dc:type
           rdf:resource="http://purl.org/dc/dcmitype/StillImage" />
        <dc:title />
      </cc:Work>
    </rdf:RDF>
  </metadata>
  <g
     inkscape:label="Layer 1"
     inkscape:groupmode="layer"
     id="layer1"
     transform="translate(-225.98364,-345.9071)">
    <path
       style="fill:#eae3d0;fill-opacity:1;opacity:0.6"
       d="m 340.28125,369.21875 c -6.51545,-0.45449 -13.15381,3.73276 -15.0625,9.875 -4.13883,0.97834 -10.01807,-0.61029 -12.98187,1.71476 -2.66763,9.11579 -9.4756,19.95603 -3.04938,29.00399 7.25878,11.57362 24.73727,8.59583 32.28125,19.6875 3.42466,8.20802 10.42603,14.62863 13.09375,23.21875 3.18322,4.49401 2.50034,10.27464 0.78125,15.09375 0.914,9.48228 18.23039,9.68879 18.84375,-0.15625 -0.2985,-6.00092 -3.22255,-11.61251 -3.5,-17.75 -1.54905,-5.83273 -3.10335,-11.53429 -3.25,-17.53125 -2.0021,-11.36593 -2.96681,-23.00858 -8.19156,-33.43757 -3.68267,-8.21951 -2.0975,-18.78921 -9.43344,-25.24993 -2.60457,-2.14293 -6.09992,-4.51869 -9.53125,-4.46875 z"
       id="path5588-1" />
    <path
       style="fill:#eae3d0;fill-opacity:1;opacity:0.6"
       d="m 263.8125,401.8125 c -7.58662,-0.0195 -18.16707,4.41944 -16.875,13.59375 0.22444,7.5903 2.75932,14.88499 6.27806,21.36681 1.38477,8.47675 4.8158,17.05801 4.22194,25.72694 -1.59348,2.79532 -6.26892,3.16662 -6.59375,7.0625 -1.30266,7.27564 8.44311,9.18598 13.65625,7.5 2.88891,-2.23703 2.21612,2.83247 4.71875,3.625 5.94318,3.39502 17.09075,2.37759 18.21875,-5.84375 2.99234,-8.40546 4.67597,-17.24292 5.9375,-26.09375 5.60645,-1.42435 10.56285,-5.68349 16.4375,-5.09375 2.34312,-0.0475 2.24678,4.81142 4.0625,6.53125 2.97366,4.2218 5.20332,11.4003 -0.625,14.40625 -4.43039,2.36819 -5.00344,9.41373 0.15625,11.28125 4.91319,1.18699 11.99164,1.98146 14.75,-3.15625 3.67117,-6.22069 4.10226,-14.1357 5.71875,-20.75 -1.30667,-3.0299 -2.46758,-7.93885 -1.3125,-10.25 3.52983,2.8221 6.16143,-2.48731 4.8125,-5.53125 -2.254,-11.57174 -15.21435,-14.90916 -24.78125,-18.21875 -4.48122,-1.57612 -8.52129,-3.843 -10.5625,-8.21875 -3.68458,-2.85696 -9.07958,-1.13759 -13.31137,-3.18992 -8.192,-2.0578 -16.35657,-5.00411 -24.90738,-4.74758 z"
       id="path6251-1" />
    <path
       style="fill:#eae3d0;fill-opacity:1;opacity:0.6"
       d="m 257.875,352.65625 c -8.57013,1.54054 -19.46082,6.11598 -19.09375,16.53125 0.27813,6.44255 0.20728,13.30914 4.34375,18.6875 0.65666,4.75129 7.65397,7.35215 4.59375,12.6875 -0.66031,4.58127 -1.00286,9.13975 -1.34375,13.78125 4.60158,-7.41434 11.63091,-16.2172 21.46875,-14.375 13.00112,1.70175 25.39267,7.99691 38.78125,6.46875 -6.15968,-5.69222 -3.76257,-14.41921 -0.375,-20.9375 1.34958,-3.1249 2.28653,-6.37397 2.96875,-9.71875 -7.41042,1.8068 -16.70695,1.36748 -21.75,-4.84375 4.28109,-6.28091 -2.30678,-12.89365 -8.03125,-15.03125 -6.43107,-3.61328 -14.45872,-2.49978 -21.5625,-3.25 z"
       id="path5579-6" />
    <path
       style="fill:#3a3935;fill-opacity:1"
       d="m 315.70176,383.65361 c -0.0884,0.27742 -0.12288,0.56689 -0.21875,0.84375 -0.44529,1.2859 -0.93653,2.56625 -1.46875,3.84375 -1.06445,2.555 -2.18681,5.09712 -2.875,7.65625 -0.3441,1.27956 -0.58721,2.55373 -0.65625,3.84375 -0.069,1.29002 0.0171,2.56824 0.34375,3.875 0.27964,1.11858 0.68027,2.14018 1.1875,3.0625 0.50722,0.92232 1.14435,1.77433 1.84375,2.53125 0.6994,0.75692 1.48758,1.40887 2.34375,2.03125 0.85617,0.62238 1.77246,1.20005 2.75,1.71875 1.95508,1.0374 4.11563,1.91087 6.34375,2.71875 2.22811,0.80788 4.53208,1.54974 6.75,2.375 2.21791,0.82525 4.35677,1.72297 6.28125,2.8125 0.96224,0.54476 1.85173,1.12412 2.6875,1.78125 0.83577,0.65713 1.60735,1.38714 2.28125,2.1875 0.6739,0.80036 1.24212,1.6818 1.71875,2.65625 0.34637,0.70815 0.5552,1.52959 0.78125,2.34375 0.42198,0.65537 0.90185,1.34152 1.125,1.78125 0.33898,0.66789 1.19311,1.92253 1.90625,2.78125 1.35668,1.63363 5.79667,8.48256 6.9375,10.71875 0.36461,0.71469 0.77469,1.86128 0.90625,2.5625 0.13154,0.70124 0.63868,1.90224 1.15625,2.71875 0.51756,0.81652 1.4553,2.78435 2.0625,4.375 1.4698,3.85033 1.53768,7.5535 0.21875,10.15625 -1.13022,2.23037 -1.07746,3.5407 0.0625,4.4375 1.01765,0.80048 3.6491,1.4375 5.9375,1.4375 0.93869,0 1.39035,-0.10955 1.96875,-0.53125 0.27109,-0.19766 0.53239,-0.40737 0.90625,-0.78125 1.49944,-1.49943 1.72776,-2.4591 0.875,-4.5 -0.89413,-2.13995 -2.1782,-7.68305 -2.59375,-11.34375 -0.51162,-4.50705 -0.98903,-6.61398 -1.9375,-8.53125 -1.12542,-2.27496 -1.48668,-4.39187 -1.6875,-9.84375 -0.1497,-4.06415 -0.41535,-5.67473 -1.4375,-9.59375 -0.75922,-2.91092 -1.18203,-5.48346 -1.1875,-6.84375 -0.0135,-3.37546 -1.81789,-10.01443 -3.96875,-14.625 -2.75544,-5.90658 -3.46124,-8.5233 -4.5,-16 -0.28499,-2.05127 -0.83731,-3.99993 -1.40625,-5.1875 -2.85868,-5.96705 -4.02168,-7.36117 -6.59375,-8.125 -0.94723,-0.28129 -2.01814,-0.89821 -2.375,-1.28125 -0.69151,-0.74226 -0.71967,-0.69132 -5.8125,0.0937 -3.02212,0.46592 -4.72514,1.66059 -6.15625,4.3125 -0.61483,1.13932 -1.15089,2.60527 -1.15625,3.21875 -0.006,0.70122 -0.24328,1.17296 -0.625,1.375 -0.33394,0.17675 -3.68341,0.50547 -7.5,0.71875 -1.41717,0.0792 -2.26867,0.112 -3.53125,0.1875 -0.007,-0.0191 -0.0245,-0.0434 -0.0312,-0.0625 -0.63478,0.0379 -0.9944,0.0559 -1.65625,0.0937 z"
       id="path5588" />
    <path
       style="fill:#3a3935;fill-opacity:1"
       d="M 73.28125 66.46875 C 72.818627 66.445215 72.373351 66.479108 71.90625 66.4375 C 69.272688 66.202913 66.571449 65.666914 63.84375 65.03125 C 58.388353 63.759922 52.809137 61.983129 47.46875 60.875 C 44.798556 60.320936 42.174802 59.946388 39.65625 59.875 C 38.396974 59.839306 37.174755 59.891041 35.96875 60.03125 C 34.762745 60.171459 33.579992 60.397064 32.4375 60.75 C 31.295008 61.102936 30.193739 61.585015 29.125 62.1875 C 28.056261 62.789985 27.015996 63.517392 26.03125 64.40625 C 25.720049 64.687149 25.45839 65.094331 25.15625 65.40625 C 24.788949 66.900375 24.83594 68.615708 25.75 75.09375 C 26.47432 80.22699 26.94042 81.75612 28.65625 84.25 C 30.27669 86.60523 31.64557 90.13592 31.65625 91.9375 C 31.66225 92.80913 32.36875 96.38882 33.25 99.90625 C 34.98412 106.82781 35.61855 110.64758 35.65625 115.0625 C 35.67875 117.69355 35.56716 118.00402 34.5625 119.40625 C 33.96837 120.23556 32.75299 121.29613 31.875 121.78125 C 29.88114 122.88295 28.53125 124.13273 28.53125 124.875 C 28.53125 125.18768 28.97522 125.85418 29.5 126.34375 C 30.31626 127.10526 30.91436 127.30099 33.5 127.5 C 33.98709 127.5375 34.30192 127.4858 34.71875 127.5 C 37.63826 127.5999 39.08808 127.18781 40.5 125.625 C 41.18847 124.86297 41.75 124.05266 41.75 123.84375 C 41.75 123.63482 42.41612 122.11162 43.21875 120.46875 C 44.85407 117.12143 44.74671 117.80579 44.9375 103.21875 C 45.0288 96.23303 45.02356 96.29083 47.46875 97.3125 C 48.17867 97.60911 49.0627 97.80957 49.46875 97.8125 C 49.87481 97.8155 50.44461 97.93959 50.6875 98.09375 C 51.3598 98.52043 51.76046 106.42093 51.46875 113.25 C 51.22005 119.07173 51.18558 119.20562 49.875 122.25 C 48.69107 125.00026 48.39898 125.43525 46.9375 126.34375 C 44.97823 127.5617 43.77235 129.71058 44.53125 130.625 C 45.1897 131.41839 46.26409 131.92449 47.84375 132.21875 C 48.52722 132.34608 50.1145 132.38825 51.59375 132.34375 C 51.76655 132.33775 51.92655 132.35175 52.09375 132.34375 C 53.0924 132.29595 53.89261 132.19291 54.53125 132.03125 C 54.59505 132.01505 54.65781 132.0178 54.71875 132 C 54.8511 131.9688 54.99395 131.89269 55.125 131.8125 C 56.57203 131.20642 57.07242 129.88806 57.84375 126.625 C 58.18208 125.19379 58.85686 123.32748 59.28125 122.46875 C 60.02049 120.97288 60.26689 119.97316 61.34375 114.15625 C 61.60869 112.72504 62.07639 110.27663 62.375 108.75 C 62.6736 107.22335 63.09131 104.77816 63.28125 103.28125 C 63.4712 101.78436 63.7087 100.26589 63.875 99.96875 C 64.04128 99.67159 66.09034 98.8777 68.40625 98.15625 C 70.80831 97.40795 74.22983 95.98768 76.40625 94.84375 L 80.25 92.78125 L 81.25 93.4375 C 82.52967 94.19341 84.2547 93.95562 86.03125 92.75 C 87.50745 91.74823 88.21059 91.86014 88.21875 93.1875 C 88.22675 94.51938 88.849 96.70332 89.625 98.6875 C 90.02915 99.72093 90.46106 100.74074 90.9375 101.53125 C 93.51409 105.80618 95.15625 110.42023 95.15625 113.25 C 95.15625 116.15447 93.32625 119.18653 90 121.71875 C 88.65923 122.73944 87.53125 123.8138 87.53125 124.09375 C 87.53125 124.73252 88.21375 126.00654 88.71875 126.34375 C 88.92872 126.48394 90.90491 126.62205 93.15625 126.625 C 95.39444 126.628 96.4155 126.63379 97.03125 126.46875 L 97.3125 126.46875 L 97.5 126.3125 C 97.73698 126.17361 97.93287 125.92799 98.1875 125.65625 C 99.53982 124.21311 100.06784 122.62012 102.09375 114.4375 L 103.96875 106.90625 L 103.03125 104.125 C 101.97981 101.01986 101.8323 97.22662 102.5625 93.65625 C 102.8059 92.46613 103.15801 91.3509 103.59375 90.25 C 103.71857 89.93465 103.83129 89.82175 103.9375 89.59375 C 103.8906 89.52195 103.82613 89.44931 103.78125 89.375 C 104.13266 88.69763 104.47351 88.33897 104.96875 88.28125 C 105.66923 88.19965 106.03191 88.47444 106.875 89.65625 C 107.07483 89.936367 107.21853 90.253676 107.4375 90.59375 C 107.21145 89.779587 107.00262 88.95815 106.65625 88.25 C 106.17962 87.275553 105.6114 86.394107 104.9375 85.59375 C 104.2636 84.793393 103.49202 84.06338 102.65625 83.40625 C 101.82048 82.74912 100.93099 82.169766 99.96875 81.625 C 98.044271 80.535467 95.905416 79.637754 93.6875 78.8125 C 91.469584 77.987246 89.165615 77.245378 86.9375 76.4375 C 84.709385 75.629622 82.548828 74.756155 80.59375 73.71875 C 79.616211 73.200048 78.699923 72.622378 77.84375 72 C 76.987577 71.377622 76.199402 70.725667 75.5 69.96875 C 74.800598 69.211833 74.163476 68.359819 73.65625 67.4375 C 73.495837 67.145811 73.419885 66.780226 73.28125 66.46875 z "
       id="path6251"
       transform="translate(225.98364,345.9071)" />
    <path
       style="fill:#3a3935;fill-opacity:1"
       d="m 259.39497,356.58936 c -2.63747,0.0138 -5.08509,0.84607 -9.21875,2.8125 -0.73704,0.3506 -1.20902,0.61505 -1.78125,0.90625 -0.22954,0.11265 -0.44892,0.20156 -0.65625,0.3125 -3.06605,1.63547 -3.78837,2.61512 -4.40625,5.53125 -0.30404,1.43486 -0.44815,2.63425 -0.5625,3.65625 -0.0395,0.35392 -0.1084,0.73054 -0.125,1.03125 -0.0273,0.3855 -0.0479,0.76339 0,1.03125 0.0336,0.55075 0.11101,0.98237 0.28125,1.1875 0.30889,0.37219 0.50396,1.57697 0.53125,3.53125 0.0569,4.07835 0.28832,4.93397 2.0625,7.21875 1.00152,1.28977 1.5,2.31823 1.5,2.96875 0,1.32327 0.86894,2.81062 1.96875,3.53125 0.4906,0.32145 1.32192,1.23648 1.875,2 1.36528,1.8847 1.80781,5.79558 0.90625,8.15625 -0.10895,0.28527 -0.0552,0.7161 -0.125,1 0.30214,-0.31192 0.56379,-0.7191 0.875,-1 0.98474,-0.88886 2.02501,-1.61626 3.09375,-2.21875 1.06873,-0.60248 2.17,-1.08456 3.3125,-1.4375 1.14249,-0.35293 2.32524,-0.57854 3.53125,-0.71875 1.206,-0.14021 2.42822,-0.19194 3.6875,-0.15625 2.51855,0.0714 5.1423,0.44594 7.8125,1 5.34038,1.10813 10.9196,2.88492 16.375,4.15625 2.72769,0.63567 5.42893,1.17167 8.0625,1.40625 0.4671,0.0416 0.91237,0.008 1.375,0.0312 -0.29973,-0.67341 -0.6213,-1.32892 -0.8125,-2.09375 -0.32669,-1.30676 -0.41279,-2.58498 -0.34375,-3.875 0.069,-1.29002 0.31215,-2.56418 0.65625,-3.84375 0.68819,-2.55912 1.81055,-5.10124 2.875,-7.65625 0.53222,-1.2775 1.02346,-2.55785 1.46875,-3.84375 0.0959,-0.27685 0.1303,-0.56632 0.21875,-0.84375 -1.59901,0.0913 -3.41358,0.2112 -4,0.25 -1.84361,0.12201 -2.80367,0.0325 -3.53125,-0.34375 -0.55082,-0.28483 -1.46955,-0.46875 -2.0625,-0.46875 -1.41408,0 -3.52242,-1.21363 -7.6875,-4.40625 -2.22406,-1.70478 -3.40625,-2.8768 -3.40625,-3.3125 0,-0.36697 0.39792,-1.58529 0.875,-2.71875 0.47706,-1.13347 0.84375,-2.47646 0.84375,-2.96875 0,-2.31075 -2.02827,-4.2189 -7.625,-7.09375 l -3.5,-1.78125 -4.59375,-0.125 c -2.51943,-0.0822 -5.6642,-0.35399 -7,-0.5625 -0.98771,-0.15417 -1.87084,-0.25456 -2.75,-0.25 z"
       id="path5579" />
  </g>
</svg>
